<?xml version="1.0" standalone="no"?>
<!DOCTYPE svg PUBLIC "-//W3C//DTD SVG 1.1//EN" "http://www.w3.org/Graphics/SVG/1.1/DTD/svg11.dtd" >
<svg xmlns="http://www.w3.org/2000/svg">
<metadata></metadata>
<defs>
<font id="beta54regular" horiz-adv-x="1132" >
<font-face units-per-em="2048" ascent="1638" descent="-410" />
<missing-glyph horiz-adv-x="300" />
<glyph horiz-adv-x="2048" />
<glyph horiz-adv-x="2048" />
<glyph unicode="&#xd;" horiz-adv-x="2048" />
<glyph unicode=" "  horiz-adv-x="300" />
<glyph unicode="&#x09;" horiz-adv-x="300" />
<glyph unicode="&#xa0;" horiz-adv-x="300" />
<glyph unicode="!" horiz-adv-x="516" d="M21 136q0 14 1.5 30t3.5 33q21 160 113 160q28 0 48 -11t33 -30t19.5 -44.5t6.5 -54.5q0 -56 -9.5 -95t-26.5 -63t-41 -34.5t-52 -10.5q-15 0 -31.5 5.5t-31 19t-24 37t-9.5 58.5zM144 652q0 79 3 156t13 159t30 170.5t54 190.5q48 143 134 143q28 0 48.5 -7.5 t34.5 -20.5t21 -29t7 -32q0 -8 -1.5 -16.5t-3.5 -18.5q-48 -177 -93.5 -350.5t-81.5 -348.5q-26 -121 -102 -121q-61 0 -62 69q0 14 -0.5 28t-0.5 28z" />
<glyph unicode="&#x22;" horiz-adv-x="683" d="M35 927q0 10 1 20.5t3 22.5q9 64 14.5 131t12 133.5t16 132t26.5 127.5q16 58 60 88t107 31q20 0 32.5 -6.5t19 -17t9 -25.5t2.5 -31q0 -14 -1.5 -29t-5.5 -32q-18 -86 -37.5 -162.5t-41 -147.5t-46 -136.5t-52.5 -128.5q-24 -52 -58 -52q-25 0 -43 19t-18 63zM351 927 q0 10 1 20.5t3 22.5q9 64 14.5 131t12 133.5t16 132t26.5 127.5q16 58 60 88t107 31q20 0 32.5 -6.5t19 -17t9 -25.5t2.5 -31q0 -14 -1.5 -29t-5.5 -32q-18 -86 -37.5 -162.5t-41 -147.5t-46 -136.5t-52.5 -128.5q-24 -52 -58 -52q-25 0 -43 19t-18 63z" />
<glyph unicode="#" horiz-adv-x="837" d="M36 354q0 23 29 40t85 34q6 38 12 73.5t11 66.5q-33 7 -57 25.5t-24 44.5q0 20 25.5 39t74.5 31q5 52 13.5 104.5t29 95.5t58 70t99.5 27q20 0 32.5 -6.5t19 -17t9 -25.5t2.5 -31q0 -36 -12 -87t-24 -99q11 0 22.5 0.5t22.5 0.5q12 0 23.5 -0.5t23.5 -0.5q7 49 16.5 97 t30 85.5t56 60.5t94.5 23q20 0 32.5 -6.5t19 -17t9 -25.5t2.5 -31q0 -20 -4 -44t-10 -50t-13 -53.5t-13 -54.5q70 -18 70 -64q0 -17 -5 -32.5t-12.5 -27t-15 -19.5t-13.5 -10q-25 -10 -67 -15h-2q-8 -28 -15.5 -56.5t-17.5 -54.5q93 -15 93 -68q0 -17 -5 -32.5t-12.5 -27.5 t-15.5 -20t-14 -10q-19 -8 -46 -12t-59 -6q-11 -31 -22.5 -60.5t-23.5 -52.5t-26 -37t-31 -14q-25 0 -43 19t-18 63q0 17 3 37.5t7 39.5l-49 1q-29 1 -56.5 2t-55.5 3q-12 -32 -23.5 -61.5t-23.5 -52.5t-26 -37t-31 -14q-25 0 -43 19t-18 63q0 10 1 20.5t3 22.5t4 25.5 t4 27.5q-38 7 -64 26.5t-26 45.5zM341 455h38h46.5t47.5 -1q11 62 15 91v2q-32 2 -61.5 2t-57.5 2q-7 -23 -14 -47t-14 -49z" />
<glyph unicode="$" horiz-adv-x="1260" d="M19 321v6.5t1 6.5q13 84 32 167t39 168q12 61 67 61q32 0 51 -10.5t30.5 -27t16.5 -37.5t9 -41q31 -177 335 -197h8q229 8 293 138q11 24 11 43q0 28 -23 51.5t-63 43.5t-94.5 36t-117.5 29q-75 15 -147.5 41.5t-129.5 66t-92 92t-35 119.5q0 95 50.5 173t166.5 131 q76 35 154 52.5t160 17.5q57 0 97.5 -6t70 -15t51 -20.5t40.5 -23.5q7 -6 22 -6q8 0 15 3t10 9q23 49 82 49q34 0 55 -8t33 -21t16.5 -28t4.5 -28q0 -4 -0.5 -8t-1.5 -9q-18 -84 -34.5 -166.5t-47.5 -163.5q-13 -34 -43 -34q-17 0 -33 7t-28 16t-19 18t-8 13q0 -1 0.5 14.5 t-5 40t-21.5 52.5t-49 52.5t-86.5 41t-134.5 16.5q-134 0 -207 -38.5t-73 -101.5q0 -38 20.5 -66.5t56.5 -49.5t85.5 -35.5t108.5 -23.5q115 -18 197.5 -46.5t135 -66.5t77 -84.5t24.5 -100.5q0 -41 -17 -89q-31 -86 -82.5 -151t-121 -109t-154.5 -66t-182 -22 q-61 0 -113 12.5t-94.5 34t-75 51t-53.5 62.5q-14 22 -29 21q-10 0 -15 -11t-9 -27t-8.5 -35t-12.5 -35t-21 -27t-34 -11q-27 0 -47.5 7.5t-34.5 20.5t-21.5 29t-7.5 33zM356 132q0 27 12 62q55 174 107.5 349t106.5 349t112 346t123 339q14 38 53 38q43 0 67.5 -31.5 t24.5 -79.5q0 -39 -9 -81t-20 -80q-49 -164 -106 -321.5t-117.5 -312.5t-121.5 -309.5t-117 -311.5q-9 -26 -18 -36t-18 -10q-17 0 -31 8t-25 20.5t-17 28.5t-6 33z" />
<glyph unicode="%" horiz-adv-x="1288" d="M20 967q0 48 15.5 95.5t42 90t62 79.5t75.5 63.5t83 42t84 15.5q43 0 87 -15.5t79 -45t57 -73.5t22 -101q0 -84 -24.5 -159t-70.5 -131.5t-111.5 -89t-147.5 -32.5q-54 0 -100 21.5t-80 58t-53.5 83.5t-19.5 98zM199 1012q0 -33 10 -56t27 -37.5t39 -21.5t45 -7 q66 0 104 42.5t38 124.5q0 23 -8.5 46.5t-25.5 42t-43.5 30t-62.5 11.5q-24 0 -46 -10.5t-39 -30.5t-27.5 -51t-10.5 -71v-12zM323 118q0 21 12 50q58 145 114.5 290.5t114 290t119.5 287.5t131 283q16 32 57 32q48 0 76.5 -27.5t28.5 -67.5q0 -32 -9.5 -67.5t-20.5 -64.5 q-52 -135 -113.5 -266t-126.5 -260t-130.5 -258t-125.5 -260q-10 -22 -19 -30t-20 -8q-20 0 -36 7t-27.5 18t-18 24.5t-6.5 26.5zM656 326q0 73 34 142.5t87 123.5t117.5 87t126.5 33q43 0 86.5 -15.5t78 -45.5t56 -73.5t21.5 -100.5q0 -84 -24.5 -159t-70.5 -131.5 t-111.5 -89t-147.5 -32.5q-54 0 -100 21.5t-80 58t-53.5 83.5t-19.5 98zM835 371q0 -33 10 -56t27 -37.5t39 -21.5t45 -7q66 0 104 43t38 125q0 24 -8.5 47t-26 41.5t-43.5 30t-62 11.5q-24 0 -46 -10.5t-39.5 -31.5t-27.5 -51.5t-10 -70.5v-12z" />
<glyph unicode="&#x26;" horiz-adv-x="1137" d="M45 342q0 132 84 230q58 67 127.5 130t151.5 123q-20 54 -33.5 105t-13.5 102q0 76 25 140.5t70 111t106.5 72.5t133.5 26q131 0 193 -60.5t62 -183.5q0 -65 -30 -117t-87 -94t-107 -78.5t-95 -70.5q21 -57 43 -112.5t45 -112.5q41 37 68.5 62t48 41t37.5 23t37 7 q25 0 45.5 -11t35 -26t22.5 -31.5t8 -27.5q0 -41 -55 -87q-42 -35 -82.5 -69.5t-82.5 -68.5q43 -70 85 -70q8 0 16 3q45 17 79.5 24.5t60.5 7.5q40 0 53.5 -17.5t13.5 -50.5q0 -17 -3 -37t-11 -43q-25 -81 -84 -120.5t-150 -39.5q-87 0 -145 48t-88 156q-61 -49 -112 -86.5 t-95 -63t-83 -38.5t-76 -13q-41 0 -72.5 16t-56 42.5t-41.5 60t-27.5 69t-15.5 69.5t-5 60zM276 378q0 -13 6.5 -30.5t18 -33t28 -26.5t36.5 -11q22 0 54 18.5t63 43t56.5 47.5t34.5 32q-22 60 -46.5 118t-48.5 116q-42 -38 -79 -73.5t-64 -69.5t-43 -67t-16 -64zM546 1064 q0 -53 23 -120q35 20 67.5 44.5t57.5 49t40 48.5t15 44q0 10 -7 21.5t-20.5 21t-34.5 15.5t-48 6q-42 0 -67.5 -34t-25.5 -96z" />
<glyph unicode="'" horiz-adv-x="349" d="M28 927q0 10 1 20.5t3 22.5q9 64 14.5 131t12 133.5t16 132t26.5 127.5q16 58 60 88t107 31q20 0 32.5 -6.5t19 -17t9 -25.5t2.5 -31q0 -14 -1.5 -29t-5.5 -32q-18 -86 -37.5 -162.5t-41 -147.5t-46 -136.5t-52.5 -128.5q-24 -52 -58 -52q-25 0 -43 19t-18 63z" />
<glyph unicode="(" horiz-adv-x="822" d="M49 369q0 56 6 118q48 457 654 1110q25 27 46 27q9 0 16.5 -5.5t13.5 -14.5t9.5 -19.5t3.5 -19.5q0 -23 -15 -45q-240 -356 -361 -640t-121 -498q0 -293 218 -526q32 -35 32 -68q0 -16 -8 -34.5t-19 -35t-21.5 -29t-14.5 -16.5q-18 -15 -41 -15q-54 0 -133 76 q-265 256 -265 635z" />
<glyph unicode=")" horiz-adv-x="822" d="M24 -294q0 22 15 45q240 356 360.5 639.5t120.5 497.5q0 293 -217 527q-32 33 -32 69q0 16 8 34.5t19 34.5t21 28.5t15 16.5q18 15 41 15q54 0 133 -76q134 -128 199 -285.5t65 -346.5q0 -60 -6 -121q-46 -457 -653 -1110q-26 -27 -46 -27q-9 0 -16.5 5.5t-13.5 14.5 t-9.5 19.5t-3.5 19.5z" />
<glyph unicode="*" horiz-adv-x="716" d="M24 1278q0 18 6.5 30t27 20.5t59 14t102.5 10.5q-28 50 -48.5 94.5t-34.5 86.5q-3 7 -3 14q0 9 7 19.5t19 19t28.5 14.5t35.5 6q12 0 22.5 -4.5t16.5 -14.5q21 -35 43.5 -69t45.5 -67q15 26 29 50.5t27 44t26 31.5t27 12q17 0 35 -8.5t32.5 -20.5t23.5 -26t9 -24t-4 -18 l-60 -135q91 -2 147 -9q26 -4 40 -29t14 -73q0 -57 -39 -58q-42 -2 -79 -5t-70 -3q9 -20 18 -41t16.5 -40.5t12.5 -37t5 -30.5q0 -17 -9 -30t-22.5 -21.5t-28 -13t-26.5 -4.5q-7 0 -14.5 2t-9.5 2q-1 0 -1 -1t1 -1q-17 34 -36.5 69t-41.5 70q-12 -22 -29 -53t-35.5 -59.5 t-37 -48.5t-33.5 -20q-14 0 -29 11.5t-27.5 27t-20.5 31t-8 23.5q0 21 17 66.5t45 103.5q-32 3 -65.5 5.5t-61.5 10.5t-46 25.5t-18 50.5z" />
<glyph unicode="+" horiz-adv-x="1017" d="M13 607q0 22 16 43q5 7 42.5 13t95 11t129.5 9t146 6q13 58 26.5 114t25.5 104t22 85.5t16 58.5q16 55 74 55q44 0 65 -16.5t21 -45.5v-8t-1 -8q-10 -66 -25 -152.5t-32 -183.5h60q42 0 82 -0.5t73.5 -1.5t60 -2.5t43.5 -3.5q53 -8 53 -102q0 -58 -39 -59 q-75 -4 -170 -7.5t-198 -4.5q-23 -121 -43.5 -215t-38.5 -164q-14 -54 -36.5 -80.5t-51.5 -26.5q-19 0 -37 8.5t-32.5 24.5t-23 37t-8.5 47q0 12 6 48t16 86.5t23.5 111.5t27.5 123q-88 1 -164 5t-136 10q-88 9 -88 81z" />
<glyph unicode="," horiz-adv-x="387" d="M17 -378q0 28 7 54t17 51.5t21 51t20 51.5q8 23 11 48t3 51q0 25 -3 51q-3 21 -3 43q0 52 19 108t48 101.5t62.5 75t62.5 29.5q39 0 61.5 -43t22.5 -123q0 -50 -14 -102t-35 -103.5t-45.5 -103t-45.5 -100.5q-14 -33 -29.5 -71.5t-33.5 -71.5t-40 -55.5t-50 -22.5 q-29 0 -42.5 21.5t-13.5 59.5z" />
<glyph unicode="-" horiz-adv-x="807" d="M43 377q0 41 64 73q69 34 141.5 44.5t161.5 10.5q51 0 103.5 -2t106.5 -6q137 -11 137 -91q0 -22 -5.5 -41t-13 -34t-15.5 -25t-14 -13q-18 -11 -48 -16.5t-64.5 -8t-70.5 -3t-66 -0.5q-76 0 -150.5 5t-147.5 13q-50 5 -84.5 29.5t-34.5 64.5z" />
<glyph unicode="." horiz-adv-x="332" d="M27 144q0 3 0.5 6.5t0.5 7.5q4 46 20.5 81.5t40.5 59.5t53 36t59 12q28 0 48.5 -11t33.5 -28t19 -38t6 -40q-2 -54 -19.5 -95.5t-43 -69t-56 -42t-58.5 -14.5q-18 0 -36.5 11t-33.5 30t-24.5 43t-9.5 51z" />
<glyph unicode="/" horiz-adv-x="816" d="M34 135q0 27 13 59q69 174 135 349.5t134 350t140.5 347t154.5 340.5q19 38 68 38q55 0 89 -32t34 -81q0 -38 -11 -81t-25 -79q-62 -165 -132 -323t-151 -313t-155.5 -309.5t-144.5 -312.5q-11 -26 -22 -36t-23 -10q-23 0 -42.5 8.5t-33 21.5t-21 29.5t-7.5 33.5z" />
<glyph unicode="0" horiz-adv-x="1107" d="M51 568q0 35 2.5 71t7.5 74q36 272 233 460q100 95 195 140t190 45q68 -2 135.5 -39.5t121.5 -108.5t87.5 -174.5t33.5 -238.5q0 -193 -50.5 -348t-152.5 -270q-88 -100 -189 -151t-213 -51q-201 0 -312 211q-45 85 -67 180t-22 200zM275 493q0 -78 17.5 -135.5 t47.5 -94.5t69.5 -55t82.5 -18q114 0 209 107q89 100 127 407q6 51 6 98q0 67 -12.5 125t-39.5 100t-68.5 66t-99.5 24q-56 0 -106.5 -32t-92 -88.5t-72 -134.5t-47.5 -170q-21 -113 -21 -199z" />
<glyph unicode="1" horiz-adv-x="631" d="M43 1165q0 38 35.5 70t90.5 57.5t121 44.5t126 31q30 6 57 6q29 0 54 -5.5t43 -18t28.5 -32.5t10.5 -48v-14q-23 -310 -94 -594q-35 -143 -66.5 -285.5t-58.5 -286.5q-8 -40 -21.5 -65t-30 -39t-36.5 -19t-41 -5q-89 0 -89 106q0 19 3 43q31 237 68.5 466.5t82.5 458.5 q1 5 1.5 10t0.5 10q0 33 -34 33q-22 0 -55 -13q-51 -21 -90 -21q-20 0 -39 7.5t-34 21.5t-24 34.5t-9 46.5z" />
<glyph unicode="2" horiz-adv-x="1033" d="M25 103q0 27 10 57.5t33.5 67t62.5 80.5t98 97q90 81 185 155.5t189 152.5q28 24 55.5 52t49.5 62t35 72.5t13 83.5q0 27 -12 50t-33.5 40t-52.5 27t-69 10q-44 0 -80 -11t-67 -30t-56.5 -43t-47.5 -51q-23 -29 -40 -39t-34 -10q-11 0 -23 3t-22.5 10.5t-17 20.5t-6.5 34 q0 36 20.5 79t55 85t78 78t90.5 59q127 63 254 63q65 0 120.5 -25t95.5 -68.5t62.5 -102.5t22.5 -126q0 -56 -11 -106t-30 -93.5t-45.5 -79t-57.5 -61.5q-52 -44 -106 -88.5t-105 -87t-95.5 -81t-77.5 -71t-52.5 -57.5t-19.5 -39q0 -9 3.5 -14t17 -8t40 -3.5t72.5 -0.5 q107 0 168.5 2.5t69.5 5.5q22 9 44 14.5t42 5.5q34 0 52 -19t18 -48q0 -25 -17 -59.5t-36 -62.5q-27 -42 -78.5 -62t-125.5 -20q-133 0 -264 4.5t-262 4.5q-15 0 -34.5 0.5t-37 8t-29.5 26.5t-12 56z" />
<glyph unicode="3" horiz-adv-x="878" d="M25 26q0 67 64 83q174 42 305 134q131 93 160 299q1 5 1 10.5v10.5q0 34 -19 58t-50.5 40t-71.5 26.5t-82 19.5q-30 6 -50.5 26.5t-20.5 52.5q0 26 15 49t39.5 44.5t55 40.5t61.5 36.5t59.5 34.5t48.5 33q14 11 14 24q0 19 -30 21h-87q-65 0 -128.5 3t-126.5 17 q-25 5 -43.5 35.5t-18.5 84.5q0 21 6.5 38t22.5 29.5t44 19.5t72 7q79 0 158 1.5t159 1.5q72 0 120.5 -3.5t78 -17.5t42 -42t12.5 -77q-5 -121 -66 -173q-13 -11 -36.5 -28.5t-47 -35.5t-41 -33t-17.5 -19q0 -7 11 -11q180 -87 180 -266q0 -41 -9 -87q-25 -122 -86 -215 t-152.5 -160.5t-210 -110.5t-258.5 -65q-5 -1 -9 -1h-8q-29 0 -44.5 16.5t-15.5 48.5z" />
<glyph unicode="4" horiz-adv-x="915" d="M21 437q0 39 27 80q148 221 312.5 428t336.5 411q9 11 20.5 15.5t23.5 4.5q30 0 54.5 -15t41.5 -37.5t26.5 -49t9.5 -48.5q0 -17 -3 -33q-29 -165 -63.5 -326t-69.5 -324q8 0 30 1.5t42 1.5q34 0 50.5 -5t22.5 -13t5.5 -18.5t-0.5 -20.5q0 -53 -18 -82t-46.5 -43 t-63 -18.5t-67.5 -8.5q-30 -138 -57 -276q-11 -54 -33 -71.5t-55 -17.5q-57 0 -85.5 28.5t-28.5 69.5q0 14 3 32q9 54 18.5 106t19.5 106q-42 -3 -82.5 -5t-82.5 -2q-44 0 -86.5 2.5t-85.5 7.5q-51 6 -83.5 37.5t-32.5 82.5zM296 550q0 -17 29 -17q2 0 4.5 0.5t5.5 0.5 q45 0 90 1l90 2q36 199 72 402q-78 -90 -149.5 -181t-134.5 -188q-7 -11 -7 -20z" />
<glyph unicode="5" horiz-adv-x="796" d="M26 50q0 61 65 77q136 35 250 103t146 272q3 19 3 38q0 164 -242 164q-26 0 -56 -3.5t-61 -3.5q-32 0 -48 15t-16 51q0 11 1 22.5t4 25.5q17 94 38.5 188.5t32.5 191.5q6 57 46 104q12 14 42.5 27.5t75.5 24t102.5 17t123.5 6.5q231 0 231 -124q0 -41 -10.5 -66.5 t-28 -39.5t-40.5 -19.5t-48 -5.5h-12.5t-13.5 1q-52 4 -105 5t-104 1q-66 0 -78 -46q-9 -34 -14.5 -69.5t-13.5 -69.5q-2 -5 -2 -8.5v-7.5q0 -24 28 -24q96 0 174.5 -19.5t134 -59t86 -99.5t30.5 -141q-5 -350 -209 -459q-207 -110 -447 -152q-4 -1 -12 -1q-25 0 -39 21 t-14 63z" />
<glyph unicode="6" horiz-adv-x="952" d="M30 399q0 183 60.5 349.5t169.5 308.5q206 269 555 320q6 1 12 1.5t12 0.5q24 0 41 -8t27.5 -19.5t15.5 -24t5 -20.5q0 -67 -54 -83q-431 -143 -573 -469q-10 -21 -10 -32q0 -5 4 -5q3 0 16.5 11.5t33 27t42 33t43.5 29.5q30 17 61.5 25t68.5 8q68 -3 127 -32t102 -77.5 t67.5 -113t24.5 -137.5q0 -17 -1.5 -34t-3.5 -34q-17 -122 -58 -206t-99.5 -136.5t-132 -75.5t-156.5 -23q-158 0 -285 113q-115 102 -115 303zM268 378q0 -50 15.5 -87t40 -62.5t56 -38t64.5 -12.5q31 0 63 11.5t59.5 35t50 59.5t36.5 86q5 17 7.5 34.5t2.5 34.5 q0 38 -11 70.5t-33 57t-53.5 39t-71.5 16.5h-9q-53 0 -93.5 -22t-68 -56.5t-41.5 -78.5t-14 -87z" />
<glyph unicode="7" horiz-adv-x="874" d="M50 62q0 20 5 44.5t14 53.5q36 113 85.5 226.5t105.5 227t115.5 226.5t116.5 226q-52 0 -107.5 -1.5t-111.5 -1.5q-41 0 -80.5 1t-70 9t-49 26t-18.5 53q0 24 9 56q34 118 131 118h12q81 -6 158.5 -11t155.5 -5q42 0 82 1.5t81 6.5q18 0 35 4t34 4q28 0 46 -9.5t28.5 -25 t14.5 -35t4 -38.5q0 -52 -35 -108q-164 -259 -306 -525t-267 -544q-36 -79 -98 -79q-16 0 -32 6t-29 18t-21 31t-8 45z" />
<glyph unicode="8" horiz-adv-x="978" d="M24 367q0 61 20.5 119t59.5 108.5t95 91.5t126 70q-158 107 -158 257q0 72 35 137.5t94.5 116t137.5 80t164 29.5q81 -2 144.5 -30.5t108 -73.5t68 -103t23.5 -119q0 -45 -13.5 -91t-40.5 -88t-68.5 -79.5t-98.5 -65.5q40 -24 74 -53t58 -65t37.5 -80.5t13.5 -98.5 q0 -88 -39.5 -170t-106 -145t-153.5 -101t-182 -38q-90 0 -163.5 32.5t-126 86.5t-81 125t-28.5 148zM224 351q0 -35 12 -65t36.5 -53t62 -36t88.5 -13q56 0 99 20.5t72.5 54.5t44.5 76t15 86q0 76 -48 144q-35 46 -91 84q-147 -58 -219 -128.5t-72 -169.5zM397 1016 q0 -26 8.5 -53.5t26.5 -53.5t45 -49.5t64 -41.5q89 28 135.5 83.5t46.5 138.5q0 119 -140 128h-17q-42 0 -74 -12.5t-53 -33.5t-31.5 -48.5t-10.5 -57.5z" />
<glyph unicode="9" horiz-adv-x="951" d="M23 50q0 70 54 88q429 138 573 468q10 25 10 32q0 5 -4 5q-3 0 -17 -11.5t-33.5 -27.5t-42 -33.5t-43.5 -29.5q-53 -31 -117 -31q-71 0 -132 28t-105.5 76.5t-70 114.5t-25.5 141q0 17 1.5 34t3.5 34q17 122 58.5 206.5t100.5 136.5t132.5 75t155.5 23q156 0 284 -114 q114 -102 114 -303q0 -183 -60.5 -349.5t-169.5 -309.5q-205 -268 -554 -318q-7 -1 -13.5 -1.5t-12.5 -0.5q-23 0 -39 7t-27 17t-16 22t-5 21zM289 920q0 -78 43 -128t125 -52h13q50 0 89.5 20.5t67 53.5t42 75t14.5 85q0 36 -12 71.5t-35 63.5t-56 45.5t-74 17.5 q-51 0 -91.5 -25t-68 -63t-42.5 -82t-15 -82z" />
<glyph unicode=":" horiz-adv-x="342" d="M19 146q0 11 1 23.5t3 25.5q19 147 119 147q33 0 56 -9.5t38 -26t21.5 -38t6.5 -46.5q0 -16 -2.5 -31.5t-7.5 -32.5q-44 -149 -133 -149q-29 0 -48.5 10.5t-31.5 29t-17 43.5t-5 54zM97 543q0 20 3 44q3 33 14 61.5t27.5 50.5t38 34.5t47.5 12.5q92 0 92 -157 q0 -88 -29 -129.5t-91 -41.5q-51 0 -76.5 32.5t-25.5 92.5z" />
<glyph unicode=";" horiz-adv-x="459" d="M23 -416q0 25 13 63q19 60 39 119t36.5 119t29.5 121t19 124q14 151 128 151h7q66 -2 90.5 -30t24.5 -81q0 -34 -10 -71q-20 -74 -43.5 -144.5t-54 -136t-68.5 -126t-86 -112.5q-22 -24 -45 -34t-39 -10q-22 0 -31.5 13t-9.5 35zM192 513q0 22 4 41q10 49 26.5 83.5 t35.5 56t39 31t38 9.5q39 0 58.5 -17t28.5 -42.5t11.5 -55t5.5 -54.5q1 -6 1 -11.5v-10.5q0 -29 -8.5 -58t-25 -52t-40 -37.5t-53.5 -14.5q-51 0 -86 36t-35 96z" />
<glyph unicode="&#x3c;" horiz-adv-x="655" d="M32 430q0 19 23 36q81 60 168 111.5t175 108.5q61 38 124 38q58 0 84 -16t26 -33q-2 -20 -21.5 -42t-48.5 -42.5t-63 -37.5t-64 -27q-19 -7 -44.5 -18.5t-48 -26t-38 -30t-15.5 -30.5q0 -13 12 -26q15 -20 41.5 -42t57.5 -45t62.5 -45.5t57.5 -43.5t42.5 -39.5 t16.5 -31.5q0 -9 -6.5 -18.5t-18 -17t-26 -12t-29.5 -4.5t-31 4t-34 12q-63 27 -110.5 59t-88.5 67t-81.5 72.5t-91.5 75.5q-30 22 -30 44z" />
<glyph unicode="=" horiz-adv-x="854" d="M41 354q0 34 64 58q63 24 131.5 33.5t149.5 9.5q57 0 121 -0.5t118 -7t90 -23t36 -48.5q0 -17 -5 -32.5t-12.5 -27.5t-15.5 -20t-14 -10q-21 -9 -51 -13.5t-64.5 -6.5t-69.5 -2h-65q-75 0 -148.5 4t-146.5 11q-50 5 -84 24t-34 51zM97 638q0 34 64 58q63 24 131.5 33.5 t149.5 9.5q57 0 121 -0.5t118 -7t90 -23t36 -48.5q0 -17 -5 -32.5t-12.5 -27.5t-15.5 -20t-14 -10q-21 -9 -51 -13.5t-64.5 -6.5t-69.5 -2h-65q-75 0 -148.5 4t-146.5 11q-50 5 -84 24t-34 51z" />
<glyph unicode="&#x3e;" horiz-adv-x="656" d="M24 139q2 21 21.5 42.5t48.5 41.5t63 36.5t64 27.5q19 6 44.5 18t48 27t38 31t15.5 30q0 12 -12 26q-15 19 -41 41t-57 45t-63 46t-58 44t-42.5 39t-16.5 31q0 9 6.5 18.5t18 17t26 12.5t29.5 5t31 -4t34 -12q63 -27 110 -59t88.5 -67t82.5 -72.5t91 -75.5q30 -24 30 -44 q0 -19 -23 -36q-81 -60 -168 -111.5t-175 -108.5q-60 -39 -124 -39q-59 0 -84.5 16.5t-25.5 33.5z" />
<glyph unicode="?" horiz-adv-x="886" d="M28 1229q0 24 14 58q27 67 72 125.5t103 102t126 68t142 24.5q24 0 48.5 -2.5t49.5 -7.5q75 -15 129.5 -45t90 -72t53 -94.5t17.5 -113.5q0 -63 -13 -114t-36 -92t-54.5 -73t-68.5 -57q-89 -60 -146.5 -143t-86.5 -187q-36 -125 -106 -125q-45 0 -74 31.5t-29 80.5 q0 52 38 136q15 33 36.5 62t48.5 56t57.5 52t62.5 51q32 25 61 56t50.5 65t34.5 69t13 69q0 104 -188 140q-32 6 -63 6q-85 0 -161 -38.5t-144 -101.5q-28 -25 -46 -25q-14 0 -22.5 10.5t-8.5 28.5zM144 178v10q0 32 12.5 59t33.5 47t48 31.5t56 11.5q32 -2 52 -10.5 t31 -22.5t14.5 -32.5t3.5 -40.5q0 -39 -11 -74t-30 -63.5t-43.5 -50t-51.5 -34.5q-8 -3 -15 -3q-16 0 -32 12t-29.5 33.5t-23.5 51.5t-14 65q-1 5 -1 10z" />
<glyph unicode="@" horiz-adv-x="970" d="M-235 93q0 88 19 173.5t54 165t85.5 150.5t112.5 129q184 172 444 172q256 0 387 -216q87 -143 87 -297q0 -81 -15 -144.5t-52 -108.5t-98 -71.5t-153 -33.5q-54 0 -92.5 29t-64.5 92q-25 -25 -51.5 -48.5t-55 -41.5t-58.5 -29t-63 -11q-36 0 -66 17.5t-52 45t-34.5 63 t-12.5 71.5q0 42 17 85.5t48 85t74.5 78t95.5 65.5q60 33 108 33q37 0 59 -11.5t38 -26t30.5 -26t36.5 -11.5q5 0 11 0.5t11 0.5q29 0 43.5 -17t14.5 -43q0 -23 -11 -50q-36 -84 -36 -126q0 -23 10.5 -34.5t26.5 -11.5q27 0 73 35q11 8 22 10q14 35 22 72.5t8 72.5 q0 64 -24.5 120.5t-66.5 98.5t-96.5 66t-114.5 24q-171 0 -331 -99q-110 -68 -161 -180t-51 -264q0 -82 24.5 -140t66.5 -95.5t99.5 -55t123.5 -17.5q122 0 221 47q56 37 104 37q23 0 43.5 -10t35.5 -25t23.5 -31t8.5 -28q0 -24 -25 -42q-100 -73 -204.5 -110.5 t-214.5 -37.5q-83 0 -168.5 28t-156 85t-115 142t-44.5 199zM273 238q0 -26 15.5 -40t44.5 -14q24 0 48.5 9t44.5 26.5t32.5 42t12.5 55.5q0 61 -45 67q-5 1 -9 1h-9q-20 0 -44 -11.5t-44 -31.5t-33.5 -46.5t-13.5 -57.5z" />
<glyph unicode="A" horiz-adv-x="1263" d="M10 170q0 96 49 136q29 25 51 55t41 63t38 66.5t42 65.5q7 9 30.5 51t58.5 105t77.5 141t86 159.5t85.5 159.5t75.5 140.5t56 104t26.5 49.5q12 23 27 44.5t33 38.5t39.5 27t46.5 10q37 0 59.5 -10.5t34.5 -27t17 -37t7 -39.5q33 -286 76 -570.5t86 -569.5q5 -32 31 -51 q55 -41 55 -109q-2 -21 -6.5 -41.5t-14 -37.5t-24 -29t-35.5 -16q-90 -18 -182 -18q-69 0 -137 7.5t-134 18.5q-19 3 -37 30t-18 77q0 31 22 53.5t55 39.5t71.5 31t71.5 28q24 10 24 29q-4 45 -8 89t-7 89q-98 -6 -198 -6q-60 0 -119.5 1.5t-120.5 6.5q-13 -24 -27 -51 t-26 -52t-19.5 -46t-7.5 -34q0 -43 66 -43q106 -1 106 -91q0 -66 -35 -105.5t-98 -51.5q-45 -8 -88.5 -14t-87.5 -6q-28 0 -63 3t-66 11.5t-54 24.5t-27 42q-2 16 -3.5 30.5t-1.5 28.5zM544 722h316q-10 91 -22 179t-31 179q-2 11 -11.5 20t-20.5 9q-14 0 -27 -23 q-55 -93 -105.5 -183.5t-98.5 -180.5z" />
<glyph unicode="B" horiz-adv-x="1277" d="M44 202q0 23 9 42.5t24 33t35 21t42 7.5q4 0 7.5 -0.5t7.5 -0.5l5 -1q69 235 119.5 473t80.5 485q-47 4 -93 12q-101 15 -101 97q0 44 13 73t35 47t52 26.5t64.5 12t72 3t74.5 -0.5q119 0 226 -8t193 -22t147 -31.5t89 -34.5q81 -51 120.5 -124.5t39.5 -163.5 q0 -53 -15 -108q-18 -66 -44.5 -116t-59 -86t-70.5 -59.5t-80 -36.5q36 -20 68 -47.5t56 -64t38.5 -82.5t14.5 -102q0 -63 -18 -123t-51.5 -111.5t-80.5 -92.5t-105 -67q-25 -11 -65.5 -22t-94.5 -20t-120 -14t-141 -5q-85 0 -177.5 8t-195.5 24q-34 5 -57 23.5t-37.5 43.5 t-20.5 54.5t-6 57.5zM404 281q66 -7 130.5 -11t130.5 -4q84 0 142 6.5t95.5 26.5t57.5 56.5t30 95.5q1 8 1.5 16t0.5 16q0 36 -13.5 65.5t-37.5 50.5t-57 33.5t-72 15.5q-80 5 -150 5q-7 -1 -14 -1h-12q-70 0 -142 6zM551 901q82 -3 165 -10t164 -7q46 0 86 12t69.5 37 t46 63.5t16.5 92.5q0 152 -213 157q-63 0 -125.5 0.5t-125.5 1.5z" />
<glyph unicode="C" horiz-adv-x="1135" d="M50 606q0 109 15.5 213.5t44 199.5t70 178.5t94.5 149.5q81 103 187.5 155t239.5 52q53 0 96 -12t76.5 -32t59 -46t43.5 -54q11 -20 21 -20q9 0 15 20q28 103 99 103q23 0 36 -9.5t19.5 -25t8.5 -35t4 -39.5q3 -45 3 -91q0 -38 -3.5 -89.5t-10.5 -106.5t-17.5 -108.5 t-23.5 -96t-29.5 -69t-35.5 -26.5q-23 0 -37 10.5t-22.5 26t-12.5 33.5t-5 33q-14 86 -44.5 149.5t-75 105t-100.5 62t-121 20.5q-81 0 -150.5 -47.5t-121 -129.5t-80.5 -190.5t-29 -231.5q0 -84 16.5 -155t50 -122t86 -79.5t124.5 -28.5q52 0 103 21.5t101 58.5t98 87.5 t95 109.5q26 32 54 32q14 0 26.5 -6.5t22 -17.5t15 -25t5.5 -29q0 -21 -9 -46q-40 -112 -96.5 -201t-125 -151t-147 -95t-160.5 -33q-102 0 -188.5 43.5t-149.5 124.5t-98.5 197.5t-35.5 262.5z" />
<glyph unicode="D" horiz-adv-x="1342" d="M15 199q0 51 24.5 80t87.5 29q19 0 33.5 -1t24.5 -1q69 235 119.5 472.5t80.5 482.5q-38 0 -71 1t-62 3q-85 2 -85 121q0 97 101 114q97 16 196 23t202 7q137 0 237.5 -12t164.5 -37q243 -96 265 -295q5 -45 7.5 -88.5t2.5 -88.5q0 -144 -19.5 -269.5t-52.5 -227 t-78 -176.5t-96 -120q-131 -114 -287 -164.5t-334 -50.5q-83 0 -166 6t-164 10q-63 3 -97 48t-34 134zM417 289q121 -9 203 -9q146 0 279 91q134 91 223 412q34 123 34 218q0 250 -252 264q-30 2 -59 2h-58q-35 0 -69 -0.5t-69 -0.5z" />
<glyph unicode="E" horiz-adv-x="1244" d="M15 143q0 29 12 54.5t32 45t46.5 31t56.5 11.5q72 244 126.5 492t85.5 505q-35 3 -71 14t-65.5 28.5t-48 40t-18.5 47.5q0 57 37.5 87.5t104.5 35.5h11q196 4 391 9t392 10h9q68 0 108 -8.5t61 -30t27 -58t6 -92.5q0 -39 -3.5 -83.5t-10 -89t-15.5 -85.5t-20 -72.5 t-24 -50.5t-27 -19q-21 0 -40.5 8.5t-34 22.5t-23 31.5t-8.5 36.5q0 24 6 52t6 50q0 52 -24.5 82t-92.5 32q-94 2 -185 4t-184 2l-84 -352q25 -3 50 -3q56 0 96 16t63 66q6 13 11.5 25t14.5 22t21.5 16t32.5 6q55 0 83 -19t28 -51q0 -10 -2 -20t-6 -22q-30 -88 -53 -177 t-39 -168q-5 -26 -15.5 -51.5t-25 -45t-33 -31.5t-40.5 -12q-35 0 -51.5 24t-16.5 62q0 14 2.5 28.5t2.5 28.5q0 74 -89 74q-23 0 -45 -2.5t-45 -3.5l-103 -436q69 -5 134 -7.5t137 -2.5q37 0 73 1t67.5 5.5t58.5 17t47 36.5q23 27 44 62t38 77q21 52 49.5 84.5t59.5 32.5 q23 0 36 -25t13 -60v-11t-1 -12q-6 -53 -12 -95.5t-12.5 -82.5t-15.5 -81t-22 -92q-9 -34 -24.5 -56t-41.5 -35t-64 -18t-92 -5h-9q-102 1 -178.5 3t-135.5 5t-102 6t-76.5 5.5t-60.5 4t-53 1.5q-21 0 -48.5 -3t-55.5 -3t-52.5 6t-42.5 21t-28 40.5t-10 63.5z" />
<glyph unicode="F" horiz-adv-x="968" d="M43 141q0 62 17.5 99t58.5 52q69 238 122 479t83 492q-37 2 -75.5 13t-70 28.5t-52 40.5t-20.5 50q0 57 37.5 87.5t104.5 35.5h10q197 4 392 9t392 10h8q68 0 108 -8.5t61 -30t27 -58.5t6 -94q0 -92 -15 -173.5t-35 -163.5q-23 -87 -71 -87q-19 0 -35.5 8t-28.5 21.5 t-18.5 32.5t-6.5 40q0 13 2.5 29t5.5 33t5.5 33t2.5 30q0 26 -5.5 47t-18.5 35.5t-36 22.5t-57 9q-90 2 -177.5 4t-175.5 2l-83 -348q24 -4 46 -5.5t42 -1.5q58 0 96.5 16t61.5 66q6 13 11.5 25.5t14.5 22t22 15.5t33 6q51 0 77.5 -21t26.5 -69v-10.5t-1 -11.5 q-6 -46 -11 -92.5t-12.5 -91.5t-18.5 -87.5t-29 -79.5q-11 -24 -22.5 -49t-25 -45t-30 -33t-37.5 -13q-17 0 -33 8t-28 22t-19.5 33.5t-7.5 42.5q0 11 2 22t2 21q0 74 -89 74q-32 0 -64.5 -4t-64.5 -4l-93 -392q258 -35 279 -109q5 -19 7 -37t2 -36q0 -29 -8.5 -47 t-36.5 -24q-62 -14 -123 -19t-123 -5q-57 0 -112 2.5t-109 6.5q-87 6 -87 124z" />
<glyph unicode="G" horiz-adv-x="1315" d="M69 604q0 108 18.5 217t51.5 210t79.5 190.5t102.5 159.5q83 103 190.5 156t239.5 53q53 0 104 -17.5t94.5 -43.5t77 -57t51.5 -59q11 -20 22 -20q9 0 15 20q28 103 98 103q30 0 45 -17t20.5 -42.5t5.5 -55v-54.5q0 -58 -6.5 -110.5t-18.5 -104t-28 -104t-34 -109.5 q-14 -42 -41 -42q-55 3 -84 20.5t-35 58.5q-13 87 -42.5 149t-72 102t-98 59t-120.5 19q-86 0 -162.5 -50t-133.5 -136t-90 -200.5t-33 -242.5q0 -157 63 -260t190 -135q16 -4 31 -6t31 -2q77 0 150.5 47.5t135.5 122.5l1 9q-69 13 -110 30t-63 38t-28.5 45.5t-6.5 53.5 q0 30 13 45t36.5 22t54.5 7.5t67 0.5q84 0 170.5 -5t164.5 -5q45 0 68.5 -35.5t23.5 -106.5q0 -25 -11 -46.5t-30.5 -37t-46 -24.5t-58.5 -9h-11q-14 -88 -30.5 -168.5t-31.5 -159.5q-17 -80 -104 -88q-2 0 -2 -2.5t-1 -2.5q-13 2 -27.5 4.5t-27 8t-20.5 16t-8 28.5 q0 35 5.5 70.5t7.5 67.5q-82 -97 -168 -141t-182 -44q-97 3 -181.5 46.5t-146.5 122.5t-98 190.5t-36 250.5z" />
<glyph unicode="H" horiz-adv-x="1448" d="M34 118q0 21 5.5 45t13 45t15.5 37t14 23q21 23 71 25l-8 2q72 248 127 496.5t87 508.5q-51 12 -77 29.5t-37.5 38t-12.5 43t-1 45.5q0 59 41 66q37 7 72 10t68 3q46 0 107.5 -5t139.5 -13q43 -4 89 -29q9 -5 19.5 -18t19.5 -33t14.5 -46t5.5 -58q0 -26 -11 -40t-30 -21 t-44.5 -8.5t-54.5 -1.5q-28 0 -53 3l-85 -357q70 2 135.5 3t127.5 1q98 0 185.5 -3t165.5 -7q14 91 27 182.5t24 184.5q-60 8 -99.5 19.5t-63 26.5t-32.5 34.5t-9 43.5t5.5 46t15 40t22 30.5t25.5 16.5q80 23 172 23q69 0 128 -3t112 -5q86 -5 86 -130q0 -30 -4.5 -53.5 t-16 -41.5t-31.5 -31t-52 -22l-225 -947l2 1q5 0 10.5 0.5t10.5 0.5q77 0 109 -41.5t32 -123.5q0 -122 -77 -127q-74 -5 -136.5 -9t-117.5 -4q-38 0 -80.5 3t-90.5 8q-17 2 -32.5 13.5t-27 29t-18 40t-6.5 46.5t9.5 44.5t32.5 37t62 30t98 25.5q25 85 48 176.5t43 190.5 q-154 3 -309 7t-314 13l-81 -341q1 -24 7.5 -39.5t15.5 -27t20 -21.5t20 -22q32 -18 48.5 -38.5t24 -41t8.5 -38.5t1 -32q0 -18 -6.5 -29t-26.5 -16q-61 -16 -153 -16q-74 0 -133 5.5t-104 11.5q-15 2 -30 8t-26.5 16.5t-18.5 26t-7 35.5z" />
<glyph unicode="I" horiz-adv-x="683" d="M27 152q0 20 4 35.5t18.5 28t41 22.5t71.5 19q69 236 114 486.5t82 513.5q-61 8 -100.5 19.5t-62.5 26.5t-32 34.5t-9 43.5t5.5 46t15 40t22 30.5t25.5 16.5q80 23 172 23q67 0 126.5 -3t112.5 -5q49 -2 74.5 -43t25.5 -103q0 -28 -5 -50t-18.5 -39t-36 -28.5 t-56.5 -17.5l-212 -964q26 1 55 4.5t58 3.5q121 0 121 -95q0 -16 -3 -32q-25 -152 -120 -157q-40 -2 -76 -3.5t-68 -1.5q-54 0 -118.5 5t-151.5 15q-34 4 -54.5 41t-20.5 88z" />
<glyph unicode="J" horiz-adv-x="801" d="M21 351q0 24 4.5 55.5t17 60t35 48t58.5 19.5q25 0 41 -12.5t25.5 -32.5t14.5 -44t8 -47q3 -22 7.5 -39.5t13 -30t22.5 -19t37 -6.5q86 0 125 136q28 101 49 198t39 196.5t34.5 205t37.5 222.5q-71 5 -122 9.5t-83 14.5t-47 27t-15 48q0 22 8 44.5t20.5 42t27 34 t28.5 19.5q62 25 138.5 38.5t155.5 13.5q53 0 95 -6.5t71 -24.5t44.5 -49t15.5 -80q0 -9 -0.5 -18t-1.5 -19q-8 -68 -93 -92q-23 -131 -46.5 -252.5t-49.5 -238.5t-55.5 -230.5t-63.5 -228.5q-26 -86 -62 -145.5t-79.5 -96.5t-94 -53.5t-104.5 -16.5q-75 2 -124.5 30 t-78.5 75t-41 110t-12 135z" />
<glyph unicode="K" horiz-adv-x="1427" d="M19 164q0 25 15 43t37.5 30t49.5 18t51 5h2q69 238 114 491.5t78 521.5q-35 3 -66 8t-53.5 14.5t-35.5 25t-13 38.5q0 28 9 54t21.5 47t25.5 35.5t21 18.5q41 21 80 21h70h47t45 -1.5t50.5 -4.5t63.5 -8q49 -7 74.5 -29.5t25.5 -77.5q0 -8 -0.5 -17t-1.5 -19 q-13 -114 -117 -119l-86 -396q63 39 128.5 86.5t129.5 100t122.5 109.5t106.5 115q-18 4 -33 12t-26.5 23t-17.5 38t-6 57q0 78 63 101q88 30 151 30q35 0 76.5 -2t90.5 -6q30 -2 49.5 -9.5t31 -20.5t15.5 -31.5t4 -42.5q0 -34 -5 -65t-19.5 -55t-41 -38.5t-69.5 -15.5 q-32 -40 -76.5 -85.5t-97 -93.5t-112 -97t-121.5 -96q24 -71 52 -140t56 -131.5t53 -114.5t43 -88q76 -156 133 -184q58 -5 92 -13.5t51 -22t21.5 -32.5t4.5 -44q0 -40 -8 -67t-34 -33q-29 -7 -70.5 -12.5t-88 -9.5t-93.5 -6t-86 -2q-45 0 -78.5 3t-59.5 15 q-18 8 -30.5 43.5t-12.5 89.5q0 40 16 61.5t67 29.5q-52 135 -110 261t-123 246q-49 -36 -99 -72t-99 -72l-70 -325q54 -2 90.5 -8t58.5 -15.5t31.5 -23.5t9.5 -33q0 -23 -7 -50t-19 -51.5t-26.5 -42.5t-29.5 -21q-76 -17 -185 -17h-12q-45 0 -85.5 1.5t-74.5 4.5t-58.5 9 t-36.5 16q-3 3 -9 14t-11 29t-9 42t-4 53z" />
<glyph unicode="L" horiz-adv-x="1191" d="M27 155q0 29 12 55t32.5 45.5t47 30.5t55.5 11q4 0 7.5 -0.5t7.5 -0.5q33 115 60 237t50 245t42 243t35 231q-45 4 -88.5 5t-77.5 12.5t-54.5 41t-20.5 89.5q0 36 12 58.5t36.5 35.5t62.5 19t90 11q65 5 133 8t136 3q104 0 170.5 -1t105 -11t53 -31.5t14.5 -63.5t-12 -96 q-5 -23 -35.5 -38t-75.5 -24.5t-98.5 -14.5t-104.5 -7l-216 -976q70 -5 135 -7.5t137 -2.5q37 0 73 1t67.5 5.5t58.5 17t47 36.5q23 27 44 62t38 77q21 52 49.5 84.5t59.5 32.5q23 0 36 -25t13 -60v-11t-1 -12q-6 -53 -12 -95.5t-12.5 -82.5t-15.5 -81t-22 -92 q-9 -34 -24.5 -56t-41.5 -35t-64 -18t-92 -5h-9q-102 1 -178.5 3t-135 5t-102 6t-76.5 5.5t-60.5 4t-53.5 1.5q-21 0 -48.5 -3t-55.5 -3t-52.5 6t-42.5 21t-28 40.5t-10 63.5z" />
<glyph unicode="M" horiz-adv-x="1818" d="M28 177q0 42 30.5 67t102.5 29q72 247 118 508t75 521q-88 9 -136 23t-48 50q0 14 5.5 36t11.5 47q5 22 35 37.5t73 24.5t91 13t89 4q34 0 71.5 -2t71.5 -8.5t61 -20t40 -37.5q27 -48 33 -98l50 -448t63 -446q6 -41 28 -41q21 0 33 24q106 227 207.5 457t210.5 457 q3 7 5 7t2 -7q35 79 107 116t185 37q42 0 76.5 -4.5t60 -14t39.5 -24t14 -33.5q0 -10 -3 -20q-33 -111 -118 -178l-149 -987q26 1 52 4.5t52 3.5q59 0 88 -39t29 -97q0 -28 -16 -49.5t-37 -37t-41.5 -24.5t-29.5 -10q-66 -11 -130.5 -15.5t-129.5 -4.5q-53 0 -91.5 1 t-63 8.5t-36.5 25t-12 51.5q0 37 6 66.5t21.5 50t42.5 32.5t69 15q46 202 74.5 415.5t43.5 430.5q-8 -13 -14 -22.5t-8 -14.5q-127 -247 -248 -497.5t-238 -501.5q-27 -58 -74 -58q-32 0 -60.5 16t-51.5 43.5t-39 64t-22 77.5q-36 230 -66 460t-69 460q-48 -220 -86 -436 t-62 -433q57 -10 94 -22t58.5 -28t30 -37t8.5 -49q0 -52 -22 -75.5t-64 -23.5q-25 0 -49.5 0.5t-48.5 0.5q-68 0 -134.5 -4.5t-133.5 -4.5q-15 0 -30 3.5t-29 15.5t-28 34t-28 60q-12 31 -12 56z" />
<glyph unicode="N" horiz-adv-x="1468" d="M32 113q0 85 21.5 132.5t83.5 57.5q63 237 113.5 477.5t72.5 491.5q-23 0 -46 -2.5t-46 -2.5q-27 0 -53 3.5t-45.5 12.5t-31.5 25.5t-12 42.5q0 18 6 42q11 48 46.5 76.5t83.5 42.5t102 18t102 4q40 0 79.5 -2.5t72.5 -10t57.5 -20.5t35.5 -34q12 -23 22 -46t18 -46 q82 -232 169 -458.5t186 -452.5q12 -28 38 -28q24 0 30 28q42 195 71.5 391t65.5 394q-16 -2 -24 -2.5t-17 -0.5q-29 0 -56.5 11t-48.5 31.5t-33.5 50.5t-12.5 68q0 21 17 38.5t46 32t66 25.5t77.5 18t80.5 11t74 4q40 0 68 -3t46 -13.5t26 -30t8 -53.5q0 -75 -23.5 -120 t-59.5 -56q-54 -278 -109.5 -549.5t-115.5 -546.5q-19 -88 -67 -134.5t-120 -46.5q-35 0 -63 16.5t-44 51.5q-61 132 -115 267t-106 270.5t-105 270.5t-112 268q-60 -211 -109 -419t-101 -417q45 -8 98.5 -22t99.5 -33.5t77 -45t31 -56.5q0 -34 -11.5 -55t-28 -33t-35 -16.5 t-33.5 -5.5q-108 -9 -211.5 -11.5t-210.5 -2.5q-12 0 -26.5 2.5t-31.5 7.5q-14 4 -20.5 27.5t-6.5 65.5z" />
<glyph unicode="O" horiz-adv-x="1240" d="M69 567q0 105 21 230q55 329 240 556q179 220 429 220q247 0 372 -275q83 -183 83 -379q0 -93 -18 -187q-72 -378 -257 -557q-97 -94 -198 -141.5t-207 -47.5q-199 0 -352 194q-113 141 -113 387zM306 658q0 -92 19.5 -159t53.5 -110.5t81 -64t101 -20.5q312 0 423 503 q7 31 10 60.5t3 58.5q0 76 -20.5 141t-55 111.5t-79 73t-93.5 26.5q-141 0 -269 -112q-134 -118 -163 -351q-5 -43 -8 -82t-3 -75z" />
<glyph unicode="P" horiz-adv-x="1186" d="M31 183q0 25 15 43t37.5 30t49.5 18t51 6h2q34 117 62 239t51 246.5t41 250t33 249.5q-45 1 -90 4.5t-93 8.5q-83 9 -83 88q0 81 46 124t132 47q54 2 105.5 3t100.5 1q113 0 215 -6t184 -17t140 -25.5t85 -30.5q46 -29 79.5 -71t55.5 -93t33 -107t11 -111 q0 -117 -43.5 -209t-111 -158t-148 -106t-154.5 -53q-36 -7 -80 -11q-35 -3 -77 -3h-21q-53 0 -100.5 2t-92.5 5l-59 -274q60 -3 105.5 -8.5t77 -15t47.5 -25.5t16 -41q0 -24 -7.5 -51t-19.5 -51t-26.5 -41t-28.5 -20q-61 -14 -156 -14q-71 0 -130.5 2.5t-105 8t-75.5 12.5 t-40 16q-20 17 -32 127q-1 4 -1 11zM518 797q20 0 39.5 -0.5t39.5 -0.5q94 0 173.5 7t139.5 30.5t98.5 68t51.5 120.5q3 19 3 40q0 42 -13.5 81.5t-40 70.5t-65 50.5t-89.5 21.5q-60 0 -116.5 -1.5t-116.5 -3.5z" />
<glyph unicode="Q" horiz-adv-x="1244" d="M66 567q0 105 21 230q55 329 240 556q179 220 429 220q247 0 372 -275q83 -183 83 -379q0 -93 -18 -187q-36 -187 -100 -322t-148 -226q13 -20 29 -41.5t37 -41.5t47 -38t58 -31q42 -17 55.5 -31.5t13.5 -31.5q0 -16 -11 -32q-68 -86 -152 -86q-88 0 -156.5 48.5 t-122.5 134.5q-51 -23 -104 -35.5t-108 -12.5q-199 0 -352 194q-113 141 -113 387zM303 658q0 -92 19.5 -159t53.5 -110.5t81 -64t101 -20.5q13 0 26.5 0.5t27.5 2.5q-7 13 -12 22.5t-9 15.5q-6 10 -13 22t-13.5 23.5t-10.5 22t-4 16.5q0 12 12.5 21t30 15t35.5 8.5t29 2.5 q21 0 38 -5.5t32 -15.5t30 -24.5t32 -33.5q129 125 192 410q7 31 10 60.5t3 58.5q0 76 -20.5 141t-55 111.5t-79 73t-93.5 26.5q-141 0 -269 -112q-89 -78 -131.5 -207.5t-42.5 -300.5z" />
<glyph unicode="R" horiz-adv-x="1325" d="M36 177q0 22 13.5 40t34.5 30.5t46.5 19t50.5 7.5q69 241 114.5 496t74.5 509q-49 5 -89 10.5t-68 16.5t-43.5 31t-15.5 54q0 66 28.5 100t73.5 47.5t100.5 14t108.5 -0.5q119 0 226 -8t193 -22t147 -31.5t89 -34.5q49 -31 81 -66.5t50.5 -76t26 -86t7.5 -97.5 q0 -114 -34 -194.5t-96 -126.5q-112 -82 -239 -101q22 -28 32 -51q17 -39 32 -83t29 -87.5t29.5 -83.5t33.5 -70.5t39.5 -49t49.5 -18.5q9 0 19 1.5t19 1.5q42 0 68 -21.5t26 -65.5q0 -30 -7.5 -58t-18.5 -50.5t-24 -37.5t-24 -21q-20 -11 -46 -14.5t-58 -3.5q-33 0 -65.5 5 t-61 18t-51 36.5t-35.5 61.5q-35 97 -66.5 186t-65 159.5t-70.5 118t-82 62.5q-31 10 -63 17t-67 9l-85 -399q57 -2 95.5 -8t61.5 -15.5t33 -23.5t10 -33q0 -23 -7 -50t-19 -51.5t-26.5 -42.5t-29.5 -21q-76 -17 -185 -17h-12q-45 0 -85.5 1.5t-74.5 4.5t-58.5 9t-36.5 16 q-20 17 -32 127q-1 4 -1 11zM534 933q37 -2 73 -5t73 -6t75.5 -5.5t82.5 -2.5q47 0 88.5 14t72.5 41.5t49 67.5t18 92q0 153 -214 157q-61 0 -121.5 0.5t-120.5 1.5z" />
<glyph unicode="S" horiz-adv-x="1171" d="M24 123v8.5t1 8.5q13 106 31.5 211t37.5 211q12 77 66 77q32 0 51 -13.5t30 -34.5t16 -47t8 -51q32 -226 328 -248h8q222 7 287 174q11 30 11 54q0 35 -22.5 65t-61.5 55t-92.5 45.5t-115.5 36.5q-74 19 -145 53t-126.5 83.5t-90 116t-34.5 149.5q0 60 12 115t37.5 103.5 t66 90.5t96.5 75q75 44 152.5 66t158.5 22q56 0 95.5 -7.5t68.5 -19.5t49.5 -26.5t37.5 -28.5q9 -7 21 -7q19 0 25 14q21 62 79 62q34 0 55 -10.5t33 -26t16 -34.5t4 -35q0 -5 -0.5 -11t-1.5 -11q-18 -106 -34 -210t-46 -206q-13 -43 -44 -43q-17 0 -31.5 8t-26.5 20 t-22.5 26.5t-19.5 27.5l-2 2q0 1 2 1q1 0 5 -2t6 -2q3 0 3 3q-3 56 -20 103t-51.5 81.5t-89.5 53.5t-133 19q-64 0 -114 -13t-84.5 -36t-52.5 -56t-18 -72q0 -48 20 -84t55.5 -62.5t84.5 -44.5t106 -29q113 -22 193.5 -58t131.5 -84t75 -107t24 -126q0 -56 -16 -113 q-30 -108 -81 -190.5t-118.5 -137.5t-151 -83t-178.5 -28q-61 0 -112 16t-92.5 43t-72.5 64t-52 79q-14 27 -28 27q-10 0 -15 -13.5t-9 -34.5t-8 -44.5t-12 -44.5t-20.5 -34.5t-33.5 -13.5q-27 0 -47 10t-34 25.5t-21 36t-7 41.5z" />
<glyph unicode="T" horiz-adv-x="1009" d="M35 1192q0 45 4.5 100.5t20.5 106.5t47 89t83 46q91 3 190.5 6.5t202 7t206.5 5.5t203 2q45 0 88 -0.5t86 -1.5q23 -2 40 -16t28.5 -33.5t17 -41t5.5 -38.5q0 -125 -24 -247t-55 -241q-15 -54 -59 -54q-23 0 -39.5 16t-27 40.5t-15 54.5t-4.5 58q0 19 2.5 43t6 49t6 47.5 t2.5 39.5q0 54 -22 67q-57 -3 -119 -5t-128 -3l-218 -987q57 4 114 9t115 5q34 0 55 -7t32.5 -20t15.5 -31.5t4 -42.5q0 -30 -5.5 -59.5t-13.5 -53.5t-16 -40.5t-14 -21.5q-8 -8 -35 -14t-67.5 -11t-91 -7.5t-105.5 -2.5q-61 0 -123 3.5t-120 9t-110 12.5t-93 15 q-12 2 -24 10.5t-22 23.5t-16.5 36.5t-6.5 48.5q0 20 7 40t19.5 35.5t30 25.5t39.5 10q52 0 103.5 2.5t105.5 6.5q30 112 58 238.5t52.5 257t44.5 259t33 245.5q-76 -3 -150.5 -4.5t-144.5 -4.5q-36 -20 -41 -142q-2 -36 -7.5 -76.5t-14.5 -75t-22.5 -57t-29.5 -22.5t-28 7 t-21 17.5t-14 22.5t-6 23q-6 55 -10.5 110t-4.5 110z" />
<glyph unicode="U" horiz-adv-x="1175" d="M34 1411q0 22 5 43.5t18 40t35.5 32t57.5 19.5q64 11 128 15.5t128 4.5q31 0 65.5 -0.5t65.5 -5t55 -15.5t35 -32q11 -22 16 -45.5t5 -52.5q0 -127 -102 -137q-109 -10 -139 -118q-36 -125 -59.5 -250.5t-46.5 -252.5q-12 -65 -12 -117q0 -251 261 -251q247 0 309 300 q31 155 59.5 310t60.5 312q1 5 1 15q0 35 -40 35q-8 -1 -15 -1h-14q-51 0 -84.5 9t-53.5 27.5t-28 47t-8 67.5q0 20 3.5 38.5t13.5 34t28.5 27.5t47.5 18q107 23 224 23q31 0 68.5 -1t72 -6t61.5 -16t38 -31q13 -26 18 -52t5 -58q0 -135 -66 -150q-54 -12 -59 -32 q-39 -176 -75 -350.5t-71 -350.5q-27 -133 -77 -229.5t-120.5 -159.5t-161 -93t-198.5 -30q-116 0 -198 33t-133.5 96t-75.5 153.5t-24 206.5q0 48 4.5 98t12.5 104q21 136 48 269t55 269q1 5 1 15q0 38 -48 46q-97 13 -97 128z" />
<glyph unicode="V" horiz-adv-x="970" d="M22 1408q0 22 4.5 43.5t14 39.5t25 30.5t36.5 17.5q45 9 90.5 13t92.5 4q68 0 135.5 -7t135.5 -18q18 -3 35.5 -31t17.5 -75q0 -33 -22.5 -55.5t-56 -39.5t-71.5 -30t-69 -27q-24 -11 -23 -30q6 -92 24.5 -188t41.5 -193.5t47 -193t42 -185.5q2 -14 9 -22t18 -8 q8 0 16 5.5t16 18.5q50 85 89 173.5t70 182.5q30 94 66.5 185t78.5 181q13 26 13 46q0 42 -65 44q-106 1 -106 89q0 39 11.5 67t30 46.5t42.5 29.5t49 16q44 8 88 13.5t87 5.5q28 0 63.5 -2.5t67 -11t54 -24.5t25.5 -43q3 -19 5 -37q2 -12 1 -24v-9q-4 -86 -48 -124 q-31 -25 -53 -55.5t-41 -63.5t-37.5 -66.5t-41.5 -64.5q-5 -6 -24 -46t-47 -102t-62.5 -140t-71 -159.5t-72 -160.5t-65.5 -144q-34 -73 -55 -119t-31 -64q-12 -22 -27 -43t-32 -37.5t-37.5 -27t-44.5 -11.5q-40 0 -63.5 10t-36 25.5t-17.5 36t-7 41.5q-16 143 -44 288 t-66 295t-68 295t-51 288q-4 30 -31 50q-55 40 -55 102z" />
<glyph unicode="W" horiz-adv-x="1623" d="M28 1408q0 22 4.5 43.5t14 39.5t25 30.5t36.5 17.5q45 9 90.5 13t92.5 4q68 0 135.5 -7t135.5 -18q13 -2 30 -31t17 -79q0 -54 -49 -79q-42 -23 -82.5 -43t-78.5 -37q-23 -11 -23 -29q15 -185 37.5 -379.5t59.5 -378.5q1 -7 5 -7q3 0 11 14t17 32.5t17 37.5t13 29 q33 69 60 124.5t49.5 103t41.5 91t37.5 89t36.5 96.5t38 114q10 30 27.5 78t43.5 115q47 120 111 120q9 0 14 -1q60 -13 90 -40t33 -70q7 -113 11.5 -230t8 -234t7.5 -231.5t11 -222.5q2 -28 21 -28q17 0 33 26q50 85 88.5 174.5t73.5 180t70 182t78 181.5q12 25 12 46 q0 43 -65 44q-106 1 -106 89q0 39 11 67t30 47t43 29.5t50 15.5q44 8 87.5 13.5t87.5 5.5q28 0 62.5 -2.5t66 -11t54 -24.5t27.5 -43q2 -16 3.5 -30.5t1.5 -28.5q0 -96 -48 -135q-30 -25 -52 -55.5t-40 -64.5t-34 -69.5t-34 -69.5q-5 -9 -24.5 -50.5t-49.5 -105t-67 -142 t-75.5 -160t-76 -160.5t-68.5 -144t-52.5 -109t-27.5 -55q-12 -22 -26.5 -43t-32 -37.5t-38 -27t-44.5 -11.5q-40 0 -63.5 10t-36 25.5t-17.5 36t-7 41.5q-21 193 -43.5 394t-40.5 403q-26 -60 -59 -136t-69 -156.5t-71.5 -159.5t-66.5 -145t-54.5 -114t-34.5 -67 q-14 -23 -25 -48t-24.5 -45.5t-31 -33.5t-44.5 -13q-38 0 -60.5 10t-34.5 26.5t-16.5 36.5t-6.5 40q-16 141 -37.5 289t-45.5 298t-47.5 298t-44.5 289q-4 30 -31 50q-55 40 -55 102z" />
<glyph unicode="X" horiz-adv-x="1444" d="M24 123q0 89 88 140q61 35 125.5 93.5t131.5 130.5t135.5 151.5t139.5 157.5q-51 109 -106.5 224t-118.5 236q-17 2 -43.5 3.5t-61.5 3.5q-109 8 -109 100q0 26 5 52t18 47.5t35.5 36.5t57.5 19q51 6 100.5 8.5t99.5 2.5q69 0 120 -5.5t85 -20t50.5 -40t16.5 -65.5 q0 -32 -9 -57.5t-25 -44t-36.5 -30t-42.5 -15.5q55 -144 116 -286q46 51 96 108.5t105 121.5q15 18 15 35q0 18 -9.5 21.5t-23 6t-28.5 10t-27 32.5q-11 23 -15.5 47.5t-4.5 52.5q0 47 16.5 73.5t52.5 39t93 15.5t138 3q65 0 113.5 -5t80.5 -17.5t48 -35t16 -56.5 q0 -37 -9.5 -62.5t-24 -43.5t-30.5 -30.5t-29 -23.5q-135 -115 -255 -237t-232 -249q61 -133 122.5 -254.5t125.5 -233.5q51 -7 100 -15t100 -14q69 -9 69 -79q0 -42 -12.5 -75t-33.5 -55t-49.5 -33.5t-61.5 -11.5q-106 0 -209 4.5t-208 8.5l1 3q-111 3 -111 103 q0 24 5 50.5t19 50.5t39 43t66 29q-23 72 -51 147.5t-62 157.5q-55 -64 -108.5 -127.5t-107.5 -126.5q-25 -29 -25 -51q0 -24 31 -40q21 -11 39 -22.5t31.5 -25t21.5 -30t8 -37.5q0 -25 -6.5 -49.5t-20.5 -43.5t-36 -30.5t-54 -11.5q-25 0 -49.5 -0.5t-49.5 -0.5 q-81 0 -162.5 4t-161.5 18q-17 3 -28 13.5t-17.5 25t-9 30.5t-2.5 31z" />
<glyph unicode="Y" horiz-adv-x="1049" d="M53 1422q0 74 92 107l4 2q0 1 -2 1q39 2 77 4t76 2q57 0 116 -4t107.5 -19.5t79 -47.5t30.5 -88q0 -48 -23.5 -70.5t-71.5 -24.5q-45 -2 -45 -29q0 -7 5 -20q10 -24 24 -58.5t29 -72t30 -74.5t27 -66.5t20.5 -47.5t10.5 -18t10 10t18 25q21 34 46 66t51.5 63t52 62 t48.5 64q9 15 9 36q0 20 -34 31q-101 32 -101 130q0 37 12 64.5t41 46t77 27.5t120 9q42 0 88 -2.5t96 -8.5q101 -12 101 -93q0 -57 -21 -98.5t-49 -63.5q-65 -52 -124 -119.5t-114.5 -142.5t-110 -153.5t-109.5 -152.5q-26 -35 -33 -73.5t-11 -82.5q-2 -26 -8.5 -52.5 l-13 -53t-11.5 -52.5t-5 -52q0 -50 49 -52q42 -2 76.5 -7.5t60 -17t39.5 -30.5t14 -48q0 -24 -9 -57q-35 -120 -108 -120q-120 3 -239 3q-20 0 -39 -1h-12q-133 0 -266 12q-79 8 -79 114q0 16 2 32.5t8 31t18 25t33 15.5q34 7 65.5 13.5t61.5 13.5q61 14 77 95q6 33 15 68.5 t16.5 70.5t13 69t5.5 65q0 83 -38 168q-48 106 -87 216.5t-82 219.5q-8 20 -36 20h-7q-6 -1 -11.5 -1h-10.5q-106 0 -132 119v4q-9 27 -9 49z" />
<glyph unicode="Z" horiz-adv-x="1350" d="M25 71q0 33 2.5 64.5t12.5 64t28 66.5t50 70q184 211 365 419t366 419q40 46 40 68q0 26 -45 28q-75 3 -148.5 4t-147.5 1q-125 0 -153 -84q-31 -92 -56.5 -146.5t-48 -83.5t-42.5 -38t-40 -9q-45 0 -45 68q0 14 1.5 30t5.5 36q18 94 30 188t33 188q18 90 146 98 q183 10 364 10h60h105q156 0 308 4q19 0 37 -8.5t32.5 -21.5t23 -30t8.5 -33q0 -41 -2.5 -72t-9.5 -55.5t-20 -45t-33 -41.5q-226 -229 -445.5 -460.5t-439.5 -466.5q-21 -23 -21 -35q0 -15 30 -15q121 0 242.5 5.5t244.5 8.5q194 5 249 175q9 30 24 62.5t34 59.5t39.5 44.5 t40.5 17.5q27 0 40 -20t13 -56q0 -39 -13 -91q-22 -91 -42.5 -179t-39.5 -179q-8 -39 -28.5 -62t-50.5 -35t-68.5 -16t-83.5 -4q-225 8 -449.5 8t-448.5 4q-35 0 -44.5 19t-9.5 57z" />
<glyph unicode="[" horiz-adv-x="755" d="M137 161q0 11 2 20.5t4 20.5q26 116 48 211t41.5 183.5t37 177t35.5 190.5t37.5 225.5t42.5 281.5q41 109 75 119q81 22 166 22q120 0 120 -146q0 -29 -7.5 -51t-28.5 -38.5t-59 -28t-98 -17.5l-225 -1022q7 0 30.5 1t51.5 2t52.5 2t33.5 2q6 0 11.5 0.5t10.5 0.5 q121 0 121 -95q0 -16 -3 -32q-25 -152 -120 -157q-40 -2 -76 -3.5t-68 -1.5q-52 0 -91 2t-56 2h-13q-17 1 -31 12.5t-23.5 29t-15 40t-5.5 47.5z" />
<glyph unicode="\" horiz-adv-x="816" d="M29 1594q0 25 40 25q58 0 105 -26.5t84.5 -66.5t64.5 -88.5t44 -91.5q66 -166 115.5 -323.5t93 -312t85.5 -308.5t94 -314q6 -20 6 -30t-3.5 -13t-11.5 -3q-17 0 -52 11q-120 38 -157 141q-65 172 -134.5 348t-136.5 351.5t-127.5 348.5t-107.5 339q-2 5 -2 13z" />
<glyph unicode="]" horiz-adv-x="755" d="M136 175q0 28 7.5 50.5t28.5 39t59 28t98 17.5l225 1022q-7 0 -31 -1t-52 -2.5t-52.5 -2.5t-32.5 -1q-6 -1 -11.5 -1h-11.5q-120 0 -120 95q0 14 3 32q25 151 120 157q36 2 69 3.5t64 1.5q54 0 96.5 -2.5t60.5 -2.5q5 0 8.5 0.5t5.5 0.5q16 -2 30 -13.5t23.5 -29 t15 -40.5t5.5 -47q0 -11 -1.5 -20.5t-3.5 -19.5q-27 -116 -49 -211t-41 -183.5t-37 -176.5t-36 -190.5t-37 -226t-42 -281.5q-41 -110 -75 -119q-42 -12 -83.5 -17t-82.5 -5q-120 0 -120 146z" />
<glyph unicode="^" horiz-adv-x="609" d="M22 1235q0 9 6 18t13 19t13 20.5t6 21.5q27 31 53.5 67t50.5 70t43.5 61.5t33.5 40.5q6 6 15.5 16t21 19.5t25.5 16.5t30 7q30 0 51 -11t35.5 -30.5t24 -47t17.5 -60.5q10 -43 33 -90t58 -101q20 -14 20 -30q0 -12 -12 -26t-28.5 -26t-34 -21.5t-27.5 -13.5 q-51 27 -78 152t-65 125q-36 0 -85 -121q-29 -72 -59 -108.5t-62 -36.5q-19 0 -37 8.5t-31.5 19.5t-22 23t-8.5 18z" />
<glyph unicode="_" horiz-adv-x="917" d="M0 -306h916v-208h-916v208z" />
<glyph unicode="`" horiz-adv-x="367" d="M15 1086q0 14 4.5 27.5t13.5 21.5q6 4 17.5 10.5t26 13t29 11t25.5 4.5q17 0 23 -14q14 -38 30 -73.5t37.5 -66t51.5 -53.5t73 -36q6 -2 10 -9t4 -14q0 -10 -10.5 -17.5t-24.5 -12.5t-27 -7.5t-17 -2.5q-14 0 -23 4q-165 49 -236 183q-7 11 -7 31z" />
<glyph unicode="a" horiz-adv-x="1104" d="M41 356q0 34 4 65t16 60t33 57t54 57q51 44 129.5 70t181.5 26q170 0 273 -104q9 33 14 64t5 60q0 60 -22.5 100t-83.5 66q-28 11 -53 11q-22 0 -46 -9t-48.5 -24t-48.5 -34t-47 -38q-41 -35 -76 -35q-12 0 -29 8t-32.5 23t-26.5 35.5t-11 46.5q0 36 20.5 71t54 65.5 t77 56t89.5 44t92 29t84 10.5q107 0 171.5 -29t99.5 -73t46 -96t11 -98q0 -18 -1.5 -36.5t-5.5 -37.5q-21 -111 -42.5 -219t-42.5 -217q-3 -15 -3 -25q0 -16 9 -16q5 0 8 2q84 41 129 41q23 0 34.5 -13.5t11.5 -48.5q0 -104 -55.5 -166t-153.5 -80q-5 -1 -9 -1.5t-9 -0.5 q-48 0 -79.5 51.5t-55.5 137.5q-24 -62 -59.5 -101t-79 -61.5t-93 -33t-100.5 -14.5q-63 6 -123.5 31.5t-107 70t-75 107.5t-28.5 145zM269 334q0 -45 35 -76.5t112 -31.5q41 0 90.5 9.5t92 29t71.5 49.5t29 72q0 5 -0.5 10.5t-1.5 11.5v8q0 90 -140 90q-84 0 -139.5 -16.5 t-88.5 -42t-46.5 -55.5t-13.5 -58z" />
<glyph unicode="b" horiz-adv-x="1014" d="M11 103q2 37 14 90q34 148 63.5 295t57.5 293.5t55 292.5t59 293q1 5 1 9v12q0 57 -67 73q-54 13 -87 41q-32 27 -32 65q-1 27 25 58q24 30 63.5 55.5t89.5 42.5t101 17q31 0 64.5 -7.5t61 -22.5t44.5 -38t16 -54q-1 -34 -9 -69.5t-15 -65.5q-29 -124 -53.5 -245.5 t-49.5 -245.5q28 33 61 61t71 48.5t79 32t85 11.5q83 -1 137.5 -44t86.5 -109t44 -146q10 -64 9 -125v-31q-2 -47 -6.5 -88t-12.5 -76q-71 -301 -194 -412q-119 -107 -253 -107q-56 0 -101 16.5t-81.5 44t-66.5 63t-56 74.5q-24 -186 -129 -186q-8 0 -21 2t-25 10.5 t-21 25.5q-8 15 -8 40v6zM325 537v-16q0 -49 11 -89q13 -46 37.5 -78.5t61 -50t80.5 -17.5q52 0 98 23.5t81 67t56 105t24 137.5v19q0 52 -14 92q-16 48 -42.5 80t-59 48.5t-63.5 16.5q-80 0 -160 -84q-50 -53 -78.5 -118t-31.5 -136z" />
<glyph unicode="c" horiz-adv-x="972" d="M57 451q0 83 15 182q11 71 35.5 137t58.5 123t75.5 104t87.5 80.5t94 51.5t95 18q35 0 63 -10t51 -30.5t42.5 -51.5t38.5 -73q6 30 14 58.5t20.5 51.5t30.5 37t45 14q51 0 77 -20.5t26 -48.5q0 -8 -2 -16.5t-5 -18.5q-7 -32 -12 -71t-11.5 -78.5t-15 -76.5t-22 -65.5 t-33 -46t-47.5 -17.5q-33 0 -50 41q-10 26 -25.5 50.5t-39.5 43t-58.5 30t-83.5 11.5q-128 0 -197.5 -81.5t-69.5 -253.5q0 -123 59 -187.5t178 -64.5q53 0 100 14t94 27q12 4 23 5.5t19 1.5q23 0 32 -12.5t9 -31.5q0 -22 -10 -46q-22 -56 -63.5 -97t-94 -67.5t-112 -39.5 t-117.5 -13q-49 0 -104.5 24.5t-102 77t-77 135.5t-30.5 200z" />
<glyph unicode="d" horiz-adv-x="1178" d="M51 484q0 149 47 283.5t144 241.5q135 148 282 148q58 0 100 -19t72.5 -49t50.5 -67.5t33 -75.5q20 106 38.5 212t41.5 212q3 15 3 28q0 67 -76 77q-81 12 -81 109q0 75 38.5 113.5t129.5 38.5q63 0 113 -2.5t84.5 -13t53 -32.5t18.5 -61q0 -27 -8 -65 q-66 -280 -122.5 -556.5t-110.5 -557.5q-7 -33 -10 -59.5t-3 -45.5q0 -53 24 -53q8 0 21 7t27.5 15.5t28.5 15.5t24 7q24 0 38 -21.5t14 -66.5q0 -98 -53.5 -157t-157.5 -79q-10 -2 -19 -2.5t-18 -0.5q-29 0 -55.5 7.5t-46.5 23t-32 39t-12 54.5q0 22 6 43t9 44 q-43 -61 -83 -101t-77 -64t-70 -34t-62 -10q-65 0 -127 34.5t-110 96.5t-77.5 149.5t-29.5 193.5zM266 554q0 -54 12 -99.5t34.5 -78.5t54.5 -51.5t72 -18.5q55 0 107 28t92 75t64 108t24 126q0 45 -16 86t-44.5 71.5t-68 48.5t-86.5 18q-101 0 -159 -70q-42 -49 -64 -110 t-22 -133z" />
<glyph unicode="e" horiz-adv-x="970" d="M32 465q0 138 41 259.5t111.5 213t165 144.5t202.5 53q81 0 149 -26.5t117 -78t76.5 -128.5t27.5 -179q0 -31 -2.5 -64t-7.5 -68q-6 -92 -106 -92q-145 2 -287 4.5t-286 5.5q4 -72 25.5 -121.5t56 -80t81 -44t100.5 -13.5q88 0 160 23t131 67q5 4 13.5 10t18 11t19 9 t17.5 4q17 0 31.5 -16t14.5 -39q0 -26 -19.5 -59t-47.5 -64.5t-59.5 -58t-56.5 -41.5q-146 -88 -301 -88q-48 0 -92.5 9.5t-84.5 30t-74.5 53.5t-62.5 80q-38 63 -54.5 134.5t-16.5 149.5zM269 689l419 -10q44 4 44 36q0 19 -9.5 39.5t-23 39t-29 33t-27.5 21.5 q-32 18 -66 28t-66 10q-81 0 -143.5 -51.5t-96.5 -145.5h-2z" />
<glyph unicode="f" horiz-adv-x="855" d="M18 165q0 115 85 134q44 10 50 34q26 109 43.5 220.5t42.5 223.5q1 4 1 11q0 27 -31 27q-73 0 -107.5 20t-34.5 73q0 39 13 79t34 67q31 41 133 46q41 2 48 41q10 96 36.5 184t69 162.5t99 132t126.5 92.5q34 18 74 18q49 0 80.5 -19t33.5 -45q1 -26 4 -55.5t6 -60.5 t5.5 -62.5t2.5 -60.5q0 -85 -53 -85q-15 0 -34.5 7t-38 17t-35 21.5t-25.5 19.5q-23 20 -50 20q-13 0 -24.5 -20t-20.5 -51t-16 -68.5t-11.5 -73t-7 -64.5t-2.5 -43q0 -28 8.5 -38.5t24.5 -14.5q55 -15 89 -25t53 -24t25.5 -37t6.5 -64q0 -47 -13.5 -71.5t-36.5 -27.5 q-48 -6 -213 -6q-19 -100 -39.5 -198t-37.5 -198q-2 -12 -3 -22.5t-1 -20.5q0 -68 55 -81q30 -7 63.5 -16t62.5 -18.5t50 -20t27 -21.5t6 -32q0 -78 -36 -117t-88 -40q-15 0 -30.5 -0.5t-30.5 -0.5q-88 0 -174 4.5t-174 7.5t-90 140z" />
<glyph unicode="g" horiz-adv-x="1003" d="M21 -79q0 145 163 216q-20 12 -41.5 31t-38.5 43t-28 53t-11 63q0 95 46.5 150t153.5 68q-23 37 -40.5 95t-17.5 123q0 72 29.5 134.5t81.5 109t122.5 73t153.5 26.5h24q10 39 29.5 80.5t48 75.5t64.5 56t80 22q57 0 90 -37.5t33 -119.5q0 -22 -3.5 -46.5t-11 -44.5 t-19 -33.5t-27.5 -13.5q-6 0 -11.5 0.5t-13 4.5t-18.5 11.5t-27 22.5q-11 10 -21 13.5t-17 4.5q-8 0 -14 -7t-6 -19q0 -30 53 -62q43 -30 70.5 -59t43.5 -59t22 -61t6 -64q0 -69 -18 -123t-49 -95t-72.5 -70t-88 -47t-96 -26t-96.5 -8q-57 0 -107 15.5t-93 36.5 q-70 -24 -70 -69q0 -41 26.5 -61.5t66.5 -20.5q3 0 6 0.5t7 0.5q42 0 82.5 -0.5t82.5 -0.5q38 0 75 1t75 1q134 0 174 -31q26 -21 41 -47.5t23 -55.5t10 -57.5t2 -53.5q0 -75 -23.5 -139t-63.5 -116t-94 -92t-115.5 -67t-127.5 -41t-129 -14q-73 0 -140.5 21t-120 62 t-84 103t-31.5 144zM199 -47q0 -47 18 -79t47.5 -52t68 -29t79.5 -9q123 0 196.5 47t94.5 125q4 15 4 30q0 20 -9 34.5t-24.5 23.5t-36 13.5t-42.5 4.5q-59 0 -117.5 -10t-113.5 -10q-37 0 -73 6q-37 -13 -64.5 -36.5t-27.5 -58.5zM412 705q0 -62 45 -88.5t119 -26.5 q95 0 145 31.5t50 101.5q0 22 -6.5 45t-27 41t-58.5 29.5t-101 11.5q-158 0 -166 -136v-9z" />
<glyph unicode="h" horiz-adv-x="1099" d="M30 168v17q2 66 68 95q43 18 60 108q42 238 78 473.5t70 476.5q1 5 1 10v10q0 62 -71 65q-18 1 -34 6.5t-28 19t-18.5 36t-6.5 57.5q0 59 15 93.5t48 52.5t85 23t125 5q54 0 86 -9t49 -23.5t22 -33.5t5 -39q0 -22 -4 -41q-33 -163 -65 -324t-64 -324q70 86 147 137 t169 51q63 0 116.5 -26t91.5 -72.5t59.5 -110t21.5 -138.5q0 -26 -2.5 -51.5t-7.5 -52.5q-18 -96 -42.5 -188.5t-45.5 -186.5q29 -7 50.5 -15.5t36 -23t22 -37t7.5 -56.5q-1 -41 -8 -70t-29 -47t-64 -26t-114 -8q-16 0 -32 0.5t-32 0.5q-19 0 -37.5 -1t-37.5 -1 q-101 0 -101 133q0 65 22.5 98t73.5 35q29 2 35 24q21 93 43.5 184.5t38.5 185.5q3 18 3 34q0 65 -47 105t-142 40q-60 0 -103 -23t-73.5 -61.5t-51 -89.5t-34.5 -107t-23.5 -114t-19.5 -110q-4 -16 -4 -35q0 -30 10 -48.5t41 -23.5q65 -11 65 -100q0 -60 -61 -96t-183 -36 q-38 0 -70.5 6.5t-56.5 25t-38 52.5t-14 89z" />
<glyph unicode="i" horiz-adv-x="520" d="M21 176q0 89 60 94q30 2 48 18t24 48q21 109 34 218.5t28 215.5q1 5 1 10v10q0 12 -1 20.5t-6.5 15t-17 10t-31.5 4.5q-22 1 -41.5 6t-34.5 15.5t-24 28t-9 43.5q0 84 36.5 119t95.5 35q42 0 83.5 7.5t83.5 7.5q44 0 71.5 -13t42.5 -32t20.5 -41.5t5.5 -40.5 q0 -14 -2 -26.5t-5 -25.5q-36 -151 -67 -299.5t-65 -298.5q-4 -15 -4 -29q0 -30 26 -35q36 -7 58 -17.5t34 -25t16 -34t4 -44.5q0 -134 -124 -134h-8q-28 0 -56 -1t-56 -1q-52 0 -93 8t-69 27.5t-43 52.5t-15 84zM230 1413q0 68 42 100q32 25 82 25q59 0 97 -27t38 -88 q0 -70 -31.5 -115t-92.5 -45q-28 0 -52.5 10t-43 29t-29 47t-10.5 64z" />
<glyph unicode="j" horiz-adv-x="564" d="M31 -288q0 9 1.5 19.5t6.5 22.5q91 181 129 410q25 154 51.5 302t53.5 302q1 5 1.5 9t0.5 9q0 22 -12.5 29t-37.5 7q-30 0 -55 4.5t-44 16.5t-29.5 32.5t-10.5 52.5v9t1 9q3 29 12.5 56.5t31 49t56.5 34.5t88 13q128 0 194.5 -29t66.5 -92q0 -17 -5 -40 q-39 -168 -67.5 -333t-52.5 -335q-14 -94 -31 -174.5t-44 -151.5t-66 -134.5t-95 -121.5q-33 -34 -71 -34q-13 0 -26 3.5t-23.5 10.5t-17 18t-6.5 26zM260 1404q0 44 29 75q39 44 102 44q27 0 50.5 -7.5t41.5 -22.5t28.5 -38t10.5 -55q0 -42 -9 -70.5t-24.5 -46t-36.5 -25 t-45 -7.5q-71 0 -109 42t-38 111z" />
<glyph unicode="k" horiz-adv-x="1060" d="M27 163q0 17 1.5 35t8 34.5t20 30.5t36.5 23q16 6 26 22.5t14 40.5q42 254 80.5 505t77.5 505q1 4 1 7.5v6.5q0 49 -61 49q-7 0 -14 -1t-15 -1q-21 0 -37 4t-26.5 20t-16 48t-5.5 87q0 24 2.5 42.5t12 32t27.5 22t49 14.5q54 10 108.5 17t108.5 7q50 0 82 -5.5t50 -16.5 t25 -27.5t7 -38.5q0 -14 -3 -29q-49 -238 -99.5 -474t-99.5 -474q63 48 125 95t125 95q-58 27 -58 75q0 27 7.5 54.5t10.5 54.5q8 72 95 82q60 7 121 7t122 2q34 0 53 -14.5t28 -37t11 -49t2 -50.5q0 -36 -8 -59.5t-21.5 -38t-31 -21t-35.5 -7.5q-23 -2 -45 -9.5t-39 -21.5 q-45 -35 -87.5 -71.5t-84.5 -71.5q39 -72 77 -145t80 -142q15 -26 34 -44.5t39 -33t42 -26.5t43 -25q25 -16 35.5 -42.5t11.5 -62.5q-2 -43 -10 -69.5t-23 -41.5t-37 -20t-51 -5q-35 0 -69.5 0.5t-69.5 0.5q-25 0 -49 -1t-49 -1q-51 0 -73 34t-22 103q0 22 2 43t10.5 37 t26 25.5t48.5 10.5l-76 140t-75 140q-35 -24 -69 -47.5t-67 -47.5q-23 -17 -34.5 -46.5t-11.5 -66.5q0 -60 43 -76q89 -35 89 -101q0 -40 -10 -66.5t-26.5 -43t-37 -24.5t-41.5 -11q-43 -2 -86 -2h-21q-5 0 -10 1q-48 0 -97 -5q-3 0 -5.5 -0.5t-5.5 -0.5q-100 0 -105 162z " />
<glyph unicode="l" horiz-adv-x="631" d="M46 108q0 22 4 42q3 18 6.5 35t9 33t15.5 29.5t27 23.5q20 13 44 49t38 109q22 114 40.5 228.5t36 229t35.5 229t41 228.5q1 5 1.5 9t0.5 9q0 56 -80 62q-47 1 -72 16t-36 37t-13.5 48.5t-5.5 51.5q-1 8 -1.5 14.5t-0.5 13.5q0 95 95 103q54 4 104.5 6t98.5 2 q49 0 82 -15.5t52 -40.5t27 -56.5t8 -63.5q0 -29 -4 -59.5t-9 -59.5q-48 -260 -100 -517t-103 -517q-6 -30 -6 -52q0 -50 32 -59q45 -13 71 -25t40 -23.5t18.5 -24t4.5 -27.5q0 -19 -5 -40t-5 -38v-10q0 -33 -30.5 -51.5t-77 -27.5t-101 -11t-101.5 -2q-45 0 -79 5 t-56.5 17.5t-34 34.5t-11.5 55z" />
<glyph unicode="m" horiz-adv-x="1610" d="M52 179q0 75 58 92q62 18 75 70q23 78 40 157.5t38 158.5q9 36 9 65q0 36 -12.5 54.5t-32 29.5t-44 20t-48.5 24q-27 16 -27 62q0 20 3.5 40.5t13.5 39.5t27 36t43 29q38 18 73.5 25t69.5 7q49 0 80.5 -6t50 -18t25.5 -29.5t7 -40.5q0 -39 -14 -93q136 198 291 198 q62 0 102 -15t64 -40t33.5 -58t10.5 -70q24 32 52.5 63.5t63.5 56t76.5 40t90.5 15.5q64 0 115.5 -19t88.5 -53.5t57 -83t20 -106.5q0 -14 -1 -29t-3 -30q-17 -106 -32.5 -211t-27.5 -208q-2 -12 -3 -22t-1 -20q0 -44 22 -61q69 -54 69 -125q0 -51 -27.5 -81.5t-75.5 -37.5 q-51 -8 -98 -10.5t-92 -2.5q-81 0 -121 23.5t-40 74.5q0 29 3 58.5t11.5 54.5t24.5 43t42 25q13 3 25.5 7.5t22 12t16.5 20t9 33.5q8 79 26 157.5t29 159.5q2 9 2 17.5v16.5q0 119 -136 119q-37 0 -66.5 -11.5t-51.5 -31t-37 -44.5t-24 -53q-23 -72 -39 -145.5t-30 -146.5 q-6 -27 -6 -48q0 -51 36 -61q59 -18 59 -114q0 -49 -21 -82t-53.5 -52.5t-71.5 -27.5t-76 -8q-54 0 -94 4t-66 17.5t-39 39t-13 69.5q0 28 6 54t17 47t27.5 35.5t36.5 18.5q40 9 52 68q15 75 26 148.5t29 148.5q5 17 6.5 34t1.5 33q0 28 -6 51.5t-21 40.5t-41 26.5t-66 9.5 q-73 0 -121.5 -46t-71.5 -119q-26 -85 -46 -168.5t-40 -168.5q-6 -24 -6 -42q0 -39 32 -48q64 -17 64 -113q0 -68 -24 -101.5t-66 -33.5q-35 0 -72.5 1t-75.5 1q-15 0 -30 -0.5t-29 -0.5q-60 0 -96.5 48t-36.5 136z" />
<glyph unicode="n" horiz-adv-x="1070" d="M35 955q0 120 96 128q40 3 79 7.5t80 4.5q18 0 38 -0.5t37 -6.5t28.5 -18.5t13.5 -36.5q1 -42 1 -82v-80q19 49 53 90.5t77 72.5t93 48.5t103 17.5q70 0 123.5 -26.5t90.5 -71.5t56 -104t19 -123q0 -19 -2 -37.5t-5 -38.5q-16 -87 -39 -172t-37 -172q-2 -7 -2 -13v-12 q0 -55 47 -73q30 -12 36 -35t6 -68q0 -56 -14 -86t-37.5 -44.5t-55.5 -17t-68 -2.5q-39 0 -78 2.5t-77 4.5q-40 1 -62 39t-22 109q0 74 46 90q62 23 75 95q15 79 29 158t28 160q3 19 3 38q0 34 -11.5 58.5t-30 41t-41.5 24.5t-45 8q-38 0 -77.5 -16t-69.5 -36 q-105 -70 -129 -191q-13 -60 -24 -119t-23 -119q-3 -15 -3 -28q0 -50 52 -57q93 -15 93 -85q0 -56 -18.5 -90t-47.5 -53t-65.5 -25t-73.5 -6q-36 0 -72 2t-72 3q-50 1 -69 35.5t-19 104.5q0 112 57 129q10 3 17.5 11t12.5 19t8 24t5 26q16 91 27 183t24 185q1 11 1.5 20.5 t0.5 17.5q0 26 -7 42t-37 21q-66 11 -94 41.5t-28 83.5z" />
<glyph unicode="o" horiz-adv-x="965" d="M32 449q0 158 56 292.5t156 234.5q68 69 148.5 105t174.5 36q77 0 144 -27t116.5 -81.5t77.5 -138t28 -195.5q0 -69 -12 -142.5t-33.5 -141t-51.5 -124.5t-67 -95t-81 -69.5t-92.5 -54.5t-99.5 -36t-102 -13q-82 0 -155.5 35.5t-127.5 121.5q-42 66 -60.5 140t-18.5 153z M230 515q0 -51 12.5 -98t39 -84t66.5 -59t95 -22q55 1 108 23.5t93.5 66t65.5 106.5t25 145q0 55 -17 99.5t-47 75.5t-71.5 47.5t-89.5 16.5q-55 0 -102 -20t-87 -58q-91 -90 -91 -239z" />
<glyph unicode="p" horiz-adv-x="1107" d="M50 878q0 18 6 42q3 108 67 129q57 19 116 29.5t122 14.5q68 -12 68 -61v-76t1 -76q37 48 74 87t75 66t79 42t87 15q78 0 137.5 -33.5t99 -90.5t59.5 -132.5t20 -160.5q0 -74 -14.5 -153.5t-42.5 -156t-68.5 -145t-93 -120t-115.5 -82t-136 -30.5q-38 0 -74 10 t-69.5 33.5t-63.5 61t-56 92.5q-25 -109 -52 -216.5t-49 -218.5q-27 -136 -74 -136q-9 0 -25.5 10.5t-32.5 31.5t-28 53t-12 76q0 49 11.5 114.5t32.5 156.5q18 81 32.5 163t27.5 164t26 164.5t28 164.5q9 28 9 51q0 18 -10 27.5t-39 9.5q-5 -1 -10.5 -1h-10.5 q-102 0 -102 81zM396 476q0 -50 14 -92.5t41 -73.5t66.5 -48.5t90.5 -17.5q52 0 97 26t78 71.5t52 107t19 132.5q0 57 -15.5 102t-41.5 76t-60 47t-71 16q-78 0 -153 -69q-54 -50 -85.5 -122t-31.5 -155z" />
<glyph unicode="q" horiz-adv-x="1006" d="M23 408q0 73 10.5 144.5t30 138.5t47 128t60.5 113q57 91 130.5 133.5t151.5 42.5q97 0 174.5 -53t133.5 -153q11 30 22.5 63.5t26.5 61t34 45.5t46 18q39 0 57 -20t18 -54q0 -31 -3.5 -67t-10.5 -78q-35 -209 -77 -414.5t-78 -413.5q-6 -33 -6 -58q0 -86 64 -100 q117 -26 117 -91q0 -60 -20.5 -95.5t-51.5 -54t-66 -24t-64 -5.5q-35 0 -70 4t-70 10q-31 5 -54.5 34t-23.5 83q0 15 2 31.5t5 36.5q13 84 33.5 164t40.5 162q-31 -36 -69.5 -64.5t-79 -48t-81 -29.5t-76.5 -10q-60 0 -115 28.5t-96.5 82.5t-66.5 132t-25 177zM227 509 q0 -60 13.5 -110t38 -85.5t59.5 -55.5t77 -20q47 0 96 29t88.5 79t65 117.5t25.5 144.5q0 51 -15 94t-43 74t-69 48.5t-93 17.5q-79 0 -133 -56q-51 -53 -80.5 -123.5t-29.5 -153.5z" />
<glyph unicode="r" horiz-adv-x="856" d="M29 141q3 96 75 115q51 13 62 61q21 102 40 202t40 203q1 5 1.5 11t0.5 11q0 17 -5 33.5t-16.5 29t-31 20.5t-49.5 8q-27 0 -47.5 2.5t-35 12t-21.5 27.5t-7 50q0 27 2.5 50.5t11.5 43t28 33.5t52 22q54 12 95.5 18.5t73.5 6.5q56 0 81 -18t25 -52q0 -44 -3.5 -93 t-5.5 -94q31 45 65 91.5t69 85t71.5 62.5t74.5 24q37 0 65.5 -12t47.5 -32t28.5 -46.5t9.5 -55.5q0 -35 -3 -69t-3 -69v-30q0 -45 -22 -74.5t-58 -29.5q-26 0 -46 18t-37 39t-34.5 39t-39.5 18q-48 0 -80.5 -30.5t-40.5 -75.5q-18 -94 -38.5 -179.5t-35.5 -170.5 q-2 -5 -2 -10.5v-10.5q0 -40 40 -55q94 -36 138.5 -79.5t44.5 -95.5q0 -31 -12 -50.5t-32.5 -30.5t-47.5 -15t-57 -4q-23 0 -46 1t-46 1h-88q-50 0 -95 3t-80 17t-55.5 42.5t-20.5 80.5z" />
<glyph unicode="s" horiz-adv-x="937" d="M33 52q0 5 0.5 11t1.5 12q5 37 6.5 76t2.5 78t3 79t8 79q9 66 41 66q13 0 26 -6.5t25 -17.5t22 -25t16 -28q36 -81 88.5 -115.5t127.5 -34.5q107 0 160.5 34t53.5 87q0 42 -55 67q-45 20 -89.5 40t-92.5 38q-205 77 -205 272q0 54 18.5 111t53 107.5t84.5 88.5t113 54 q24 6 49 6q51 0 101 -26.5t97 -86.5q8 -10 16 -10q7 0 15.5 6.5t16 16t13.5 20.5t9 21q8 26 22 43.5t34 17.5q17 0 31 -21.5t24 -53t15.5 -67.5t5.5 -66q0 -44 -6.5 -82.5t-19.5 -67t-31 -45.5t-41 -17q-27 0 -44.5 12t-32 30t-30 38.5t-39 38.5t-59 30t-89.5 12 q-64 0 -96.5 -21.5t-32.5 -68.5q0 -52 41 -87t133 -56q139 -32 214.5 -105t75.5 -187q0 -21 -2.5 -44t-8.5 -47q-17 -66 -50.5 -119t-79.5 -89.5t-102.5 -56.5t-118.5 -20q-150 0 -252 136v-11q0 -127 -109 -127q-78 0 -78 81z" />
<glyph unicode="t" horiz-adv-x="678" d="M29 928v8q0 80 69 88q33 7 65.5 12.5t67.5 14.5q7 41 18.5 85.5t33 81t56 60.5t88.5 24q32 0 45 -18t13 -53q0 -42 -9.5 -85.5t-23.5 -91.5q14 1 27.5 1.5t26.5 0.5q47 0 73.5 -11.5t28.5 -46.5q0 -18 5 -51.5t5 -68.5q0 -96 -66 -96q-37 0 -78 3t-87 4 q-19 -94 -40.5 -184t-33.5 -184q-2 -14 -3 -26t-1 -23q0 -37 10 -62t27.5 -40.5t41.5 -22.5t52 -7q24 0 50.5 3.5t45.5 3.5q73 0 73 -39q0 -19 -18 -47q-30 -47 -67.5 -79.5t-79.5 -53t-87 -30t-90 -9.5q-41 0 -78.5 10t-66 34.5t-45 65t-16.5 100.5q0 34 5 74t14 87 q21 109 43.5 217t45.5 217h-10q-129 0 -129 117v8q-1 5 -1 9z" />
<glyph unicode="u" horiz-adv-x="1069" d="M38 913q0 30 29 85q27 50 79.5 76t127.5 26q45 0 75 -6.5t48 -20t26 -34.5t8 -49q0 -38 -13 -84q-30 -109 -52.5 -218t-40.5 -221q-4 -21 -5.5 -39.5t-1.5 -35.5q0 -126 106 -126q51 0 106 20.5t99 52.5q68 50 98 172q12 48 20 97t19 98q2 9 3 17t1 16q0 75 -81 99 q-74 21 -74 85q0 32 14 62.5t44.5 54.5t78 38.5t115.5 14.5q49 0 79.5 -8.5t48 -24t23.5 -36.5t6 -45q0 -12 -1.5 -25t-5.5 -27q-20 -75 -34.5 -150t-27.5 -150.5t-25 -151t-26 -150.5q-5 -13 -5 -22q0 -18 13 -27.5t39 -14.5q27 -5 44 -14.5t26 -23t12 -30.5t3 -36 q0 -49 -9 -80t-23 -49t-31.5 -26t-34.5 -10q-10 -1 -19 -1q-7 1 -13 1q-15 2 -24 1q-38 0 -69.5 3.5t-55 14t-38.5 29.5t-20 49q-5 27 -13 53.5t-13 53.5q-54 -101 -118.5 -151.5t-150.5 -50.5q-57 0 -112.5 21.5t-99.5 63t-71 101t-27 136.5q0 59 17 133q15 69 28 140 t29 141q4 17 4 36q0 65 -63 82q-30 8 -50.5 23.5t-20.5 41.5z" />
<glyph unicode="v" horiz-adv-x="1075" d="M26 952v10q0 42 10 67t30.5 38t50.5 17t70 4q37 0 80.5 -1t81.5 -3.5t66 -7t35 -11.5q9 -9 14 -25.5t8 -35.5t4 -36.5t1 -28.5q0 -89 -57 -93q-73 -7 -73 -40q0 -6 1 -9q60 -251 120 -498q70 117 141 232.5t143 233.5q13 22 13 38q0 27 -43 28q-60 2 -93.5 38.5 t-33.5 108.5q0 36 15 59t44 35.5t71.5 17t96.5 4.5q62 0 105 -6t70 -20.5t39.5 -39t12.5 -61.5q0 -35 -13 -65.5t-30 -59.5q-123 -199 -239 -398t-237 -398q-39 -64 -93 -64q-27 0 -51 12.5t-44 34t-34.5 51.5t-21.5 65q-32 150 -74.5 297.5t-78.5 297.5q-15 61 -77 103 q-23 16 -25.5 44t-4.5 65z" />
<glyph unicode="w" horiz-adv-x="1452" d="M26 974q7 78 99 96q50 10 97 15t94 5q56 0 86.5 -5.5t44 -17t15.5 -27.5t2 -37q0 -50 -6.5 -79.5t-19.5 -46t-33 -23t-47 -10.5q-14 -2 -20 -8t-8.5 -14.5t-2 -18.5t0.5 -20q0 -47 4.5 -96.5t10 -99.5t10 -99.5t5.5 -95.5q47 72 89.5 151t84 158.5t84 158.5t90.5 151 q22 33 50 33t44.5 -15.5t18.5 -34.5q17 -161 35 -318t48 -313q54 99 113 194t108 198q5 12 8.5 22.5t3.5 19.5q0 40 -59 57q-38 10 -59 33t-21 74q0 30 4.5 54t18 40.5t37.5 25.5t64 9q8 -1 15 -1h14q38 0 74.5 2t73.5 2q31 0 55.5 -2.5t42 -11.5t26.5 -26.5t9 -46.5 q0 -43 -10 -76.5t-24 -60.5t-30 -50.5t-29 -47.5q-100 -182 -198 -369.5t-201 -382.5q-26 -49 -64 -49q-21 0 -39 9.5t-32.5 24t-24 32t-13.5 33.5q-29 128 -55.5 255t-52.5 257q-82 -141 -167 -277.5t-161 -280.5q-24 -45 -56 -45q-33 0 -53.5 31t-24.5 90 q-15 168 -31 333.5t-37 333.5q-3 28 -43 47q-33 15 -45.5 58.5t-12.5 102.5z" />
<glyph unicode="x" horiz-adv-x="1110" d="M27 101q0 92 63 148q91 79 181.5 159t181.5 161q-42 63 -83.5 126t-83.5 127q-11 16 -32 23t-42.5 19t-37.5 35.5t-16 71.5q0 49 13 76t40 39.5t68 15t98 2.5q27 0 59 1h21q21 0 40 -1q29 -2 49.5 -9t23.5 -23q3 -15 3 -34q0 -18 -1.5 -40t-4.5 -43.5t-9 -38.5t-15 -24 q-25 -19 -25 -44q0 -13 9 -32.5t22.5 -41t28.5 -43.5t26 -39q39 34 80.5 66.5t76.5 72.5q8 10 8 19q0 16 -24 31q-31 19 -47.5 50t-16.5 75q0 90 84 93q38 2 76 3.5t76 1.5q34 0 64 -1.5t52.5 -12.5t35 -34.5t12.5 -67.5q0 -88 -71 -151q-78 -70 -156 -139t-155 -138 q38 -66 76 -133t78 -131q25 -42 88 -74q28 -14 45 -47t17 -83q0 -93 -92 -93q-142 0 -278 12q-17 1 -26 7t-13.5 16.5t-5.5 25.5t-1 35q0 48 6.5 82t36.5 54q17 11 17 32q0 19 -10 39.5t-24 40.5t-30.5 40.5t-29.5 39.5q-42 -36 -86 -68.5t-79 -73.5q-12 -15 -12 -24 q0 -13 18 -17q66 -20 66 -108q0 -41 -6.5 -67t-18 -40.5t-26 -20t-29.5 -6.5q-33 -2 -66 -3t-67 -1q-40 0 -80 2.5t-79 9.5q-61 10 -61 95z" />
<glyph unicode="y" horiz-adv-x="1096" d="M35 959q-1 5 -1 9t1 9q0 52 26 84t91 32q69 0 137 -2.5t137 -4.5q79 -5 86 -62q6 -59 6 -110q0 -52 -54 -62q-98 -20 -98 -69q0 -8 3 -17q17 -63 33.5 -128t34 -130t37 -129.5t43.5 -125.5q78 125 145.5 257.5t131.5 268.5q6 15 6 26q0 17 -14.5 23.5t-43.5 6.5 q-60 0 -86 34t-26 103q0 28 5 50.5t17.5 38t35 24t57.5 9.5q55 1 108.5 5t108.5 4q60 0 84.5 -31t24.5 -92q0 -90 -50 -169q-80 -126 -151 -257.5t-139.5 -264t-137.5 -265t-145 -261.5q-65 -109 -121.5 -159.5t-110.5 -50.5q-31 1 -57.5 18t-46 48.5t-30.5 77t-11 104.5 q0 45 12.5 68t34.5 23q10 0 22 -6.5t24.5 -15t25 -15t24.5 -6.5q22 0 44.5 15.5t42 37.5t35 47t24.5 43q8 16 11.5 35t3.5 39q0 26 -6 56q-63 157 -124 312t-121 312q-4 11 -17.5 36.5t-28 55t-26.5 58t-14 45.5q-2 9 -3 18z" />
<glyph unicode="z" horiz-adv-x="1029" d="M26 112q0 20 2 39.5t8.5 39t19 39.5t33.5 41q154 150 303.5 301t301.5 303q-30 2 -57.5 3.5t-52.5 1.5q-185 0 -248 -65q-16 -16 -30 -38t-28 -41.5t-30 -33.5t-35 -14q-17 0 -30.5 5.5t-23 14.5t-15 20t-5.5 21q0 3 0.5 6t1.5 7q15 78 32.5 147t40.5 146q9 29 29.5 42 t56.5 13q147 -8 296 -9t297 -5q103 -3 103 -74q0 -51 -23.5 -108t-64.5 -100q-128 -132 -259.5 -255t-262.5 -248q-12 -11 -18.5 -19.5t-5.5 -16.5q0 -13 20 -19q57 2 114.5 4.5t114.5 2.5q98 0 161 119q11 22 26.5 43.5t38.5 21.5q25 0 40.5 -14.5t15.5 -48.5q0 -10 -1 -21 t-4 -24q-11 -49 -14.5 -99t-11.5 -98q-21 -118 -136 -119q-154 -2 -306.5 -4t-306.5 -4q-42 9 -64.5 33t-22.5 64z" />
<glyph unicode="{" horiz-adv-x="822" d="M63 545q0 2 0.5 3t0.5 3q169 160 183 450q38 308 462 596q25 27 46 27q9 0 16.5 -5.5t13.5 -14.5t9.5 -19.5t3.5 -19.5q0 -23 -15 -45q-311 -257 -311 -531q-54 -276 -227 -413q138 -75 138 -295q0 -25 -3 -54.5t-6 -59.5t-6 -59t-3 -53q0 -107 45 -152q134 -86 134 -137 q0 -13 -8 -28t-17.5 -28.5t-18.5 -23.5t-12 -13q-15 -12 -37 -12q-67 0 -203 112q-82 119 -82 271q0 43 7 88.5t7 93.5q0 266 -58 278q-59 12 -59 41z" />
<glyph unicode="|" horiz-adv-x="621" d="M234 -483v2048h153v-2048h-153z" />
<glyph unicode="}" horiz-adv-x="822" d="M73 -294q0 22 15 45q311 257 311 531q54 276 227 413q-138 75 -138 294q0 25 3 55l6 60t6 59t3 53q0 107 -45 152q-135 85 -135 138q0 12 8 27t18 28.5t19 23.5t12 13q15 12 36 12q66 0 204 -112q81 -120 81 -271q0 -43 -7 -88.5t-7 -93.5q0 -266 59 -278q58 -12 58 -42 v-5q-170 -161 -183 -450q-38 -308 -462 -596q-26 -27 -46 -27q-9 0 -16.5 5.5t-13.5 14.5t-9.5 19.5t-3.5 19.5z" />
<glyph unicode="~" horiz-adv-x="1083" d="M117 480q0 23 18.5 44t37.5 35q32 24 67 53.5t72.5 56t76 44.5t77.5 18q41 0 77 -21.5t71 -68.5q31 -41 66.5 -66.5t70.5 -25.5q28 0 47 46q16 38 34 60t46 22q10 0 22 -2.5t24 -5.5t22 -7t17 -7q29 -14 29 -71q0 -28 -10 -53.5t-26.5 -48.5t-37.5 -44.5t-43 -42.5 q-36 -34 -75 -48.5t-85 -14.5q-121 0 -166 80q-53 91 -100 91q-48 0 -100 -66q-29 -36 -64.5 -55.5t-77.5 -19.5q-18 0 -34 13t-28.5 31t-20 38.5t-7.5 35.5z" />
<glyph unicode="&#xa1;" horiz-adv-x="516" d="M-26 -396q0 8 1 16.5t4 18.5q48 177 93.5 350.5t81.5 348.5q26 121 102 121q60 0 62 -69v-56q0 -78 -2.5 -155.5t-12.5 -159.5t-30 -171t-54 -190q-48 -143 -134 -143q-28 0 -48.5 7.5t-34.5 20t-21 28.5t-7 33zM217 767q0 57 9.5 96t27 62.5t41 33.5t51.5 10 q15 0 31.5 -5.5t31 -19t24 -37t9.5 -58.5q0 -14 -1.5 -29.5t-3.5 -32.5q-21 -160 -113 -160q-28 0 -48 11t-33 30t-19.5 44.5t-6.5 54.5z" />
<glyph unicode="&#xa2;" horiz-adv-x="687" d="M22 291q0 41 4 84t19.5 90.5t47.5 101t89 115.5q100 109 236 118h11q7 54 10 110t4 116q0 21 7 41t20.5 36.5t34.5 26.5t48 11q34 0 53.5 -10t29.5 -26.5t12.5 -38.5t2.5 -47q0 -74 -9 -140.5t-23 -126.5q28 -19 41.5 -46t13.5 -50q0 -24 -12 -48t-28 -42.5t-32.5 -30.5 t-26.5 -12q-19 0 -34 22q-27 -60 -66 -141.5t-90 -187.5q3 -1 10 -1q18 0 40.5 7.5t46 19.5t47.5 27.5t47 31.5q12 9 24 9q14 0 24.5 -10t10.5 -25q0 -44 -33.5 -84.5t-84 -73t-109 -53.5t-109.5 -25q-10 -20 -22.5 -48t-26.5 -54.5t-29.5 -45t-31.5 -18.5q-9 0 -16.5 9 t-12 21t-7 23t-2.5 15q0 8 2 11q10 25 19 49t18 47q-38 12 -68.5 38t-53 59t-34.5 71t-12 75zM259 400q0 -56 26 -103q39 106 66.5 185.5t43.5 136.5q-11 -4 -21.5 -10.5t-21.5 -14.5q-45 -35 -69 -84t-24 -110z" />
<glyph unicode="&#xa3;" horiz-adv-x="943" d="M30 147q0 51 19 82t76 47q7 48 15 94t16 94q-60 21 -87 43q-26 17 -26 47q0 39 16.5 57t39.5 24t48 4.5t42 -1.5q29 143 64 283t77 279q26 86 62 145.5t79.5 96.5t94 53.5t104.5 16.5q74 -2 123 -29.5t78.5 -74.5t42 -110t12.5 -136q0 -24 -4.5 -55.5t-17 -60t-35.5 -48 t-59 -19.5q-25 0 -40.5 12.5t-25 32t-14.5 44t-8 47.5q-3 22 -7.5 39.5t-13 30t-23 19t-37.5 6.5q-85 0 -124 -136q-32 -112 -53.5 -222t-42.5 -221q28 -2 55 -3t55 -1q100 0 202 12q8 1 14.5 1.5t12.5 0.5q48 0 66.5 -22t18.5 -66q0 -34 -9 -63t-26.5 -51t-43 -35.5 t-57.5 -16.5q-35 -3 -71 -3q-58 0 -125 6.5t-127 17.5q-5 -32 -9.5 -65t-9.5 -65q60 -5 106.5 -10t79.5 -10h72t69 5.5t61.5 18t48.5 36.5q23 27 44 62t38 77q21 52 49.5 84.5t59.5 32.5q23 0 36 -25t13 -60v-11t-1 -12q-6 -53 -12 -95.5t-12.5 -82.5t-15.5 -81t-22 -92 q-9 -34 -24.5 -56t-41.5 -35t-64 -18t-92 -5h-9q-41 0 -76 0.5t-65 0.5q-61 0 -104.5 -1.5t-80.5 -3.5t-73 -3.5t-82 -1.5q-35 0 -69.5 1.5t-69.5 6.5q-100 24 -100 147z" />
<glyph unicode="&#xa4;" horiz-adv-x="986" d="M70 325q0 46 14 68t30.5 33.5t30.5 20t14 26.5q0 9 -5 26q-21 55 -21 119q0 120 65 227q5 12 5 21q0 16 -11.5 25t-26 18.5t-26 23.5t-11.5 41q0 3 0.5 6t0.5 6q4 46 20.5 81.5t40.5 59.5t53 36t59 12q55 0 66 -68q9 -57 43 -57q3 0 6 0.5t7 1.5q28 14 63 23t76 9 q52 0 103 -20q32 2 66 65q35 65 96 65q28 0 48.5 -11t33.5 -28t19 -38t6 -40q-5 -108 -56 -122q-43 -21 -43 -62q0 -23 5.5 -47.5t5.5 -51.5q0 -70 -14.5 -133t-39.5 -116q-1 -5 -1 -8.5v-7.5q0 -23 13.5 -32t29 -16t29 -17t13.5 -34q-2 -54 -19.5 -95.5t-43 -69t-56 -42 t-58.5 -14.5q-23 0 -33 21t-16.5 46.5t-14.5 46.5t-26 21q-9 0 -14 -2q-35 -17 -79.5 -27.5t-88.5 -10.5q-51 0 -93 16q-4 2 -12 2q-32 0 -57 -62q-34 -70 -92 -70q-18 0 -36.5 11t-33.5 30t-24.5 43t-9.5 51zM343 673q1 -40 13.5 -68t32.5 -45.5t45 -25.5t52 -8 q78 0 122.5 51t44.5 149q0 27 -10 55.5t-30 51t-50.5 37t-72.5 14.5q-28 0 -54.5 -12.5t-47 -37t-33 -62t-12.5 -87.5v-12z" />
<glyph unicode="&#xa5;" horiz-adv-x="1084" d="M53 1422q0 74 92 107l4 2q0 1 -2 1q39 2 77 4t76 2q57 0 116 -4t107.5 -19.5t79 -47.5t30.5 -88q0 -48 -23.5 -70.5t-71.5 -24.5q-45 -2 -45 -29q0 -7 5 -20q10 -24 24 -58.5t29 -72t30 -74.5t27 -66.5t20.5 -47.5t10.5 -18t10 10t18 25q21 34 46 66t51.5 63t52 62 t48.5 64q9 15 9 36q0 20 -34 31q-101 32 -101 130q0 37 12 64.5t41 46t77 27.5t120 9q42 0 88 -2.5t96 -8.5q101 -12 101 -93q0 -57 -21 -98.5t-49 -63.5q-66 -52 -125.5 -118t-113.5 -144q-48 -69 -96 -136.5t-97 -133.5q5 -1 15 -1q136 -9 136 -73q0 -17 -5 -32.5 t-12.5 -27.5t-15.5 -20t-14 -10q-14 -6 -34.5 -10t-44 -6.5t-48 -3.5t-47.5 -2l-3 -27q91 -6 136.5 -20t45.5 -55q0 -17 -5 -32.5t-12.5 -27.5t-15.5 -20t-14 -10q-15 -6 -35 -10t-42.5 -6t-46.5 -3.5t-46 -2.5q0 -53 49 -54q42 -2 76.5 -7.5t60 -17t39.5 -31t14 -47.5 q0 -24 -9 -57q-35 -120 -108 -120q-140 3 -278.5 2.5t-277.5 11.5q-79 8 -79 114q0 16 2 32.5t8 31t18 25t33 15.5q34 7 65.5 13.5t61.5 13.5q54 12 74 80q-42 3 -85 6t-78 11.5t-57 24t-22 43.5q0 34 64 58q97 37 217 42l6 29q-42 3 -85.5 6t-79 11.5t-58 24t-22.5 43.5 q0 19 22.5 35t57.5 28.5t76.5 21t80.5 12.5l-10 30t-12 30q-48 106 -87 216.5t-82 219.5q-8 20 -36 20q-8 0 -15 -0.5t-14 -0.5q-106 0 -132 119v4q-9 27 -9 49z" />
<glyph unicode="&#xa6;" horiz-adv-x="621" d="M234 -350v758h153v-758h-153zM234 674v758h153v-758h-153z" />
<glyph unicode="&#xa7;" horiz-adv-x="1120" d="M11 -190q0 17 7.5 33.5t20.5 29t29.5 20t33.5 7.5q26 0 54.5 -15t49.5 -42q15 -20 37 -34t45 -22.5t44 -12.5t35 -4q46 0 67 32t21 78q0 59 -25 119t-61 122.5t-76.5 129t-71.5 137.5q-65 148 -65 293q0 67 13.5 128.5t43 118.5t76 109.5t111.5 103.5q26 22 56 22 q15 0 30.5 -7t28.5 -18t22.5 -23.5t13.5 -24.5q-18 78 -18 150q0 97 30.5 168.5t79 119t108.5 71t120 23.5q45 0 86.5 -16t73.5 -41.5t51 -57.5t19 -63q0 -19 -12 -34.5t-39 -15.5q-12 0 -30 5t-37.5 10.5t-40.5 10.5t-39 5q-30 0 -58 -11t-49.5 -29t-34.5 -41.5t-13 -49.5 q0 -9 1.5 -18t3.5 -19q27 -109 65 -233t95 -251q46 -105 46 -209q0 -136 -81 -265t-229 -244q-16 -13 -33 -17q13 -71 13 -138q0 -94 -26 -161.5t-80 -102.5q-92 -60 -188 -60q-52 0 -100.5 14t-89 36.5t-71 51t-45.5 56.5q-9 16 -13.5 35.5t-4.5 40.5zM406 728 q0 -87 26 -177.5t69 -178.5q43 -87 78 -190q84 71 122.5 156.5t38.5 190.5q0 157 -89 314q-72 125 -98 241v-5q0 -11 -6 -20q-141 -179 -141 -331z" />
<glyph unicode="&#xa8;" horiz-adv-x="630" d="M34 1065q0 175 103 180q30 0 51.5 -15t36 -38.5t21.5 -53t7 -58.5q-2 -82 -30.5 -121t-83.5 -39q-105 0 -105 145zM375 1037q0 101 31.5 152t84.5 53q28 0 48 -12.5t33 -33t19 -47t6 -53.5q0 -89 -36.5 -134t-89.5 -45q-96 0 -96 120z" />
<glyph unicode="&#xa9;" horiz-adv-x="1547" d="M109 678q0 141 48.5 261t147.5 220q197 198 475 200q137 0 256 -50t218 -150t147.5 -220t48.5 -261q0 -140 -48.5 -259t-147.5 -219t-218 -150t-256 -50q-277 0 -475 200q-99 100 -147.5 219.5t-48.5 258.5zM200 678q0 -239 172 -412q170 -173 408 -173q239 0 409 173 q169 172 169 412q0 243 -169 415q-170 172 -409 172q-238 0 -408 -172q-172 -173 -172 -415zM380 678q0 96 29.5 172.5t84.5 130t133 82t175 28.5q67 0 128 -13t121 -37v-119q-61 31 -119.5 45.5t-118.5 14.5q-136 0 -211.5 -79.5t-75.5 -224.5q0 -146 77 -225.5t219 -79.5 q60 0 114 14.5t115 45.5v-116q-122 -53 -249 -53q-97 0 -175 29t-133 83t-84.5 130.5t-29.5 171.5z" />
<glyph unicode="&#xaa;" horiz-adv-x="970" d="M202 1015q0 41 15.5 83.5t43 82.5t66 76t85.5 64q54 33 99 33q33 0 52 -11.5t32.5 -25.5t26.5 -25.5t33 -11.5q5 0 10.5 0.5t10.5 0.5q50 0 50 -59q0 -11 -2.5 -23t-7.5 -25q-32 -79 -32 -123q0 -23 9.5 -34t23.5 -11q26 0 66 34q11 10 21 10q18 0 18 -29q0 -2 -0.5 -5 t-0.5 -6q-33 -179 -132 -179q-91 0 -136 118q-23 -24 -46 -47t-48.5 -41t-53 -29t-57.5 -11q-31 0 -58 16.5t-46.5 44t-30.5 62.5t-11 71zM369 1051q0 -52 54 -52q21 0 43 9t40 26t29 41t11 54q0 60 -40 66q-4 1 -8 1h-8q-18 0 -39 -11t-39.5 -30.5t-30.5 -46t-12 -57.5z " />
<glyph unicode="&#xab;" horiz-adv-x="765" d="M30 433q0 18 14 37q48 60 98 112.5t101 109.5q34 37 75 37q16 0 31.5 -4.5t28 -13t20 -20t7.5 -24.5q0 -21 -22 -49.5t-52 -59.5t-61 -62t-48 -58q-9 -15 -9 -30q0 -13 7 -26q24 -52 57 -100t61 -97q5 -9 7.5 -18t2.5 -17q0 -19 -14 -36.5t-32 -17.5q-17 0 -38.5 15 t-43 37t-40.5 47t-31 45q-43 73 -101 149q-18 22 -18 44zM359 433q0 18 14 37q48 60 98 112.5t101 109.5q34 37 75 37q16 0 31.5 -4.5t28 -13t20 -20t7.5 -24.5q0 -21 -22 -49.5t-52 -59.5t-61 -62t-48 -58q-9 -14 -9 -30q0 -13 6 -26q24 -52 57.5 -100t61.5 -97 q5 -9 7.5 -18t2.5 -17q0 -19 -14 -36.5t-32 -17.5q-17 0 -38.5 15t-43 37t-40.5 47t-31 45q-43 73 -101 149q-18 22 -18 44z" />
<glyph unicode="&#xac;" horiz-adv-x="979" d="M18 820q0 32 18.5 47t44 20.5t53.5 4.5t47 -1q102 0 201 -5t200 -5q68 0 135 5.5t134 5.5q57 0 78 -18.5t21 -55.5q0 -18 -4.5 -32t-9.5 -32q-31 -87 -66.5 -156t-84.5 -132q-20 -26 -48 -26q-22 0 -37.5 10t-15.5 32q0 9 3 21q11 42 17 85.5t14 86.5v4q-60 0 -126 4 t-132 11t-129.5 17t-118.5 21t-97.5 23.5t-66.5 25.5q-30 15 -30 39z" />
<glyph unicode="&#xad;" horiz-adv-x="869" d="M31 444q0 19 6 34t15.5 26t20.5 17t20 6q23 1 47 1h47q84 0 166 -5.5t165 -5.5q101 0 203 12q8 1 14.5 1.5t12.5 0.5q48 0 66.5 -22t18.5 -66q0 -33 -9 -62.5t-26.5 -51.5t-43 -35.5t-57.5 -16.5q-33 -3 -69 -3q-50 0 -105.5 4.5t-111.5 13t-110 20t-101 25t-84 29 t-59 31.5q-26 17 -26 47z" />
<glyph unicode="&#xae;" horiz-adv-x="943" d="M55 1083q0 82 31 155.5t85 128t125.5 86.5t152.5 32q80 0 151.5 -31.5t125 -86.5t85 -128t31.5 -156q0 -82 -31.5 -154.5t-85 -127t-125 -86.5t-151.5 -32q-81 0 -153 32t-125.5 86.5t-84.5 127.5t-31 154zM108 1083q0 -69 27 -131.5t73.5 -110t108.5 -75.5t132 -28 q68 0 129.5 27t108 74t74 109.5t27.5 134.5q0 73 -27.5 136t-74 109.5t-108 73.5t-129.5 27q-70 0 -132 -28t-108.5 -75.5t-73.5 -110t-27 -132.5zM286 866v451h152q186 0 186 -130q0 -46 -28 -76.5t-79 -39.5q24 -7 73 -85l72 -120h-91l-69 112q-17 27 -28.5 43t-22 24 t-21.5 10.5t-26 2.5h-35v-192h-83zM369 1112h65q58 0 81.5 17t23.5 57q0 42 -23.5 58.5t-81.5 16.5h-65v-149z" />
<glyph unicode="&#xb0;" horiz-adv-x="471" d="M21 974q0 50 24 95.5t61.5 80.5t83 56t88.5 21q30 0 60 -10t53.5 -29.5t38.5 -47.5t15 -65q0 -56 -17 -105.5t-49 -86.5t-77.5 -58t-103.5 -21q-37 0 -69.5 14t-56.5 38t-37.5 54.5t-13.5 63.5zM146 1004q0 -21 7 -36t19 -25t27 -14.5t31 -4.5q47 0 73.5 28t26.5 82 q0 15 -6 30.5t-18 27.5t-30.5 19.5t-43.5 7.5q-34 0 -60 -27t-26 -81v-7z" />
<glyph unicode="&#xb1;" horiz-adv-x="1017" d="M-52 292q0 21 15 41q6 8 60.5 15.5t150.5 13t231 9t302 3.5q66 0 109.5 -2t70.5 -5q53 -8 53 -102q0 -58 -39 -59q-41 -3 -80.5 -5t-90.5 -3.5t-120 -2t-169 -0.5t-163 0.5t-106 2t-73 4t-64 7.5q-43 4 -65 25.5t-22 57.5zM45 813q0 22 16 43q5 7 42.5 13t95 11t129.5 9 t146 6q20 90 30.5 147t21.5 89t27.5 44t48.5 12q44 0 65 -16.5t21 -45.5q0 -31 -4.5 -54t-4.5 -38q0 -8 0.5 -12.5t0.5 -11.5q0 -14 -3.5 -41.5t-10.5 -69.5h60q42 0 82 -0.5t73.5 -1.5t60 -2.5t43.5 -3.5q53 -8 53 -102q0 -58 -39 -59q-75 -4 -170 -7.5t-198 -4.5 q0 -9 -2.5 -34t-8.5 -58t-15 -69.5t-23 -67t-32 -50t-41 -19.5q-28 0 -45.5 11t-28.5 30t-18 45.5t-14 56.5q0 8 7 46.5t23 108.5q-88 1 -164 5t-136 10q-88 9 -88 81z" />
<glyph unicode="&#xb2;" horiz-adv-x="620" d="M147 656q0 29 27 73t96 107q54 49 111 93t114 92q17 14 33.5 31t29.5 37t21 43t8 50q0 31 -26 54t-72 23q-54 0 -90.5 -24.5t-62.5 -56.5q-14 -17 -25 -23.5t-21 -6.5q-11 0 -25 8t-14 31t12.5 49t32.5 51.5t46.5 47t54.5 35.5q78 38 151 38q39 0 72.5 -15.5t58 -42 t38 -62t13.5 -75.5q0 -66 -25 -119t-62 -84q-47 -39 -95 -79t-88 -74.5t-65 -61t-25 -39.5q0 -6 1 -9t11.5 -4.5t36 -1.5h75.5q40 1 63 2.5t35.5 3t17 3.5t7.5 3.5t8 2.5t18 1q20 0 31 -10t11 -29q0 -18 -10 -37t-21 -37q-33 -49 -122 -49q-78 0 -158 2.5t-158 2.5h-21 t-22.5 5t-18 16.5t-7.5 34.5z" />
<glyph unicode="&#xb3;" horiz-adv-x="527" d="M138 572q0 18 9.5 30.5t28.5 17.5q51 13 98 31.5t84.5 48.5t62.5 73.5t34 106.5q1 5 1 14q0 20 -11.5 33.5t-30 23.5t-43 16.5t-49.5 11.5q-19 4 -30.5 16.5t-11.5 29.5q0 25 19 45t45.5 37t55 32t47.5 30q9 7 9 14q0 13 -19 13q-52 0 -103 1t-102 11q-16 3 -26.5 22 t-10.5 53q0 24 18 39t69 15q46 0 92 1t92 1q52 0 83 -3.5t47.5 -13t22 -26t5.5 -41.5q-2 -36 -12.5 -61t-27 -43.5t-37 -32.5t-41.5 -28q-7 -4 -7 -8t7 -7q127 -61 127 -129v-6q-55 -222 -168 -302q-112 -79 -281 -106q-4 -1 -10 -1q-36 0 -36 41z" />
<glyph unicode="&#xb4;" horiz-adv-x="462" d="M8 898q0 8 6 16t15 10q53 13 92.5 36.5t70 53.5t55.5 65.5t49 73.5q9 14 29 14q13 0 30 -4.5t32.5 -11t28.5 -13.5t19 -11q7 -5 10 -14t3 -20q0 -28 -14 -45q-107 -134 -311 -183q-13 -4 -30 -4q-7 0 -21 2.5t-28.5 7t-25 11.5t-10.5 16z" />
<glyph unicode="&#xb5;" horiz-adv-x="1055" d="M36 -547q0 34 6 76q12 87 23 179t22 180.5t23.5 169.5t26.5 148q14 69 21.5 114t7.5 69q0 28 -15 28q-6 0 -15.5 -6.5t-21 -15t-22 -15t-17.5 -6.5q-5 0 -11.5 6t-12.5 19.5t-10 36t-4 56.5q0 65 30.5 131t96.5 113l9 6q4 4 8.5 8t9.5 9q78 15 125 15q41 0 65.5 -14.5 t38 -35.5t17.5 -45t4 -43q0 -27 -8 -61.5t-17.5 -69t-17.5 -65t-8 -50.5q0 -22 8.5 -29.5t15.5 -7.5q25 0 59 48q55 78 109 163t114 163q14 18 28.5 28t33.5 10q16 0 40.5 -12.5t47 -33.5t39 -48.5t16.5 -58.5q0 -37 -10 -81.5t-20 -86.5q-20 -83 -20 -127q0 -55 30 -55 q9 0 22.5 7.5t28.5 16t29.5 16t24.5 7.5q15 0 25.5 -13t10.5 -33q0 -31 -30 -73q-55 -76 -110 -112t-116 -36q-27 0 -55 8.5t-50.5 26.5t-36.5 46.5t-14 68.5q0 62 29 148q6 18 8.5 31.5t2.5 22.5q0 14 -7 14q-17 0 -52 -59q-92 -219 -159 -273q-23 -11 -49 -11 q-42 0 -81 36q-7 -88 -14 -159.5t-14.5 -131.5t-15.5 -111t-17 -99t-18.5 -95.5t-19.5 -100.5q-11 -51 -25.5 -71t-36.5 -20q-19 0 -38 6.5t-34 23t-24 43t-9 67.5z" />
<glyph unicode="&#xb6;" horiz-adv-x="1172" d="M142 1071q0 95 30.5 172.5t87 133t135.5 86t175 30.5h403v-1690h-127v1567h-171v-1567h-128v846q-97 8 -172.5 40.5t-127 86.5t-78.5 128.5t-27 166.5z" />
<glyph unicode="&#xb7;" horiz-adv-x="342" d="M97 543q0 20 3 44q3 33 14 61.5t27.5 50.5t38 34.5t47.5 12.5q92 0 92 -157q0 -88 -29 -129.5t-91 -41.5q-51 0 -76.5 32.5t-25.5 92.5z" />
<glyph unicode="&#xb8;" horiz-adv-x="389" d="M29 -222q0 12 10 24t26.5 21t37 14.5t41.5 5.5q64 0 64 50q0 33 -49 33q-9 0 -20.5 -1t-21.5 -1q-71 0 -71 63q0 18 6.5 39.5t16.5 41t22 36t23 25.5q23 20 70 20q20 0 32.5 -9t12.5 -26q0 -13 -12.5 -25t-27.5 -23.5t-27.5 -22.5t-12.5 -22q0 -20 20.5 -32t42.5 -12 q13 0 28.5 3t29.5 3q20 0 36 -7t27 -17.5t17 -24.5t6 -27q0 -23 -16 -47.5t-39 -45.5t-48.5 -37t-44.5 -23q-23 -9 -54 -19t-60 -10q-7 0 -18 3.5t-21.5 10.5t-18 17t-7.5 22z" />
<glyph unicode="&#xb9;" horiz-adv-x="379" d="M135 1251q0 22 27 44.5t66.5 40.5t84.5 29t80 11q34 0 57.5 -13t23.5 -47v-10q-7 -93 -22.5 -181t-34 -174.5t-38.5 -172t-36 -172.5q-10 -47 -30.5 -62t-46.5 -15q-54 0 -54 63q0 6 0.5 12.5t1.5 14.5q19 142 41.5 280t49.5 275q1 4 1 11q0 21 -21 21q-11 0 -33 -8 q-32 -12 -54 -12q-23 0 -43 16.5t-20 48.5z" />
<glyph unicode="&#xba;" horiz-adv-x="763" d="M161 1026q0 62 29 121t75 105.5t102.5 74.5t112.5 28q37 0 75 -13t68.5 -38t49.5 -62t19 -85q0 -73 -21 -137.5t-61 -112.5t-98 -75.5t-131 -27.5q-46 0 -86 18.5t-70 49.5t-47 71t-17 83zM317 1065q1 -29 10.5 -48.5t24.5 -32t34 -18t39 -5.5q57 0 90 36t33 105 q0 20 -7.5 40t-23 36t-38.5 26t-54 10q-22 0 -41.5 -9.5t-34.5 -28.5t-23.5 -46.5t-8.5 -64.5z" />
<glyph unicode="&#xbb;" horiz-adv-x="765" d="M30 157q0 22 22 50.5t52 59.5t61 62.5t49 59.5q8 12 8 29q0 13 -6 28q-24 51 -50.5 101t-54.5 101q-13 23 -13 39t11 30t26 14q17 0 38.5 -15t42.5 -37.5t39.5 -47.5t30.5 -44q23 -37 48 -74t54 -75q17 -23 17 -44q0 -20 -13 -36q-48 -61 -98 -113.5t-101 -109.5 q-33 -38 -75 -38q-16 0 -32 5t-28.5 13t-20 19t-7.5 23zM359 157q0 22 22 50.5t52 59.5t61 62.5t49 59.5q8 12 8 29q0 13 -6 28q-24 51 -50.5 101t-54.5 101q-13 23 -13 39t11 30t26 14q16 0 37.5 -15t42.5 -37.5t40 -47.5t31 -44q23 -37 48 -74t54 -75q17 -23 17 -44 q0 -20 -13 -36q-48 -61 -98 -113.5t-101 -109.5q-35 -38 -76 -38q-15 0 -30.5 4.5t-28 12.5t-20.5 19t-8 24z" />
<glyph unicode="&#xbc;" horiz-adv-x="1115" d="M76 1243q0 22 27 44.5t66.5 40.5t84.5 29t80 11q34 0 57.5 -13t23.5 -47v-10q-7 -93 -22.5 -181t-34 -174.5t-38.5 -172t-36 -172.5q-10 -47 -30.5 -62t-46.5 -15q-54 0 -54 63q0 6 0.5 12.5t1.5 14.5q19 142 41.5 280t49.5 275q1 4 1 11q0 21 -21 21q-11 0 -33 -8 q-32 -12 -54 -12q-23 0 -43 16.5t-20 48.5zM204 118q0 21 12 50q58 145 114.5 290.5t114 290t119.5 287.5t131 283q16 32 57 32q48 0 76.5 -27.5t28.5 -67.5q0 -32 -9.5 -67.5t-20.5 -64.5q-52 -135 -113.5 -266t-126.5 -260t-130.5 -258t-125.5 -260q-10 -22 -19 -30 t-20 -8q-20 0 -36 7t-27.5 18t-18 24.5t-6.5 26.5zM505 261q0 26 16 49q88 133 187.5 257t202.5 247q9 12 26 12q18 0 33 -9t25 -22.5t15.5 -29.5t5.5 -29q0 -5 -0.5 -10t-1.5 -10q-17 -100 -37.5 -196.5t-41.5 -193.5q5 0 19 0.5t25 0.5q20 0 29.5 -3t13 -8t3 -10.5 t-0.5 -11.5q0 -31 -10.5 -49t-27 -27t-37 -12t-41.5 -4q-9 -42 -18 -82.5t-17 -82.5q-6 -32 -19.5 -43t-30.5 -11q-35 0 -53 17t-18 43q0 35 9 72.5t16 72.5q-26 -2 -51.5 -3t-50.5 -1q-27 0 -56.5 1t-55 7.5t-42 22.5t-16.5 46zM670 330q0 -11 23 -10q27 0 54 1t54 1 q11 60 22 120.5t22 120.5q-48 -54 -91 -108.5t-80 -112.5q-4 -7 -4 -12z" />
<glyph unicode="&#xbd;" horiz-adv-x="1201" d="M76 1243q0 22 27 44.5t66.5 40.5t84.5 29t80 11q34 0 57.5 -13t23.5 -47v-10q-7 -93 -22.5 -181t-34 -174.5t-38.5 -172t-36 -172.5q-10 -47 -30.5 -62t-46.5 -15q-54 0 -54 63q0 6 0.5 12.5t1.5 14.5q19 142 41.5 280t49.5 275q1 4 1 11q0 21 -21 21q-11 0 -33 -8 q-32 -12 -54 -12q-23 0 -43 16.5t-20 48.5zM204 118q0 21 12 50q58 145 114.5 290.5t114 290t119.5 287.5t131 283q16 32 57 32q48 0 76.5 -27.5t28.5 -67.5q0 -32 -9.5 -67.5t-20.5 -64.5q-52 -135 -113.5 -266t-126.5 -260t-130.5 -258t-125.5 -260q-10 -22 -19 -30 t-20 -8q-20 0 -36 7t-27.5 18t-18 24.5t-6.5 26.5zM548 63q0 29 27 73t96 107q54 49 111 93t114 92q17 14 33.5 31t29.5 37t21 43t8 50q0 31 -26 54t-72 23q-54 0 -90.5 -24.5t-62.5 -56.5q-14 -17 -25 -23.5t-21 -6.5q-11 0 -25 8t-14 31t12.5 49t32.5 51.5t46.5 47 t54.5 35.5q78 38 151 38q39 0 72.5 -15.5t58 -42t38 -62t13.5 -75.5q0 -66 -25 -119t-62 -84q-47 -39 -95 -79t-88 -74.5t-65 -61t-25 -39.5q0 -6 1 -9t11.5 -4.5t36 -1.5h75.5q40 1 63 2.5t35.5 3t17 3.5t7.5 3.5t8 2.5t18 1q20 0 31 -10t11 -29q0 -18 -10 -37t-21 -37 q-33 -49 -122 -49q-78 0 -158 2.5t-158 2.5h-21t-22.5 5t-18 16.5t-7.5 34.5z" />
<glyph unicode="&#xbe;" horiz-adv-x="1205" d="M57 604q0 18 9.5 30.5t28.5 17.5q51 13 98 31.5t84.5 48.5t62.5 73.5t34 106.5q1 5 1 14q0 20 -11.5 33.5t-30 23.5t-43 16.5t-49.5 11.5q-19 4 -30.5 16.5t-11.5 29.5q0 25 19 45t45.5 37t55 32t47.5 30q9 7 9 14q0 13 -19 13q-52 0 -103 1t-102 11q-16 3 -26.5 22 t-10.5 53q0 24 18 39t69 15q46 0 92 1t92 1q52 0 83 -3.5t47.5 -13t22 -26t5.5 -41.5q-2 -36 -12.5 -61t-27 -43.5t-37 -32.5t-41.5 -28q-7 -4 -7 -8t7 -7q108 -53 108 -159q0 -85 -34.5 -150.5t-93.5 -112.5t-137 -77t-165 -44q-4 -1 -10 -1q-36 0 -36 41zM323 118 q0 21 12 50q58 145 114.5 290.5t114 290t119.5 287.5t131 283q16 32 57 32q48 0 76.5 -27.5t28.5 -67.5q0 -32 -9.5 -67.5t-20.5 -64.5q-52 -135 -113.5 -266t-126.5 -260t-130.5 -258t-125.5 -260q-10 -22 -19 -30t-20 -8q-20 0 -36 7t-27.5 18t-18 24.5t-6.5 26.5z M624 261q0 26 16 49q88 133 187.5 257t202.5 247q9 12 26 12q18 0 33 -9t25 -22.5t15.5 -29.5t5.5 -29q0 -5 -0.5 -10t-1.5 -10q-17 -100 -37.5 -196.5t-41.5 -193.5q5 0 19 0.5t25 0.5q20 0 29.5 -3t13 -8t3 -10.5t-0.5 -11.5q0 -31 -10.5 -49t-27 -27t-37 -12t-41.5 -4 q-9 -42 -18 -82.5t-17 -82.5q-6 -32 -19.5 -43t-30.5 -11q-35 0 -53 17t-18 43q0 35 9 72.5t16 72.5q-26 -2 -51.5 -3t-50.5 -1q-27 0 -56.5 1t-55 7.5t-42 22.5t-16.5 46zM789 330q0 -11 23 -10q27 0 54 1t54 1q11 60 22 120.5t22 120.5q-48 -54 -91 -108.5t-80 -112.5 q-4 -7 -4 -12z" />
<glyph unicode="&#xbf;" horiz-adv-x="885" d="M12 -89q0 63 13 114t36.5 92t55 73t68.5 57q174 119 233 330q36 125 105 125q45 0 74 -31.5t29 -80.5q0 -55 -37 -136q-15 -33 -36.5 -62t-48.5 -56t-57.5 -52.5t-62.5 -50.5q-32 -26 -61 -56.5t-50.5 -64.5t-34.5 -69.5t-13 -69.5q0 -103 188 -139q31 -6 62 -6 q85 0 161 38t145 102q25 24 46 24q14 0 22.5 -11t8.5 -28q0 -21 -14 -57q-27 -68 -72 -126t-103 -101.5t-126.5 -68t-142.5 -24.5q-23 0 -47.5 2.5t-49.5 7.5q-75 15 -129.5 44.5t-90.5 71.5t-53.5 95t-17.5 114zM491 950q0 40 11 75t30 64t43.5 50.5t51.5 34.5q7 3 15 3 q15 0 31 -11.5t29.5 -33t24 -51.5t14.5 -66q1 -5 1 -9.5v-9.5q0 -32 -12.5 -59t-33.5 -47.5t-48 -32t-56 -11.5q-32 2 -51.5 10t-30.5 21t-15 31.5t-4 41.5z" />
<glyph unicode="&#xc0;" horiz-adv-x="1258" d="M10 170q0 96 49 136q29 25 51 55t41 63t38 66.5t42 65.5q7 9 30.5 51t58.5 105t77.5 141t86 159.5t85.5 159.5t75.5 140.5t56 104t26.5 49.5q12 23 27 44.5t33 38.5t39.5 27t46.5 10q37 0 59.5 -10.5t34.5 -27t17 -37t7 -39.5q33 -286 76 -570.5t86 -569.5q5 -32 31 -51 q55 -41 55 -109q-2 -21 -6.5 -41.5t-14 -37.5t-24 -29t-35.5 -16q-90 -18 -182 -18q-69 0 -137 7.5t-134 18.5q-19 3 -37 30t-18 77q0 31 22 53.5t55 39.5t71.5 31t71.5 28q24 10 24 29q-4 45 -8 89t-7 89q-98 -6 -198 -6q-60 0 -119.5 1.5t-120.5 6.5q-13 -24 -27 -51 t-26 -52t-19.5 -46t-7.5 -34q0 -43 66 -43q106 -1 106 -91q0 -66 -35 -105.5t-98 -51.5q-45 -8 -88.5 -14t-87.5 -6q-28 0 -63 3t-66 11.5t-54 24.5t-27 42q-2 16 -3.5 30.5t-1.5 28.5zM544 722h316q-10 91 -22 179t-31 179q-2 11 -11.5 20t-20.5 9q-14 0 -27 -23 q-55 -93 -105.5 -183.5t-98.5 -180.5zM589 1838q0 14 4.5 27.5t13.5 21.5q6 4 17.5 10.5t26 13t29 11t25.5 4.5q17 0 23 -14q14 -38 30 -73.5t37.5 -66t51.5 -53.5t73 -36q6 -2 10 -9t4 -14q0 -10 -10.5 -17.5t-24.5 -12.5t-27 -7.5t-17 -2.5q-14 0 -23 4q-165 49 -236 183 q-7 11 -7 31z" />
<glyph unicode="&#xc1;" horiz-adv-x="1262" d="M5 170q0 96 49 136q29 25 51 55t41 63t38 66.5t42 65.5q7 9 30.5 51t58.5 105t77.5 141t86 159.5t85.5 159.5t75.5 140.5t56 104t26.5 49.5q12 23 27 44.5t33 38.5t39.5 27t46.5 10q37 0 59.5 -10.5t34.5 -27t17 -37t7 -39.5q33 -286 76 -570.5t86 -569.5q5 -32 31 -51 q55 -41 55 -109q-2 -21 -6.5 -41.5t-14 -37.5t-24 -29t-35.5 -16q-90 -18 -182 -18q-69 0 -137 7.5t-134 18.5q-19 3 -37 30t-18 77q0 31 22 53.5t55 39.5t71.5 31t71.5 28q24 10 24 29q-4 45 -8 89t-7 89q-98 -6 -198 -6q-60 0 -119.5 1.5t-120.5 6.5q-13 -24 -27 -51 t-26 -52t-19.5 -46t-7.5 -34q0 -43 66 -43q106 -1 106 -91q0 -66 -35 -105.5t-98 -51.5q-45 -8 -88.5 -14t-87.5 -6q-28 0 -63 3t-66 11.5t-54 24.5t-27 42q-2 16 -3.5 30.5t-1.5 28.5zM539 722h316q-10 91 -22 179t-31 179q-2 11 -11.5 20t-20.5 9q-14 0 -27 -23 q-55 -93 -105.5 -183.5t-98.5 -180.5zM773 1646q0 8 6 16t15 10q53 13 92.5 36.5t70 53.5t55.5 65.5t49 73.5q9 14 29 14q13 0 30 -4.5t32.5 -11t28.5 -13.5t19 -11q7 -5 10 -14t3 -20q0 -28 -14 -45q-107 -134 -311 -183q-13 -4 -30 -4q-7 0 -21 2.5t-28.5 7t-25 11.5 t-10.5 16z" />
<glyph unicode="&#xc2;" horiz-adv-x="1264" d="M9 170q0 96 49 136q29 25 51 55t41 63t38 66.5t42 65.5q7 9 30.5 51t58.5 105t77.5 141t86 159.5t85.5 159.5t75.5 140.5t56 104t26.5 49.5q12 23 27 44.5t33 38.5t39.5 27t46.5 10q37 0 59.5 -10.5t34.5 -27t17 -37t7 -39.5q33 -286 76 -570.5t86 -569.5q5 -32 31 -51 q55 -41 55 -109q-2 -21 -6.5 -41.5t-14 -37.5t-24 -29t-35.5 -16q-90 -18 -182 -18q-69 0 -137 7.5t-134 18.5q-19 3 -37 30t-18 77q0 31 22 53.5t55 39.5t71.5 31t71.5 28q24 10 24 29q-4 45 -8 89t-7 89q-98 -6 -198 -6q-60 0 -119.5 1.5t-120.5 6.5q-13 -24 -27 -51 t-26 -52t-19.5 -46t-7.5 -34q0 -43 66 -43q106 -1 106 -91q0 -66 -35 -105.5t-98 -51.5q-45 -8 -88.5 -14t-87.5 -6q-28 0 -63 3t-66 11.5t-54 24.5t-27 42q-2 16 -3.5 30.5t-1.5 28.5zM543 722h316q-10 91 -22 179t-31 179q-2 11 -11.5 20t-20.5 9q-14 0 -27 -23 q-55 -93 -105.5 -183.5t-98.5 -180.5zM606 1641q0 9 6.5 19t16.5 19.5t21.5 17.5t20.5 14q30 19 54 39t46 40t43.5 41t46.5 42q16 15 44 15q29 0 49.5 -10.5t36.5 -27.5t27.5 -37.5t22.5 -40.5q28 -51 95 -94q20 -13 20 -30q0 -12 -12 -26t-28.5 -26t-34 -21.5t-27.5 -13.5 q-51 27 -84 87t-71 60q-35 0 -79 -56q-12 -15 -26.5 -29.5t-29.5 -25.5t-30 -18t-29 -7q-19 0 -37 8.5t-31.5 19.5t-22 23t-8.5 18z" />
<glyph unicode="&#xc3;" horiz-adv-x="1267" d="M9 170q0 96 49 136q29 25 51 55t41 63t38 66.5t42 65.5q7 9 30.5 51t58.5 105t77.5 141t86 159.5t85.5 159.5t75.5 140.5t56 104t26.5 49.5q12 23 27 44.5t33 38.5t39.5 27t46.5 10q37 0 59.5 -10.5t34.5 -27t17 -37t7 -39.5q33 -286 76 -570.5t86 -569.5q5 -32 31 -51 q55 -41 55 -109q-2 -21 -6.5 -41.5t-14 -37.5t-24 -29t-35.5 -16q-90 -18 -182 -18q-69 0 -137 7.5t-134 18.5q-19 3 -37 30t-18 77q0 31 22 53.5t55 39.5t71.5 31t71.5 28q24 10 24 29q-4 45 -8 89t-7 89q-98 -6 -198 -6q-60 0 -119.5 1.5t-120.5 6.5q-13 -24 -27 -51 t-26 -52t-19.5 -46t-7.5 -34q0 -43 66 -43q106 -1 106 -91q0 -66 -35 -105.5t-98 -51.5q-45 -8 -88.5 -14t-87.5 -6q-28 0 -63 3t-66 11.5t-54 24.5t-27 42q-2 16 -3.5 30.5t-1.5 28.5zM543 722h316q-10 91 -22 179t-31 179q-2 11 -11.5 20t-20.5 9q-14 0 -27 -23 q-55 -93 -105.5 -183.5t-98.5 -180.5zM602 1706q0 17 13.5 33t27.5 27q23 18 48.5 40.5t52.5 42t55 33t56 13.5q29 0 55.5 -16.5t52.5 -51.5q22 -30 49 -49.5t51 -19.5q13 0 23.5 15t20.5 33.5t21.5 33.5t27.5 15q35 0 58.5 -15t23.5 -56q0 -36 -20.5 -70t-51 -60t-65.5 -42 t-64 -16q-88 0 -121 60q-38 68 -72 68q-35 0 -73 -50q-43 -55 -102 -55q-14 0 -26 9.5t-21 23t-14.5 28.5t-5.5 26z" />
<glyph unicode="&#xc4;" horiz-adv-x="1270" d="M10 170q0 96 49 136q29 25 51 55t41 63t38 66.5t42 65.5q7 9 30.5 51t58.5 105t77.5 141t86 159.5t85.5 159.5t75.5 140.5t56 104t26.5 49.5q12 23 27 44.5t33 38.5t39.5 27t46.5 10q37 0 59.5 -10.5t34.5 -27t17 -37t7 -39.5q33 -286 76 -570.5t86 -569.5q5 -32 31 -51 q55 -41 55 -109q-2 -21 -6.5 -41.5t-14 -37.5t-24 -29t-35.5 -16q-90 -18 -182 -18q-69 0 -137 7.5t-134 18.5q-19 3 -37 30t-18 77q0 31 22 53.5t55 39.5t71.5 31t71.5 28q24 10 24 29q-4 45 -8 89t-7 89q-98 -6 -198 -6q-60 0 -119.5 1.5t-120.5 6.5q-13 -24 -27 -51 t-26 -52t-19.5 -46t-7.5 -34q0 -43 66 -43q106 -1 106 -91q0 -66 -35 -105.5t-98 -51.5q-45 -8 -88.5 -14t-87.5 -6q-28 0 -63 3t-66 11.5t-54 24.5t-27 42q-2 16 -3.5 30.5t-1.5 28.5zM544 722h316q-10 91 -22 179t-31 179q-2 11 -11.5 20t-20.5 9q-14 0 -27 -23 q-55 -93 -105.5 -183.5t-98.5 -180.5zM636 1792q0 175 103 180q30 0 51.5 -15t36 -38.5t21.5 -53t7 -58.5q-2 -82 -30.5 -121t-83.5 -39q-105 0 -105 145zM977 1764q0 101 31.5 152t84.5 53q28 0 48 -12.5t33 -33t19 -47t6 -53.5q0 -89 -36.5 -134t-89.5 -45q-96 0 -96 120z " />
<glyph unicode="&#xc5;" horiz-adv-x="1260" d="M8 151q0 84 49 118q29 22 50.5 48.5t40.5 55t38 57.5t42 57q6 7 29.5 43t57.5 90.5t76.5 122.5t86 138.5t85.5 138.5t75.5 123t56 91.5t27.5 44.5q13 21 27.5 40t32.5 33.5t39 23t47 8.5q37 0 59.5 -9.5t34.5 -24t17 -32t7 -33.5q32 -249 75 -497l86 -496q5 -28 31 -44 q29 -18 42 -42t13 -53q-3 -37 -21 -69t-59 -39q-90 -15 -182 -15q-69 0 -136 6.5t-134 15.5q-18 2 -36 25.5t-18 67.5q0 28 22.5 47.5t55.5 34.5t71 26.5t70 23.5q24 9 24 26q-4 38 -8 76.5t-7 77.5q-50 -2 -100 -3.5t-101 -1.5q-58 0 -117 1.5t-119 5.5q-13 -21 -27 -44.5 t-25.5 -46t-19 -41t-7.5 -28.5q0 -37 65 -37q106 -1 106 -79q0 -58 -35 -91.5t-98 -44.5q-45 -8 -88.5 -12.5t-87.5 -4.5q-28 0 -62.5 2.5t-65.5 10t-53.5 21t-26.5 36.5q-2 14 -3.5 26.5t-1.5 24.5zM540 632h315q-10 78 -22 155.5t-31 155.5q-3 11 -11.5 18.5t-18.5 7.5 q-16 0 -29 -20q-54 -81 -104.5 -160t-98.5 -157zM682 1466q0 50 24 95.5t61.5 80.5t83 56t88.5 21q30 0 60 -10t53.5 -29.5t38.5 -47.5t15 -65q0 -56 -17 -105.5t-49 -86.5t-77.5 -58t-103.5 -21q-37 0 -69.5 14t-56.5 38t-37.5 54.5t-13.5 63.5zM807 1496q0 -21 7 -36 t19 -25t27 -14.5t31 -4.5q47 0 73.5 28t26.5 82q0 15 -6 30.5t-18 27.5t-30.5 19.5t-43.5 7.5q-34 0 -60 -27t-26 -81v-7z" />
<glyph unicode="&#xc6;" horiz-adv-x="2009" d="M11 79q0 70 19.5 119.5t54.5 75.5q32 24 62 60t58.5 75.5t56.5 78.5t55 69q5 5 33 45t71 101.5t96 137t107 152.5t105 147.5t89 122.5q34 45 56.5 77t38 54t26 36.5t19.5 25.5t19.5 21.5t25.5 24.5q40 36 88 39q84 5 174 9t189 6l321 9q68 0 108 -8.5t61 -30t27 -58 t6 -92.5q0 -39 -3.5 -83.5t-10 -89t-15.5 -85.5t-20 -72.5t-24 -50.5t-27 -19q-21 0 -40.5 8.5t-34 22.5t-23 31.5t-8.5 36.5q0 24 6 52t6 50q0 47 -15.5 71.5t-59.5 35.5t-123.5 12.5t-207.5 1.5l-84 -352q25 -3 50 -3q56 0 96 16t63 66q6 13 11.5 25t14.5 22t21.5 16 t32.5 6q55 0 83 -19t28 -51q0 -10 -2 -20t-6 -22q-30 -88 -53 -177t-39 -168q-5 -26 -15.5 -51.5t-25 -45t-33 -31.5t-40.5 -12q-35 0 -51.5 24t-16.5 62q0 14 2.5 28.5t2.5 28.5q0 74 -89 74q-23 0 -45 -2.5t-45 -3.5l-103 -436q55 -4 107.5 -6.5t103.5 -2.5q68 0 92 7 q45 1 78.5 16.5t59 42t44.5 62t36 76.5q21 52 49 84.5t60 32.5q23 0 36 -25t13 -60v-11t-1 -12q-6 -53 -12 -95.5t-12.5 -82.5t-15.5 -81t-22 -92q-9 -34 -24.5 -56t-41.5 -35t-64 -18t-92 -5h-9q-26 -1 -51 -1.5t-50 -0.5q-179 0 -285 10.5t-142 10.5q-21 0 -48.5 -3 t-55.5 -3t-52.5 6t-42.5 21t-28 40.5t-10 63.5q0 29 12 54.5t32 45t46.5 31t56.5 11.5q16 55 31.5 110t30.5 112q-89 -3 -170 -3q-147 0 -270 9q-26 -40 -49.5 -75t-41.5 -64t-28.5 -50.5t-10.5 -33.5q0 -36 60 -36q92 -2 92 -71q0 -65 -33.5 -104t-84.5 -59.5t-110 -27 t-110 -6.5q-28 0 -62 3t-64 11.5t-50 24.5t-20 42zM656 723h356l15 66q29 126 50 232t39 195q22 50 22 72q0 12 -8 12q-39 0 -230 -239q-61 -80 -121.5 -164t-122.5 -174z" />
<glyph unicode="&#xc7;" horiz-adv-x="1215" d="M55 642q0 109 15.5 213.5t44 199.5t70 178.5t94.5 149.5q81 103 187.5 155t239.5 52q53 0 96 -12t76.5 -32t59 -46t43.5 -54q11 -20 21 -20q9 0 15 20q28 103 99 103q23 0 36 -9.5t19.5 -25t8.5 -35t4 -39.5q3 -45 3 -91q0 -38 -3.5 -89.5t-10.5 -106.5t-17.5 -108.5 t-23.5 -96t-29.5 -69t-35.5 -26.5q-23 0 -37 10.5t-22.5 26t-12.5 33.5t-5 33q-14 86 -44.5 149.5t-75 105t-100.5 62t-121 20.5q-81 0 -150.5 -47.5t-121 -129.5t-80.5 -190.5t-29 -231.5q0 -84 16.5 -155t50 -122t86 -79.5t124.5 -28.5q52 0 103 21.5t101 58.5t98 87.5 t95 109.5q26 32 54 32q14 0 26.5 -6.5t22 -17.5t15 -25t5.5 -29q0 -21 -9 -46q-40 -112 -96.5 -201t-125 -151t-147 -95t-160.5 -33q-102 0 -188.5 43.5t-149.5 124.5t-98.5 197.5t-35.5 262.5zM425 -290q0 12 10 24t26.5 21t37 14.5t41.5 5.5q64 0 64 50q0 33 -49 33 q-9 0 -20.5 -1t-21.5 -1q-71 0 -71 63q0 18 6.5 39.5t16.5 41t22 36t23 25.5q23 20 70 20q20 0 32.5 -9t12.5 -26q0 -13 -12.5 -24.5t-27.5 -23t-27.5 -22.5t-12.5 -22q0 -21 20.5 -33t42.5 -12q13 0 28.5 3t29.5 3q20 0 36 -7t27 -17.5t17 -24.5t6 -27q0 -23 -16 -47.5 t-39 -45.5t-48.5 -37t-44.5 -23q-23 -9 -54 -19t-60 -10q-7 0 -18 3.5t-21.5 10.5t-18 17t-7.5 22z" />
<glyph unicode="&#xc8;" horiz-adv-x="1338" d="M14 155q0 29 12 54.5t32 45t46.5 31t56.5 11.5q72 244 126.5 492t85.5 505q-35 3 -71 14t-65.5 28.5t-48 40t-18.5 47.5q0 57 37.5 87.5t104.5 35.5h11q196 4 391 9t392 10h9q68 0 108 -8.5t61 -30t27 -58t6 -92.5q0 -39 -3.5 -83.5t-10 -89t-15.5 -85.5t-20 -72.5 t-24 -50.5t-27 -19q-21 0 -40.5 8.5t-34 22.5t-23 31.5t-8.5 36.5q0 24 6 52t6 50q0 52 -24.5 82t-92.5 32q-94 2 -185 4t-184 2l-84 -352q25 -3 50 -3q56 0 96 16t63 66q6 13 11.5 25t14.5 22t21.5 16t32.5 6q55 0 83 -19t28 -51q0 -10 -2 -20t-6 -22q-30 -88 -53 -177 t-39 -168q-5 -26 -15.5 -51.5t-25 -45t-33 -31.5t-40.5 -12q-35 0 -51.5 24t-16.5 62q0 14 2.5 28.5t2.5 28.5q0 74 -89 74q-23 0 -45 -2.5t-45 -3.5l-103 -436q69 -5 134 -7.5t137 -2.5q37 0 73 0.5t67.5 5.5t58.5 17.5t47 36.5q23 27 44 62t38 77q21 52 49.5 84.5 t59.5 32.5q23 0 36 -25t13 -60v-11t-1 -12q-6 -53 -12 -95.5t-12.5 -82.5t-15.5 -81t-22 -92q-9 -34 -24.5 -56t-41.5 -35t-64 -18t-92 -5h-9q-102 1 -178.5 3t-135.5 5t-102 6t-76 5.5t-60.5 4t-53.5 1.5q-21 0 -48.5 -3t-55.5 -3t-52.5 6t-42.5 21t-28 40.5t-10 63.5z M569 1820q0 14 4.5 27.5t13.5 21.5q6 4 17.5 10.5t26 13t29 11t25.5 4.5q17 0 23 -14q14 -38 30 -73.5t37.5 -66t51.5 -53.5t73 -36q6 -2 10 -9t4 -14q0 -10 -10.5 -17.5t-24.5 -12.5t-27 -7.5t-17 -2.5q-14 0 -23 4q-165 49 -236 183q-7 11 -7 31z" />
<glyph unicode="&#xc9;" horiz-adv-x="1341" d="M11 155q0 29 12 54.5t32 45t46.5 31t56.5 11.5q72 244 126.5 492t85.5 505q-35 3 -71 14t-65.5 28.5t-48 40t-18.5 47.5q0 57 37.5 87.5t104.5 35.5h11q196 4 391 9t392 10h9q68 0 108 -8.5t61 -30t27 -58t6 -92.5q0 -39 -3.5 -83.5t-10 -89t-15.5 -85.5t-20 -72.5 t-24 -50.5t-27 -19q-21 0 -40.5 8.5t-34 22.5t-23 31.5t-8.5 36.5q0 24 6 52t6 50q0 52 -24.5 82t-92.5 32q-94 2 -185 4t-184 2l-84 -352q25 -3 50 -3q56 0 96 16t63 66q6 13 11.5 25t14.5 22t21.5 16t32.5 6q55 0 83 -19t28 -51q0 -10 -2 -20t-6 -22q-30 -88 -53 -177 t-39 -168q-5 -26 -15.5 -51.5t-25 -45t-33 -31.5t-40.5 -12q-35 0 -51.5 24t-16.5 62q0 14 2.5 28.5t2.5 28.5q0 74 -89 74q-23 0 -45 -2.5t-45 -3.5l-103 -436q69 -5 134 -7.5t137 -2.5q37 0 73 0.5t67.5 5.5t58.5 17.5t47 36.5q23 27 44 62t38 77q21 52 49.5 84.5 t59.5 32.5q23 0 36 -25t13 -60v-11t-1 -12q-6 -53 -12 -95.5t-12.5 -82.5t-15.5 -81t-22 -92q-9 -34 -24.5 -56t-41.5 -35t-64 -18t-92 -5h-9q-102 1 -178.5 3t-135.5 5t-102 6t-76 5.5t-60.5 4t-53.5 1.5q-21 0 -48.5 -3t-55.5 -3t-52.5 6t-42.5 21t-28 40.5t-10 63.5z M775 1639q0 8 6 16t15 10q53 13 92.5 36.5t70 53.5t55.5 65.5t49 73.5q9 14 29 14q13 0 30 -4.5t32.5 -11t28.5 -13.5t19 -11q7 -5 10 -14t3 -20q0 -28 -14 -45q-107 -134 -311 -183q-13 -4 -30 -4q-7 0 -21 2.5t-28.5 7t-25 11.5t-10.5 16z" />
<glyph unicode="&#xca;" horiz-adv-x="1341" d="M13 155q0 29 12 54.5t32 45t46.5 31t56.5 11.5q72 244 126.5 492t85.5 505q-35 3 -71 14t-65.5 28.5t-48 40t-18.5 47.5q0 57 37.5 87.5t104.5 35.5h11q196 4 391 9t392 10h9q68 0 108 -8.5t61 -30t27 -58t6 -92.5q0 -39 -3.5 -83.5t-10 -89t-15.5 -85.5t-20 -72.5 t-24 -50.5t-27 -19q-21 0 -40.5 8.5t-34 22.5t-23 31.5t-8.5 36.5q0 24 6 52t6 50q0 52 -24.5 82t-92.5 32q-94 2 -185 4t-184 2l-84 -352q25 -3 50 -3q56 0 96 16t63 66q6 13 11.5 25t14.5 22t21.5 16t32.5 6q55 0 83 -19t28 -51q0 -10 -2 -20t-6 -22q-30 -88 -53 -177 t-39 -168q-5 -26 -15.5 -51.5t-25 -45t-33 -31.5t-40.5 -12q-35 0 -51.5 24t-16.5 62q0 14 2.5 28.5t2.5 28.5q0 74 -89 74q-23 0 -45 -2.5t-45 -3.5l-103 -436q69 -5 134 -7.5t137 -2.5q37 0 73 0.5t67.5 5.5t58.5 17.5t47 36.5q23 27 44 62t38 77q21 52 49.5 84.5 t59.5 32.5q23 0 36 -25t13 -60v-11t-1 -12q-6 -53 -12 -95.5t-12.5 -82.5t-15.5 -81t-22 -92q-9 -34 -24.5 -56t-41.5 -35t-64 -18t-92 -5h-9q-102 1 -178.5 3t-135.5 5t-102 6t-76 5.5t-60.5 4t-53.5 1.5q-21 0 -48.5 -3t-55.5 -3t-52.5 6t-42.5 21t-28 40.5t-10 63.5z M561 1692q0 9 6.5 19t16.5 19.5t21.5 17.5t20.5 14q30 19 54 39t46 40t43.5 41t46.5 42q16 15 44 15q29 0 49.5 -10.5t36.5 -27.5t27.5 -37.5t22.5 -40.5q28 -51 95 -94q20 -13 20 -30q0 -12 -12 -26t-28.5 -26t-34 -21.5t-27.5 -13.5q-51 27 -84 87t-71 60q-35 0 -79 -56 q-12 -15 -26.5 -29.5t-29.5 -25.5t-30 -18t-29 -7q-19 0 -37 8.5t-31.5 19.5t-22 23t-8.5 18z" />
<glyph unicode="&#xcb;" horiz-adv-x="1344" d="M15 155q0 29 12 54.5t32 45t46.5 31t56.5 11.5q72 244 126.5 492t85.5 505q-35 3 -71 14t-65.5 28.5t-48 40t-18.5 47.5q0 57 37.5 87.5t104.5 35.5h11q196 4 391 9t392 10h9q68 0 108 -8.5t61 -30t27 -58t6 -92.5q0 -39 -3.5 -83.5t-10 -89t-15.5 -85.5t-20 -72.5 t-24 -50.5t-27 -19q-21 0 -40.5 8.5t-34 22.5t-23 31.5t-8.5 36.5q0 24 6 52t6 50q0 52 -24.5 82t-92.5 32q-94 2 -185 4t-184 2l-84 -352q25 -3 50 -3q56 0 96 16t63 66q6 13 11.5 25t14.5 22t21.5 16t32.5 6q55 0 83 -19t28 -51q0 -10 -2 -20t-6 -22q-30 -88 -53 -177 t-39 -168q-5 -26 -15.5 -51.5t-25 -45t-33 -31.5t-40.5 -12q-35 0 -51.5 24t-16.5 62q0 14 2.5 28.5t2.5 28.5q0 74 -89 74q-23 0 -45 -2.5t-45 -3.5l-103 -436q69 -5 134 -7.5t137 -2.5q37 0 73 0.5t67.5 5.5t58.5 17.5t47 36.5q23 27 44 62t38 77q21 52 49.5 84.5 t59.5 32.5q23 0 36 -25t13 -60v-11t-1 -12q-6 -53 -12 -95.5t-12.5 -82.5t-15.5 -81t-22 -92q-9 -34 -24.5 -56t-41.5 -35t-64 -18t-92 -5h-9q-102 1 -178.5 3t-135.5 5t-102 6t-76.5 5.5t-60.5 4t-53 1.5q-21 0 -48.5 -3t-55.5 -3t-52.5 6t-42.5 21t-28 40.5t-10 63.5z M541 1752q0 175 103 180q30 0 51.5 -15t36 -38.5t21.5 -53t7 -58.5q-2 -82 -30.5 -121t-83.5 -39q-105 0 -105 145zM882 1724q0 101 31.5 152t84.5 53q28 0 48 -12.5t33 -33t19 -47t6 -53.5q0 -89 -36.5 -134t-89.5 -45q-96 0 -96 120z" />
<glyph unicode="&#xcc;" horiz-adv-x="736" d="M15 177q0 20 4 35.5t18.5 28t41 22.5t71.5 19q69 236 114 486t75 501q-61 8 -100.5 19.5t-62.5 26.5t-32 34.5t-9 43.5t5.5 46t15 40t22 30.5t25.5 16.5q80 23 172 23q67 0 126.5 -3t112.5 -5q49 -2 74.5 -43t25.5 -103q0 -28 -5 -50t-18.5 -39t-36 -28.5t-56.5 -17.5 l-205 -951q26 1 55 4.5t58 3.5q121 0 121 -95q0 -16 -3 -32q-25 -152 -120 -157q-40 -2 -76 -3.5t-68 -1.5q-54 0 -118.5 5t-151.5 15q-34 4 -54.5 41t-20.5 88zM344 1820q0 14 4.5 27.5t13.5 21.5q6 4 17.5 10.5t26 13t29 11t25.5 4.5q17 0 23 -14q14 -38 30 -73.5 t37.5 -66t51.5 -53.5t73 -36q6 -2 10 -9t4 -14q0 -10 -10.5 -17.5t-24.5 -12.5t-27 -7.5t-17 -2.5q-14 0 -23 4q-165 49 -236 183q-7 11 -7 31z" />
<glyph unicode="&#xcd;" horiz-adv-x="863" d="M14 177q0 20 4 35.5t18.5 28t41 22.5t71.5 19q69 236 114 486t75 501q-61 8 -100.5 19.5t-62.5 26.5t-32 34.5t-9 43.5t5.5 46t15 40t22 30.5t25.5 16.5q80 23 172 23q67 0 126.5 -3t112.5 -5q49 -2 74.5 -43t25.5 -103q0 -28 -5 -50t-18.5 -39t-36 -28.5t-56.5 -17.5 l-205 -951q26 1 55 4.5t58 3.5q121 0 121 -95q0 -16 -3 -32q-25 -152 -120 -157q-40 -2 -76 -3.5t-68 -1.5q-54 0 -118.5 5t-151.5 15q-34 4 -54.5 41t-20.5 88zM408 1639q0 8 6 16t15 10q53 13 92.5 36.5t70 53.5t55.5 65.5t49 73.5q9 14 29 14q13 0 30 -4.5t32.5 -11 t28.5 -13.5t19 -11q7 -5 10 -14t3 -20q0 -28 -14 -45q-107 -134 -311 -183q-13 -4 -30 -4q-7 0 -21 2.5t-28.5 7t-25 11.5t-10.5 16z" />
<glyph unicode="&#xce;" horiz-adv-x="808" d="M19 177q0 20 4 35.5t18.5 28t41 22.5t71.5 19q69 236 114 486t75 501q-61 8 -100.5 19.5t-62.5 26.5t-32 34.5t-9 43.5t5.5 46t15 40t22 30.5t25.5 16.5q80 23 172 23q67 0 126.5 -3t112.5 -5q49 -2 74.5 -43t25.5 -103q0 -28 -5 -50t-18.5 -39t-36 -28.5t-56.5 -17.5 l-205 -951q26 1 55 4.5t58 3.5q121 0 121 -95q0 -16 -3 -32q-25 -152 -120 -157q-40 -2 -76 -3.5t-68 -1.5q-54 0 -118.5 5t-151.5 15q-34 4 -54.5 41t-20.5 88zM222 1692q0 9 6.5 19t16.5 19.5t21.5 17.5t20.5 14q30 19 54 39t46 40t43.5 41t46.5 42q16 15 44 15 q29 0 49.5 -10.5t36.5 -27.5t27.5 -37.5t22.5 -40.5q28 -51 95 -94q20 -13 20 -30q0 -12 -12 -26t-28.5 -26t-34 -21.5t-27.5 -13.5q-51 27 -84 87t-71 60q-35 0 -79 -56q-12 -15 -26.5 -29.5t-29.5 -25.5t-30 -18t-29 -7q-19 0 -37 8.5t-31.5 19.5t-22 23t-8.5 18z" />
<glyph unicode="&#xcf;" horiz-adv-x="832" d="M22 177q0 20 4 35.5t18.5 28t41 22.5t71.5 19q69 236 114 486t75 501q-61 8 -100.5 19.5t-62.5 26.5t-32 34.5t-9 43.5t5.5 46t15 40t22 30.5t25.5 16.5q80 23 172 23q67 0 126.5 -3t112.5 -5q49 -2 74.5 -43t25.5 -103q0 -28 -5 -50t-18.5 -39t-36 -28.5t-56.5 -17.5 l-205 -951q26 1 55 4.5t58 3.5q121 0 121 -95q0 -16 -3 -32q-25 -152 -120 -157q-40 -2 -76 -3.5t-68 -1.5q-54 0 -118.5 5t-151.5 15q-34 4 -54.5 41t-20.5 88zM247 1777q0 175 103 180q30 0 51.5 -15t36 -38.5t21.5 -53t7 -58.5q-2 -82 -30.5 -121t-83.5 -39 q-105 0 -105 145zM588 1749q0 101 31.5 152t84.5 53q28 0 48 -12.5t33 -33t19 -47t6 -53.5q0 -89 -36.5 -134t-89.5 -45q-96 0 -96 120z" />
<glyph unicode="&#xd0;" horiz-adv-x="1394" d="M30 233q0 51 24.5 80t87.5 29q19 0 33.5 -1t24.5 -1q69 235 119.5 472.5t80.5 482.5q-38 0 -71 1t-62 3q-85 2 -85 121q0 97 101 114q97 16 196 23t202 7q137 0 237.5 -12t164.5 -37q243 -96 265 -295q5 -45 7.5 -88.5t2.5 -88.5q0 -144 -19.5 -269.5t-52.5 -227 t-78 -176.5t-96 -120q-131 -114 -287 -164.5t-334 -50.5q-83 0 -166 6t-164 10q-63 3 -97 48t-34 134zM133 768q0 41 64 73q69 34 141.5 44.5t161.5 10.5q51 0 103.5 -2t106.5 -6q137 -11 137 -91q0 -22 -5.5 -41t-13 -34t-15.5 -25t-14 -13q-18 -11 -48 -16.5t-64.5 -8 t-70.5 -3t-66 -0.5q-76 0 -150.5 5t-147.5 13q-50 5 -84.5 29.5t-34.5 64.5zM432 323q121 -9 203 -9q146 0 279 91q134 91 223 412q34 123 34 218q0 250 -252 264q-30 2 -59 2h-58q-35 0 -69 -0.5t-69 -0.5z" />
<glyph unicode="&#xd1;" horiz-adv-x="1608" d="M26 123q0 85 21.5 132.5t83.5 57.5q63 237 113.5 477.5t72.5 491.5q-23 0 -46 -2.5t-46 -2.5q-27 0 -53 3.5t-45.5 12.5t-31.5 25.5t-12 42.5q0 18 6 42q11 48 46.5 76.5t83.5 42.5t102 18t102 4q40 0 79.5 -2.5t72.5 -10t57.5 -20.5t35.5 -34q12 -23 22 -46t18 -46 q82 -232 169 -458.5t186 -452.5q12 -28 38 -28q24 0 30 28q42 195 71.5 391t65.5 394q-16 -2 -24 -2.5t-17 -0.5q-29 0 -56.5 11t-48.5 31.5t-33.5 50.5t-12.5 68q0 21 17 38.5t46 32t66 25.5t77.5 18t80.5 11t74 4q40 0 68 -3t46 -13.5t26 -30t8 -53.5q0 -75 -23.5 -120 t-59.5 -56q-54 -278 -109.5 -549.5t-115.5 -546.5q-19 -88 -67 -134.5t-120 -46.5q-35 0 -63 16.5t-44 51.5q-61 132 -115 267t-106 270.5t-105 270.5t-112 268q-60 -211 -109 -419t-101 -417q45 -8 98.5 -22t99.5 -33.5t77 -45t31 -56.5q0 -34 -11.5 -55t-28 -33t-35 -16.5 t-33.5 -5.5q-108 -9 -211.5 -11.5t-210.5 -2.5q-12 0 -26.5 2.5t-31.5 7.5q-14 4 -20.5 27.5t-6.5 65.5zM594 1703q0 17 13.5 33t27.5 27q23 18 48.5 40.5t52.5 42t55 33t56 13.5q29 0 55.5 -16.5t52.5 -51.5q22 -30 49 -49.5t51 -19.5q13 0 23.5 15t20.5 33.5t21.5 33.5 t27.5 15q35 0 58.5 -15t23.5 -56q0 -36 -20.5 -70t-51 -60t-65.5 -42t-64 -16q-88 0 -121 60q-38 68 -72 68q-35 0 -73 -50q-43 -55 -102 -55q-14 0 -26 9.5t-21 23t-14.5 28.5t-5.5 26z" />
<glyph unicode="&#xd2;" horiz-adv-x="1262" d="M63 567q0 105 21 230q55 329 240 556q179 220 429 220q247 0 372 -275q83 -183 83 -379q0 -93 -18 -187q-72 -378 -257 -557q-97 -94 -198 -141.5t-207 -47.5q-199 0 -352 194q-113 141 -113 387zM300 658q0 -92 19.5 -159t53.5 -110.5t81 -64t101 -20.5q312 0 423 503 q7 31 10 60.5t3 58.5q0 76 -20.5 141t-55 111.5t-79 73t-93.5 26.5q-141 0 -269 -112q-134 -118 -163 -351q-5 -43 -8 -82t-3 -75zM521 1852q0 14 4.5 27.5t13.5 21.5q6 4 17.5 10.5t26 13t29 11t25.5 4.5q17 0 23 -14q14 -38 30 -73.5t37.5 -66t51.5 -53.5t73 -36 q6 -2 10 -9t4 -14q0 -10 -10.5 -17.5t-24.5 -12.5t-27 -7.5t-17 -2.5q-14 0 -23 4q-165 49 -236 183q-7 11 -7 31z" />
<glyph unicode="&#xd3;" horiz-adv-x="1263" d="M60 567q0 105 21 230q55 329 240 556q179 220 429 220q247 0 372 -275q83 -183 83 -379q0 -93 -18 -187q-72 -378 -257 -557q-97 -94 -198 -141.5t-207 -47.5q-199 0 -352 194q-113 141 -113 387zM297 658q0 -92 19.5 -159t53.5 -110.5t81 -64t101 -20.5q312 0 423 503 q7 31 10 60.5t3 58.5q0 76 -20.5 141t-55 111.5t-79 73t-93.5 26.5q-141 0 -269 -112q-134 -118 -163 -351q-5 -43 -8 -82t-3 -75zM701 1661q0 8 6 16t15 10q53 13 92.5 36.5t70 53.5t55.5 65.5t49 73.5q9 14 29 14q13 0 30 -4.5t32.5 -11t28.5 -13.5t19 -11q7 -5 10 -14 t3 -20q0 -28 -14 -45q-107 -134 -311 -183q-13 -4 -30 -4q-7 0 -21 2.5t-28.5 7t-25 11.5t-10.5 16z" />
<glyph unicode="&#xd4;" horiz-adv-x="1265" d="M63 567q0 105 21 230q55 329 240 556q179 220 429 220q247 0 372 -275q83 -183 83 -379q0 -93 -18 -187q-72 -378 -257 -557q-97 -94 -198 -141.5t-207 -47.5q-199 0 -352 194q-113 141 -113 387zM300 658q0 -92 19.5 -159t53.5 -110.5t81 -64t101 -20.5q312 0 423 503 q7 31 10 60.5t3 58.5q0 76 -20.5 141t-55 111.5t-79 73t-93.5 26.5q-141 0 -269 -112q-134 -118 -163 -351q-5 -43 -8 -82t-3 -75zM500 1688q0 9 6.5 19t16.5 19.5t21.5 17.5t20.5 14q30 19 54 39t46 40t43.5 41t46.5 42q16 15 44 15q29 0 49.5 -10.5t36.5 -27.5t27.5 -37.5 t22.5 -40.5q28 -51 95 -94q20 -13 20 -30q0 -12 -12 -26t-28.5 -26t-34 -21.5t-27.5 -13.5q-51 27 -84 87t-71 60q-35 0 -79 -56q-12 -15 -26.5 -29.5t-29.5 -25.5t-30 -18t-29 -7q-19 0 -37 8.5t-31.5 19.5t-22 23t-8.5 18z" />
<glyph unicode="&#xd5;" horiz-adv-x="1267" d="M64 567q0 105 21 230q55 329 240 556q179 220 429 220q247 0 372 -275q83 -183 83 -379q0 -93 -18 -187q-72 -378 -257 -557q-97 -94 -198 -141.5t-207 -47.5q-199 0 -352 194q-113 141 -113 387zM301 658q0 -92 19.5 -159t53.5 -110.5t81 -64t101 -20.5q312 0 423 503 q7 31 10 60.5t3 58.5q0 76 -20.5 141t-55 111.5t-79 73t-93.5 26.5q-141 0 -269 -112q-134 -118 -163 -351q-5 -43 -8 -82t-3 -75zM465 1709q0 17 13.5 33t27.5 27q23 18 48.5 40.5t52.5 42t55 33t56 13.5q29 0 55.5 -16.5t52.5 -51.5q22 -30 49 -49.5t51 -19.5 q13 0 23.5 15t20.5 33.5t21.5 33.5t27.5 15q35 0 58.5 -15t23.5 -56q0 -36 -20.5 -70t-51 -60t-65.5 -42t-64 -16q-88 0 -121 60q-38 68 -72 68q-35 0 -73 -50q-43 -55 -102 -55q-14 0 -26 9.5t-21 23t-14.5 28.5t-5.5 26z" />
<glyph unicode="&#xd6;" horiz-adv-x="1267" d="M64 567q0 105 21 230q55 329 240 556q179 220 429 220q247 0 372 -275q83 -183 83 -379q0 -93 -18 -187q-72 -378 -257 -557q-97 -94 -198 -141.5t-207 -47.5q-199 0 -352 194q-113 141 -113 387zM301 658q0 -92 19.5 -159t53.5 -110.5t81 -64t101 -20.5q312 0 423 503 q7 31 10 60.5t3 58.5q0 76 -20.5 141t-55 111.5t-79 73t-93.5 26.5q-141 0 -269 -112q-134 -118 -163 -351q-5 -43 -8 -82t-3 -75zM505 1781q0 175 103 180q30 0 51.5 -15t36 -38.5t21.5 -53t7 -58.5q-2 -82 -30.5 -121t-83.5 -39q-105 0 -105 145zM846 1753q0 101 31.5 152 t84.5 53q28 0 48 -12.5t33 -33t19 -47t6 -53.5q0 -89 -36.5 -134t-89.5 -45q-96 0 -96 120z" />
<glyph unicode="&#xd7;" horiz-adv-x="924" d="M47 237q0 26 26 64t70 85.5t103.5 104t126.5 120.5q-54 88 -103 169t-86 147q-6 10 -6 20t10.5 23t27 24t35.5 18.5t37 7.5q24 0 39 -17q12 -15 31 -42t43 -62t51 -76t54 -84q72 66 136.5 125t115.5 104q23 20 43 20q13 0 28 -9t27 -22.5t20 -30t8 -30.5t-7.5 -28.5 t-22.5 -32.5t-38 -41.5t-54 -56.5q-35 -38 -73.5 -78t-80.5 -83q36 -60 70 -120.5t61 -111t43 -86.5t16 -47t-7 -21t-17.5 -17t-23 -11t-23.5 -4q-24 0 -52.5 25.5t-60.5 66.5t-66 92t-68 103q-48 -50 -95 -96.5t-85 -82.5t-64 -59t-32 -26q-39 -17 -68 -17q-15 0 -31 5 t-29 15t-21 23t-8 30z" />
<glyph unicode="&#xd8;" horiz-adv-x="1269" d="M67 567q0 105 21 230q55 329 240 556q179 220 429 220q247 0 372 -275q83 -183 83 -379q0 -93 -18 -187q-72 -378 -257 -557q-97 -94 -198 -141.5t-207 -47.5q-199 0 -352 194q-113 141 -113 387zM240 5q0 27 14 64q73 189 142 379.5t140.5 380.5t147.5 377.5t162 370.5 q11 22 27.5 32.5t43.5 9.5q59 -2 94 -36.5t35 -88.5q0 -43 -12 -88t-26 -84q-65 -179 -140.5 -351t-155.5 -340.5t-160.5 -337t-154.5 -339.5q-12 -28 -23 -39t-24 -11q-24 0 -44.5 9t-35 23.5t-22.5 32.5t-8 36zM304 658q0 -92 19.5 -159t53.5 -110.5t81 -64t101 -20.5 q312 0 423 503q7 31 10 60.5t3 58.5q0 76 -20.5 141t-55 111.5t-79 73t-93.5 26.5q-141 0 -269 -112q-134 -118 -163 -351q-5 -43 -8 -82t-3 -75z" />
<glyph unicode="&#xd9;" horiz-adv-x="1151" d="M28 1411q0 22 5 43.5t18 40t35.5 32t57.5 19.5q64 11 128 15.5t128 4.5q31 0 65.5 -0.5t65.5 -5t55 -15.5t35 -32q11 -22 16 -45.5t5 -52.5q0 -127 -102 -137q-109 -10 -139 -118q-36 -125 -59.5 -250.5t-46.5 -252.5q-12 -65 -12 -117q0 -251 261 -251q247 0 309 300 q31 155 59.5 310t60.5 312q1 5 1 15q0 35 -40 35q-8 -1 -15 -1h-14q-51 0 -84.5 9t-53.5 27.5t-28 47t-8 67.5q0 20 3.5 38.5t13.5 34t28.5 27.5t47.5 18q107 23 224 23q31 0 68.5 -1t72 -6t61.5 -16t38 -31q13 -26 18 -52t5 -58q0 -135 -66 -150q-54 -12 -59 -32 q-39 -176 -75 -350.5t-71 -350.5q-27 -133 -77 -229.5t-120.5 -159.5t-161 -93t-198.5 -30q-116 0 -198 33t-133.5 96t-75.5 153.5t-24 206.5q0 48 4.5 98t12.5 104q21 136 48 269t55 269q1 5 1 15q0 38 -48 46q-97 13 -97 128zM505 1801q0 14 4.5 27.5t13.5 21.5 q6 4 17.5 10.5t26 13t29 11t25.5 4.5q17 0 23 -14q14 -38 30 -73.5t37.5 -66t51.5 -53.5t73 -36q6 -2 10 -9t4 -14q0 -10 -10.5 -17.5t-24.5 -12.5t-27 -7.5t-17 -2.5q-14 0 -23 4q-165 49 -236 183q-7 11 -7 31z" />
<glyph unicode="&#xda;" horiz-adv-x="1143" d="M25 1411q0 22 5 43.5t18 40t35.5 32t57.5 19.5q64 11 128 15.5t128 4.5q31 0 65.5 -0.5t65.5 -5t55 -15.5t35 -32q11 -22 16 -45.5t5 -52.5q0 -127 -102 -137q-109 -10 -139 -118q-36 -125 -59.5 -250.5t-46.5 -252.5q-12 -65 -12 -117q0 -251 261 -251q247 0 309 300 q31 155 59.5 310t60.5 312q1 5 1 15q0 35 -40 35q-8 -1 -15 -1h-14q-51 0 -84.5 9t-53.5 27.5t-28 47t-8 67.5q0 20 3.5 38.5t13.5 34t28.5 27.5t47.5 18q107 23 224 23q31 0 68.5 -1t72 -6t61.5 -16t38 -31q13 -26 18 -52t5 -58q0 -135 -66 -150q-54 -12 -59 -32 q-39 -176 -75 -350.5t-71 -350.5q-27 -133 -77 -229.5t-120.5 -159.5t-161 -93t-198.5 -30q-116 0 -198 33t-133.5 96t-75.5 153.5t-24 206.5q0 48 4.5 98t12.5 104q21 136 48 269t55 269q1 5 1 15q0 38 -48 46q-97 13 -97 128zM563 1664q0 8 6 16t15 10q53 13 92.5 36.5 t70 53.5t55.5 65.5t49 73.5q9 14 29 14q13 0 30 -4.5t32.5 -11t28.5 -13.5t19 -11q7 -5 10 -14t3 -20q0 -28 -14 -45q-107 -134 -311 -183q-13 -4 -30 -4q-7 0 -21 2.5t-28.5 7t-25 11.5t-10.5 16z" />
<glyph unicode="&#xdb;" horiz-adv-x="1155" d="M27 1411q0 22 5 43.5t18 40t35.5 32t57.5 19.5q64 11 128 15.5t128 4.5q31 0 65.5 -0.5t65.5 -5t55 -15.5t35 -32q11 -22 16 -45.5t5 -52.5q0 -127 -102 -137q-109 -10 -139 -118q-36 -125 -59.5 -250.5t-46.5 -252.5q-12 -65 -12 -117q0 -251 261 -251q247 0 309 300 q31 155 59.5 310t60.5 312q1 5 1 15q0 35 -40 35q-8 -1 -15 -1h-14q-51 0 -84.5 9t-53.5 27.5t-28 47t-8 67.5q0 20 3.5 38.5t13.5 34t28.5 27.5t47.5 18q107 23 224 23q31 0 68.5 -1t72 -6t61.5 -16t38 -31q13 -26 18 -52t5 -58q0 -135 -66 -150q-54 -12 -59 -32 q-39 -176 -75 -350.5t-71 -350.5q-27 -133 -77 -229.5t-120.5 -159.5t-161 -93t-198.5 -30q-116 0 -198 33t-133.5 96t-75.5 153.5t-24 206.5q0 48 4.5 98t12.5 104q21 136 48 269t55 269q1 5 1 15q0 38 -48 46q-97 13 -97 128zM457 1692q0 9 6.5 19t16.5 19.5t21.5 17.5 t20.5 14q30 19 54 39t46 40t43.5 41t46.5 42q16 15 44 15q29 0 49.5 -10.5t36.5 -27.5t27.5 -37.5t22.5 -40.5q28 -51 95 -94q20 -13 20 -30q0 -12 -12 -26t-28.5 -26t-34 -21.5t-27.5 -13.5q-51 27 -84 87t-71 60q-35 0 -79 -56q-12 -15 -26.5 -29.5t-29.5 -25.5t-30 -18 t-29 -7q-19 0 -37 8.5t-31.5 19.5t-22 23t-8.5 18z" />
<glyph unicode="&#xdc;" horiz-adv-x="1155" d="M29 1411q0 22 5 43.5t18 40t35.5 32t57.5 19.5q64 11 128 15.5t128 4.5q31 0 65.5 -0.5t65.5 -5t55 -15.5t35 -32q11 -22 16 -45.5t5 -52.5q0 -127 -102 -137q-109 -10 -139 -118q-36 -125 -59.5 -250.5t-46.5 -252.5q-12 -65 -12 -117q0 -251 261 -251q247 0 309 300 q31 155 59.5 310t60.5 312q1 5 1 15q0 35 -40 35q-8 -1 -15 -1h-14q-51 0 -84.5 9t-53.5 27.5t-28 47t-8 67.5q0 20 3.5 38.5t13.5 34t28.5 27.5t47.5 18q107 23 224 23q31 0 68.5 -1t72 -6t61.5 -16t38 -31q13 -26 18 -52t5 -58q0 -135 -66 -150q-54 -12 -59 -32 q-39 -176 -75 -350.5t-71 -350.5q-27 -133 -77 -229.5t-120.5 -159.5t-161 -93t-198.5 -30q-116 0 -198 33t-133.5 96t-75.5 153.5t-24 206.5q0 48 4.5 98t12.5 104q21 136 48 269t55 269q1 5 1 15q0 38 -48 46q-97 13 -97 128zM459 1763q0 175 103 180q30 0 51.5 -15 t36 -38.5t21.5 -53t7 -58.5q-2 -82 -30.5 -121t-83.5 -39q-105 0 -105 145zM800 1735q0 101 31.5 152t84.5 53q28 0 48 -12.5t33 -33t19 -47t6 -53.5q0 -89 -36.5 -134t-89.5 -45q-96 0 -96 120z" />
<glyph unicode="&#xdd;" horiz-adv-x="952" d="M36 1422q0 74 92 107l4 2q0 1 -2 1q39 2 77 4t76 2q57 0 116 -4t107.5 -19.5t79 -47.5t30.5 -88q0 -48 -23.5 -70.5t-71.5 -24.5q-45 -2 -45 -29q0 -7 5 -20q10 -24 24 -58.5t29 -72t30 -74.5t27 -66.5t20.5 -47.5t10.5 -18t10 10t18 25q21 34 46 66t51.5 63t52 62 t48.5 64q9 15 9 36q0 20 -34 31q-101 32 -101 130q0 37 12 64.5t41 46t77 27.5t120 9q42 0 88 -2.5t96 -8.5q101 -12 101 -93q0 -57 -21 -98.5t-49 -63.5q-65 -52 -124 -119.5t-114.5 -142.5t-110 -153.5t-109.5 -152.5q-26 -35 -33 -73.5t-11 -82.5q-2 -26 -8.5 -52.5 l-13 -53t-11.5 -52.5t-5 -52q0 -50 49 -52q42 -2 76.5 -7.5t60 -17t39.5 -30.5t14 -48q0 -24 -9 -57q-35 -120 -108 -120q-140 3 -278.5 2.5t-277.5 11.5q-79 8 -79 114q0 16 2 32.5t8 31t18 25t33 15.5q34 7 65.5 13.5t61.5 13.5q61 14 77 95q6 33 15 68.5t16.5 70.5t13 69 t5.5 65q0 83 -38 168q-48 106 -87 216.5t-82 219.5q-8 20 -36 20h-7q-6 -1 -11.5 -1h-10.5q-106 0 -132 119v4q-9 27 -9 49zM609 1664q0 8 6 16t15 10q53 13 92.5 36.5t70 53.5t55.5 65.5t49 73.5q9 14 29 14q13 0 30 -4.5t32.5 -11t28.5 -13.5t19 -11q7 -5 10 -14t3 -20 q0 -28 -14 -45q-107 -134 -311 -183q-13 -4 -30 -4q-7 0 -21 2.5t-28.5 7t-25 11.5t-10.5 16z" />
<glyph unicode="&#xde;" horiz-adv-x="1255" d="M30 197q0 25 15 43t37.5 30t49.5 18t51 6h2q14 36 25 71t20.5 78t18.5 97.5t21 130t27.5 176t37.5 234.5l22 188q-61 8 -100.5 19.5t-62.5 26.5t-32 34.5t-9 43.5t5.5 46t15 40t22 30.5t25.5 16.5q80 23 172 23q67 0 126.5 -3t112.5 -5q49 -2 74.5 -43t25.5 -103 q0 -28 -5 -50t-18.5 -39t-36 -28.5t-56.5 -17.5l-24 -69q38 2 81.5 4t93.5 4q231 -23 300 -65q90 -56 129.5 -113.5t39.5 -117.5q0 -31 -6.5 -64t-22 -68.5t-42.5 -74t-69 -80.5q-52 -53 -102 -85t-104 -49.5t-115 -23t-134 -5.5q-53 0 -100.5 2.5t-92.5 4.5l-42 -173 q60 -3 105.5 -8.5t77 -15t47.5 -25.5t16 -41q0 -24 -7.5 -51t-19.5 -51t-26.5 -41t-28.5 -20q-61 -14 -156 -14q-71 0 -130.5 2.5t-105 8t-75.5 12.5t-40 16q-3 3 -9 14t-11 29t-9 42t-4 53zM489 664q20 0 39.5 -0.5t39.5 -0.5q62 0 122.5 3t117.5 12q104 35 150 83t46 112 q0 21 -13 43.5t-38.5 41.5t-63.5 31.5t-88 14.5q-60 0 -116.5 -1.5t-116.5 -3.5z" />
<glyph unicode="&#xdf;" horiz-adv-x="1149" d="M-6 174q0 26 3 50t11 42.5t22 29.5t35 12q55 2 61 33q11 55 19.5 111t17 111.5t18.5 111t24 111.5q1 4 1 11q0 28 -40 31q-30 2 -57.5 8.5t-48.5 18.5t-33 29.5t-12 40.5q0 30 12.5 59t24.5 58q0 1 2.5 0.5t3.5 1.5q3 25 17.5 38.5t43 20t71.5 9t101 7.5q32 126 75.5 237 t106.5 193.5t149 130.5t204 48q164 0 230 -174q11 -32 17.5 -64t6.5 -65q0 -75 -22.5 -140t-59.5 -121t-84 -103t-95 -87q53 -23 95.5 -52t72.5 -66.5t46 -84.5t16 -105q0 -37 -6 -80t-15 -88.5t-19.5 -92t-19.5 -89.5q-11 -55 -30 -109t-49.5 -97.5t-74 -70.5t-101.5 -27 q-36 0 -65 6.5t-49 23.5t-31 47.5t-11 78.5q0 30 5.5 57t18 49t34 36t54.5 17q69 7 113.5 67.5t44.5 172.5q0 78 -36.5 136.5t-127.5 96.5q-17 7 -35 18t-32 25t-23 30.5t-9 33.5q0 22 15 51t39 62t54 67.5t60 69.5q65 74 99 196q1 4 1.5 7t0.5 7q0 13 -8.5 29.5t-22.5 30.5 t-32 23.5t-38 9.5q-19 0 -40 -7.5t-41.5 -18.5t-38.5 -24t-30 -24q-83 -80 -119 -232q-34 -177 -70.5 -350.5t-64.5 -350.5q-3 -20 -5 -37.5t-2 -31.5q0 -92 63 -92q8 0 16.5 1t16.5 1q60 0 60 -69q0 -56 -3.5 -95t-19.5 -64t-49.5 -36.5t-94.5 -11.5q-43 0 -86.5 2.5 t-86.5 2.5q-11 0 -22 -0.5t-22 -0.5q-119 0 -120 152z" />
<glyph unicode="&#xe0;" d="M41 356q0 34 4 65t16 60t33 57t54 57q51 44 129.5 70t181.5 26q170 0 273 -104q9 33 14 64t5 60q0 60 -22.5 100t-83.5 66q-28 11 -53 11q-22 0 -46 -9t-48.5 -24t-48.5 -34t-47 -38q-41 -35 -76 -35q-12 0 -29 8t-32.5 23t-26.5 35.5t-11 46.5q0 36 20.5 71t54 65.5 t77 56t89.5 44t92 29t84 10.5q107 0 171.5 -29t99.5 -73t46 -96t11 -98q0 -18 -1.5 -36.5t-5.5 -37.5q-21 -111 -42.5 -219t-42.5 -217q-3 -15 -3 -25q0 -16 9 -16q5 0 8 2q84 41 129 41q23 0 34.5 -13.5t11.5 -48.5q0 -104 -55.5 -166t-153.5 -80q-5 -1 -9 -1.5t-9 -0.5 q-48 0 -79.5 51.5t-55.5 137.5q-24 -62 -59.5 -101t-79 -61.5t-93 -33t-100.5 -14.5q-63 6 -123.5 31.5t-107 70t-75 107.5t-28.5 145zM269 334q0 -45 35 -76.5t112 -31.5q41 0 90.5 9.5t92 29t71.5 49.5t29 72q0 5 -0.5 10.5t-1.5 11.5v8q0 90 -140 90q-84 0 -139.5 -16.5 t-88.5 -42t-46.5 -55.5t-13.5 -58zM479 1421q0 14 4.5 27.5t13.5 21.5q6 4 17.5 10.5t26 13t29 11t25.5 4.5q17 0 23 -14q14 -38 30 -73.5t37.5 -66t51.5 -53.5t73 -36q6 -2 10 -9t4 -14q0 -10 -10.5 -17.5t-24.5 -12.5t-27 -7.5t-17 -2.5q-14 0 -23 4q-165 49 -236 183 q-7 11 -7 31z" />
<glyph unicode="&#xe1;" d="M41 356q0 34 4 65t16 60t33 57t54 57q51 44 129.5 70t181.5 26q170 0 273 -104q9 33 14 64t5 60q0 60 -22.5 100t-83.5 66q-28 11 -53 11q-22 0 -46 -9t-48.5 -24t-48.5 -34t-47 -38q-41 -35 -76 -35q-12 0 -29 8t-32.5 23t-26.5 35.5t-11 46.5q0 36 20.5 71t54 65.5 t77 56t89.5 44t92 29t84 10.5q107 0 171.5 -29t99.5 -73t46 -96t11 -98q0 -18 -1.5 -36.5t-5.5 -37.5q-21 -111 -42.5 -219t-42.5 -217q-3 -15 -3 -25q0 -16 9 -16q5 0 8 2q84 41 129 41q23 0 34.5 -13.5t11.5 -48.5q0 -104 -55.5 -166t-153.5 -80q-5 -1 -9 -1.5t-9 -0.5 q-48 0 -79.5 51.5t-55.5 137.5q-24 -62 -59.5 -101t-79 -61.5t-93 -33t-100.5 -14.5q-63 6 -123.5 31.5t-107 70t-75 107.5t-28.5 145zM269 334q0 -45 35 -76.5t112 -31.5q41 0 90.5 9.5t92 29t71.5 49.5t29 72q0 5 -0.5 10.5t-1.5 11.5v8q0 90 -140 90q-84 0 -139.5 -16.5 t-88.5 -42t-46.5 -55.5t-13.5 -58zM541 1240q0 8 6 16t15 10q53 13 92.5 36.5t70 53.5t55.5 65.5t49 73.5q9 14 29 14q13 0 30 -4.5t32.5 -11t28.5 -13.5t19 -11q7 -5 10 -14t3 -20q0 -28 -14 -45q-107 -134 -311 -183q-13 -4 -30 -4q-7 0 -21 2.5t-28.5 7t-25 11.5 t-10.5 16z" />
<glyph unicode="&#xe2;" d="M41 356q0 34 4 65t16 60t33 57t54 57q51 44 129.5 70t181.5 26q170 0 273 -104q9 33 14 64t5 60q0 60 -22.5 100t-83.5 66q-28 11 -53 11q-22 0 -46 -9t-48.5 -24t-48.5 -34t-47 -38q-41 -35 -76 -35q-12 0 -29 8t-32.5 23t-26.5 35.5t-11 46.5q0 36 20.5 71t54 65.5 t77 56t89.5 44t92 29t84 10.5q107 0 171.5 -29t99.5 -73t46 -96t11 -98q0 -18 -1.5 -36.5t-5.5 -37.5q-21 -111 -42.5 -219t-42.5 -217q-3 -15 -3 -25q0 -16 9 -16q5 0 8 2q84 41 129 41q23 0 34.5 -13.5t11.5 -48.5q0 -104 -55.5 -166t-153.5 -80q-5 -1 -9 -1.5t-9 -0.5 q-48 0 -79.5 51.5t-55.5 137.5q-24 -62 -59.5 -101t-79 -61.5t-93 -33t-100.5 -14.5q-63 6 -123.5 31.5t-107 70t-75 107.5t-28.5 145zM269 334q0 -45 35 -76.5t112 -31.5q41 0 90.5 9.5t92 29t71.5 49.5t29 72q0 5 -0.5 10.5t-1.5 11.5v8q0 90 -140 90q-84 0 -139.5 -16.5 t-88.5 -42t-46.5 -55.5t-13.5 -58zM395 1260q0 9 6.5 19t16.5 19.5t21.5 17.5t20.5 14q30 19 54 39t46 40t43.5 41t46.5 42q16 15 44 15q29 0 49.5 -10.5t36.5 -27.5t27.5 -37.5t22.5 -40.5q28 -51 95 -94q20 -13 20 -30q0 -12 -12 -26t-28.5 -26t-34 -21.5t-27.5 -13.5 q-51 27 -84 87t-71 60q-35 0 -79 -56q-12 -15 -26.5 -29.5t-29.5 -25.5t-30 -18t-29 -7q-19 0 -37 8.5t-31.5 19.5t-22 23t-8.5 18z" />
<glyph unicode="&#xe3;" d="M41 356q0 34 4 65t16 60t33 57t54 57q51 44 129.5 70t181.5 26q170 0 273 -104q9 33 14 64t5 60q0 60 -22.5 100t-83.5 66q-28 11 -53 11q-22 0 -46 -9t-48.5 -24t-48.5 -34t-47 -38q-41 -35 -76 -35q-12 0 -29 8t-32.5 23t-26.5 35.5t-11 46.5q0 36 20.5 71t54 65.5 t77 56t89.5 44t92 29t84 10.5q107 0 171.5 -29t99.5 -73t46 -96t11 -98q0 -18 -1.5 -36.5t-5.5 -37.5q-21 -111 -42.5 -219t-42.5 -217q-3 -15 -3 -25q0 -16 9 -16q5 0 8 2q84 41 129 41q23 0 34.5 -13.5t11.5 -48.5q0 -104 -55.5 -166t-153.5 -80q-5 -1 -9 -1.5t-9 -0.5 q-48 0 -79.5 51.5t-55.5 137.5q-24 -62 -59.5 -101t-79 -61.5t-93 -33t-100.5 -14.5q-63 6 -123.5 31.5t-107 70t-75 107.5t-28.5 145zM269 334q0 -45 35 -76.5t112 -31.5q41 0 90.5 9.5t92 29t71.5 49.5t29 72q0 5 -0.5 10.5t-1.5 11.5v8q0 90 -140 90q-84 0 -139.5 -16.5 t-88.5 -42t-46.5 -55.5t-13.5 -58zM409 1302q0 17 13.5 33t27.5 27q23 18 48.5 40.5t52.5 42t55 33t56 13.5q29 0 55.5 -16.5t52.5 -51.5q22 -30 49 -49.5t51 -19.5q13 0 23.5 15t20.5 33.5t21.5 33.5t27.5 15q35 0 58.5 -15t23.5 -56q0 -36 -20.5 -70t-51 -60t-65.5 -42 t-64 -16q-88 0 -121 60q-38 68 -72 68q-35 0 -73 -50q-43 -55 -102 -55q-14 0 -26 9.5t-21 23t-14.5 28.5t-5.5 26z" />
<glyph unicode="&#xe4;" d="M41 356q0 34 4 65t16 60t33 57t54 57q51 44 129.5 70t181.5 26q170 0 273 -104q9 33 14 64t5 60q0 60 -22.5 100t-83.5 66q-28 11 -53 11q-22 0 -46 -9t-48.5 -24t-48.5 -34t-47 -38q-41 -35 -76 -35q-12 0 -29 8t-32.5 23t-26.5 35.5t-11 46.5q0 36 20.5 71t54 65.5 t77 56t89.5 44t92 29t84 10.5q107 0 171.5 -29t99.5 -73t46 -96t11 -98q0 -18 -1.5 -36.5t-5.5 -37.5q-21 -111 -42.5 -219t-42.5 -217q-3 -15 -3 -25q0 -16 9 -16q5 0 8 2q84 41 129 41q23 0 34.5 -13.5t11.5 -48.5q0 -104 -55.5 -166t-153.5 -80q-5 -1 -9 -1.5t-9 -0.5 q-48 0 -79.5 51.5t-55.5 137.5q-24 -62 -59.5 -101t-79 -61.5t-93 -33t-100.5 -14.5q-63 6 -123.5 31.5t-107 70t-75 107.5t-28.5 145zM269 334q0 -45 35 -76.5t112 -31.5q41 0 90.5 9.5t92 29t71.5 49.5t29 72q0 5 -0.5 10.5t-1.5 11.5v8q0 90 -140 90q-84 0 -139.5 -16.5 t-88.5 -42t-46.5 -55.5t-13.5 -58zM426 1344q0 175 103 180q30 0 51.5 -15t36 -38.5t21.5 -53t7 -58.5q-2 -82 -30.5 -121t-83.5 -39q-105 0 -105 145zM767 1316q0 101 31.5 152t84.5 53q28 0 48 -12.5t33 -33t19 -47t6 -53.5q0 -89 -36.5 -134t-89.5 -45q-96 0 -96 120z " />
<glyph unicode="&#xe5;" d="M41 356q0 34 4 65t16 60t33 57t54 57q51 44 129.5 70t181.5 26q170 0 273 -104q9 33 14 64t5 60q0 60 -22.5 100t-83.5 66q-28 11 -53 11q-22 0 -46 -9t-48.5 -24t-48.5 -34t-47 -38q-41 -35 -76 -35q-12 0 -29 8t-32.5 23t-26.5 35.5t-11 46.5q0 36 20.5 71t54 65.5 t77 56t89.5 44t92 29t84 10.5q107 0 171.5 -29t99.5 -73t46 -96t11 -98q0 -18 -1.5 -36.5t-5.5 -37.5q-21 -111 -42.5 -219t-42.5 -217q-3 -15 -3 -25q0 -16 9 -16q5 0 8 2q84 41 129 41q23 0 34.5 -13.5t11.5 -48.5q0 -104 -55.5 -166t-153.5 -80q-5 -1 -9 -1.5t-9 -0.5 q-48 0 -79.5 51.5t-55.5 137.5q-24 -62 -59.5 -101t-79 -61.5t-93 -33t-100.5 -14.5q-63 6 -123.5 31.5t-107 70t-75 107.5t-28.5 145zM269 334q0 -45 35 -76.5t112 -31.5q41 0 90.5 9.5t92 29t71.5 49.5t29 72q0 5 -0.5 10.5t-1.5 11.5v8q0 90 -140 90q-84 0 -139.5 -16.5 t-88.5 -42t-46.5 -55.5t-13.5 -58zM507 1361q0 50 24 95.5t61.5 80.5t83 56t88.5 21q30 0 60 -10t53.5 -29.5t38.5 -47.5t15 -65q0 -56 -17 -105.5t-49 -86.5t-77.5 -58t-103.5 -21q-37 0 -69.5 14t-56.5 38t-37.5 54.5t-13.5 63.5zM632 1391q0 -21 7 -36t19 -25t27 -14.5 t31 -4.5q47 0 73.5 28t26.5 82q0 15 -6 30.5t-18 27.5t-30.5 19.5t-43.5 7.5q-34 0 -60 -27t-26 -81v-7z" />
<glyph unicode="&#xe6;" horiz-adv-x="1634" d="M41 356q0 34 4 65t16 60t33 57t54 57q34 30 81 49.5t103.5 31.5t121 16.5t134.5 4.5q38 0 72.5 -2t65.5 -5q4 25 6 76q0 19 -8.5 40.5t-25.5 39.5t-43.5 30t-62.5 12q-22 0 -46 -9t-48.5 -24t-48.5 -34t-47 -38q-41 -35 -76 -35q-12 0 -29 8t-32.5 23t-26.5 35.5 t-11 46.5q0 36 20.5 71t54 65.5t77 56t89.5 44t92 29t84 10.5q55 0 102 -10.5t83.5 -27.5t62.5 -39.5t40 -46.5q131 122 299 122q81 0 149 -26.5t117 -78t76.5 -128.5t27.5 -179q0 -31 -2.5 -64t-7.5 -68q-6 -92 -106 -92q-145 2 -286.5 4.5t-283.5 5.5q-1 -2 -1 -5t-1 -5 q5 -70 27 -117.5t56.5 -77t80 -42t98.5 -12.5q88 0 160 23t131 67q5 4 13.5 10t18 11t19 9t17.5 4q17 0 31.5 -16t14.5 -39q0 -26 -19.5 -59t-47.5 -64.5t-59.5 -58t-56.5 -41.5q-146 -88 -301 -88q-103 0 -182.5 43t-141.5 146q-32 -29 -65.5 -60t-78 -58.5t-105.5 -48.5 t-148 -28q-63 6 -123.5 31.5t-107 70t-75 107.5t-28.5 145zM269 334q0 -45 35 -76.5t112 -31.5q27 0 60.5 5t66.5 14t63 23t52 32q38 32 54 130q-1 10 -1 19.5v19.5v19.5t1 20.5q-11 5 -36 7.5t-63 2.5q-25 0 -54 -1t-64 -3q-69 -15 -113 -36t-69 -45t-34.5 -49.5 t-9.5 -50.5zM950 689l417 -10q44 4 44 36q0 19 -9.5 39.5t-23 39t-29 33t-27.5 21.5q-32 18 -66 28t-66 10q-81 0 -143.5 -51.5t-96.5 -145.5z" />
<glyph unicode="&#xe7;" horiz-adv-x="999" d="M57 451q0 83 15 182q11 71 35.5 137t58.5 123t75.5 104t87.5 80.5t94 51.5t95 18q35 0 63 -10t51 -30.5t42.5 -51.5t38.5 -73q6 30 14 58.5t20.5 51.5t30.5 37t45 14q51 0 77 -20.5t26 -48.5q0 -8 -2 -16.5t-5 -18.5q-7 -32 -12 -71t-11.5 -78.5t-15 -76.5t-22 -65.5 t-33 -46t-47.5 -17.5q-33 0 -50 41q-10 26 -25.5 50.5t-39.5 43t-58.5 30t-83.5 11.5q-128 0 -197.5 -81.5t-69.5 -253.5q0 -123 59 -187.5t178 -64.5q53 0 100 14t94 27q12 4 23 5.5t19 1.5q23 0 32 -12.5t9 -31.5q0 -22 -10 -46q-22 -56 -63.5 -97t-94 -67.5t-112 -39.5 t-117.5 -13q-49 0 -104.5 24.5t-102 77t-77 135.5t-30.5 200zM320 -284q0 12 10 24t26.5 21t37 14.5t41.5 5.5q64 0 64 50q0 33 -49 33q-9 0 -20.5 -1t-21.5 -1q-71 0 -71 63q0 18 6.5 39.5t16.5 41t22 36t23 25.5q23 20 70 20q20 0 32.5 -9t12.5 -26q0 -13 -12.5 -25 t-27.5 -23.5t-27.5 -22.5t-12.5 -22q0 -20 20.5 -32t42.5 -12q13 0 28.5 3t29.5 3q20 0 36 -7t27 -17.5t17 -24.5t6 -27q0 -23 -16 -47.5t-39 -45.5t-48.5 -37t-44.5 -23q-23 -9 -54 -19t-60 -10q-7 0 -18 3.5t-21.5 10.5t-18 17t-7.5 22z" />
<glyph unicode="&#xe8;" horiz-adv-x="998" d="M32 465q0 138 41 259.5t111.5 213t165 144.5t202.5 53q81 0 149 -26.5t117 -78t76.5 -128.5t27.5 -179q0 -31 -2.5 -64t-7.5 -68q-6 -92 -106 -92q-145 2 -287 4.5t-286 5.5q4 -72 25.5 -121.5t56 -80t81 -44t100.5 -13.5q88 0 160 23t131 67q5 4 13.5 10t18 11t19 9 t17.5 4q17 0 31.5 -16t14.5 -39q0 -26 -19.5 -59t-47.5 -64.5t-59.5 -58t-56.5 -41.5q-146 -88 -301 -88q-48 0 -92.5 9.5t-84.5 30t-74.5 53.5t-62.5 80q-38 63 -54.5 134.5t-16.5 149.5zM269 689l419 -10q44 4 44 36q0 19 -9.5 39.5t-23 39t-29 33t-27.5 21.5 q-32 18 -66 28t-66 10q-81 0 -143.5 -51.5t-96.5 -145.5h-2zM434 1447q0 14 4.5 27.5t13.5 21.5q6 4 17.5 10.5t26 13t29 11t25.5 4.5q17 0 23 -14q14 -38 30 -73.5t37.5 -66t51.5 -53.5t73 -36q6 -2 10 -9t4 -14q0 -10 -10.5 -17.5t-24.5 -12.5t-27 -7.5t-17 -2.5 q-14 0 -23 4q-165 49 -236 183q-7 11 -7 31z" />
<glyph unicode="&#xe9;" horiz-adv-x="998" d="M32 465q0 138 41 259.5t111.5 213t165 144.5t202.5 53q81 0 149 -26.5t117 -78t76.5 -128.5t27.5 -179q0 -31 -2.5 -64t-7.5 -68q-6 -92 -106 -92q-145 2 -287 4.5t-286 5.5q4 -72 25.5 -121.5t56 -80t81 -44t100.5 -13.5q88 0 160 23t131 67q5 4 13.5 10t18 11t19 9 t17.5 4q17 0 31.5 -16t14.5 -39q0 -26 -19.5 -59t-47.5 -64.5t-59.5 -58t-56.5 -41.5q-146 -88 -301 -88q-48 0 -92.5 9.5t-84.5 30t-74.5 53.5t-62.5 80q-38 63 -54.5 134.5t-16.5 149.5zM269 689l419 -10q44 4 44 36q0 19 -9.5 39.5t-23 39t-29 33t-27.5 21.5 q-32 18 -66 28t-66 10q-81 0 -143.5 -51.5t-96.5 -145.5h-2zM448 1241q0 8 6 16t15 10q53 13 92.5 36.5t70 53.5t55.5 65.5t49 73.5q9 14 29 14q13 0 30 -4.5t32.5 -11t28.5 -13.5t19 -11q7 -5 10 -14t3 -20q0 -28 -14 -45q-107 -134 -311 -183q-13 -4 -30 -4q-7 0 -21 2.5 t-28.5 7t-25 11.5t-10.5 16z" />
<glyph unicode="&#xea;" horiz-adv-x="998" d="M32 465q0 138 41 259.5t111.5 213t165 144.5t202.5 53q81 0 149 -26.5t117 -78t76.5 -128.5t27.5 -179q0 -31 -2.5 -64t-7.5 -68q-6 -92 -106 -92q-145 2 -287 4.5t-286 5.5q4 -72 25.5 -121.5t56 -80t81 -44t100.5 -13.5q88 0 160 23t131 67q5 4 13.5 10t18 11t19 9 t17.5 4q17 0 31.5 -16t14.5 -39q0 -26 -19.5 -59t-47.5 -64.5t-59.5 -58t-56.5 -41.5q-146 -88 -301 -88q-48 0 -92.5 9.5t-84.5 30t-74.5 53.5t-62.5 80q-38 63 -54.5 134.5t-16.5 149.5zM269 689l419 -10q44 4 44 36q0 19 -9.5 39.5t-23 39t-29 33t-27.5 21.5 q-32 18 -66 28t-66 10q-81 0 -143.5 -51.5t-96.5 -145.5h-2zM359 1271q0 9 6.5 19t16.5 19.5t21.5 17.5t20.5 14q30 19 54 39t46 40t43.5 41t46.5 42q16 15 44 15q29 0 49.5 -10.5t36.5 -27.5t27.5 -37.5t22.5 -40.5q28 -51 95 -94q20 -13 20 -30q0 -12 -12 -26t-28.5 -26 t-34 -21.5t-27.5 -13.5q-51 27 -84 87t-71 60q-35 0 -79 -56q-12 -15 -26.5 -29.5t-29.5 -25.5t-30 -18t-29 -7q-19 0 -37 8.5t-31.5 19.5t-22 23t-8.5 18z" />
<glyph unicode="&#xeb;" horiz-adv-x="998" d="M32 465q0 138 41 259.5t111.5 213t165 144.5t202.5 53q81 0 149 -26.5t117 -78t76.5 -128.5t27.5 -179q0 -31 -2.5 -64t-7.5 -68q-6 -92 -106 -92q-145 2 -287 4.5t-286 5.5q4 -72 25.5 -121.5t56 -80t81 -44t100.5 -13.5q88 0 160 23t131 67q5 4 13.5 10t18 11t19 9 t17.5 4q17 0 31.5 -16t14.5 -39q0 -26 -19.5 -59t-47.5 -64.5t-59.5 -58t-56.5 -41.5q-146 -88 -301 -88q-48 0 -92.5 9.5t-84.5 30t-74.5 53.5t-62.5 80q-38 63 -54.5 134.5t-16.5 149.5zM269 689l419 -10q44 4 44 36q0 19 -9.5 39.5t-23 39t-29 33t-27.5 21.5 q-32 18 -66 28t-66 10q-81 0 -143.5 -51.5t-96.5 -145.5h-2zM325 1355q0 175 103 180q30 0 51.5 -15t36 -38.5t21.5 -53t7 -58.5q-2 -82 -30.5 -121t-83.5 -39q-105 0 -105 145zM666 1327q0 101 31.5 152t84.5 53q28 0 48 -12.5t33 -33t19 -47t6 -53.5q0 -89 -36.5 -134 t-89.5 -45q-96 0 -96 120z" />
<glyph unicode="&#xec;" horiz-adv-x="548" d="M32 176q0 89 60 94q30 2 48 18t24 48q21 109 34 218.5t28 215.5q1 5 1 10v10q0 12 -1 20.5t-6.5 15t-17 10t-31.5 4.5q-22 1 -41.5 6t-34.5 15.5t-24 28t-9 43.5q0 84 36.5 119t95.5 35q42 0 83.5 7.5t83.5 7.5q44 0 71.5 -13t42.5 -32t20.5 -41.5t5.5 -40.5 q0 -14 -2 -26.5t-5 -25.5q-36 -151 -67 -299.5t-65 -298.5q-4 -15 -4 -29q0 -30 26 -35q36 -7 58 -17.5t34 -25t16 -34t4 -44.5q0 -134 -124 -134h-8q-28 0 -56 -1t-56 -1q-52 0 -93 8t-69 27.5t-43 52.5t-15 84zM84 1429q0 14 4.5 27.5t13.5 21.5q6 4 17.5 10.5t26 13 t29 11t25.5 4.5q17 0 23 -14q14 -38 30 -73.5t37.5 -66t51.5 -53.5t73 -36q6 -2 10 -9t4 -14q0 -10 -10.5 -17.5t-24.5 -12.5t-27 -7.5t-17 -2.5q-14 0 -23 4q-165 49 -236 183q-7 11 -7 31z" />
<glyph unicode="&#xed;" horiz-adv-x="548" d="M32 176q0 89 60 94q30 2 48 18t24 48q21 109 34 218.5t28 215.5q1 5 1 10v10q0 12 -1 20.5t-6.5 15t-17 10t-31.5 4.5q-22 1 -41.5 6t-34.5 15.5t-24 28t-9 43.5q0 84 36.5 119t95.5 35q42 0 83.5 7.5t83.5 7.5q44 0 71.5 -13t42.5 -32t20.5 -41.5t5.5 -40.5 q0 -14 -2 -26.5t-5 -25.5q-36 -151 -67 -299.5t-65 -298.5q-4 -15 -4 -29q0 -30 26 -35q36 -7 58 -17.5t34 -25t16 -34t4 -44.5q0 -134 -124 -134h-8q-28 0 -56 -1t-56 -1q-52 0 -93 8t-69 27.5t-43 52.5t-15 84zM178 1241q0 8 6 16t15 10q53 13 92.5 36.5t70 53.5 t55.5 65.5t49 73.5q9 14 29 14q13 0 30 -4.5t32.5 -11t28.5 -13.5t19 -11q7 -5 10 -14t3 -20q0 -28 -14 -45q-107 -134 -311 -183q-13 -4 -30 -4q-7 0 -21 2.5t-28.5 7t-25 11.5t-10.5 16z" />
<glyph unicode="&#xee;" horiz-adv-x="548" d="M32 176q0 89 60 94q30 2 48 18t24 48q21 109 34 218.5t28 215.5q1 5 1 10v10q0 12 -1 20.5t-6.5 15t-17 10t-31.5 4.5q-22 1 -41.5 6t-34.5 15.5t-24 28t-9 43.5q0 84 36.5 119t95.5 35q42 0 83.5 7.5t83.5 7.5q44 0 71.5 -13t42.5 -32t20.5 -41.5t5.5 -40.5 q0 -14 -2 -26.5t-5 -25.5q-36 -151 -67 -299.5t-65 -298.5q-4 -15 -4 -29q0 -30 26 -35q36 -7 58 -17.5t34 -25t16 -34t4 -44.5q0 -134 -124 -134h-8q-28 0 -56 -1t-56 -1q-52 0 -93 8t-69 27.5t-43 52.5t-15 84zM59 1252q0 9 6.5 19t16.5 19.5t21.5 17.5t20.5 14 q30 19 54 39t46 40t43.5 41t46.5 42q16 15 44 15q29 0 49.5 -10.5t36.5 -27.5t27.5 -37.5t22.5 -40.5q28 -51 95 -94q20 -13 20 -30q0 -12 -12 -26t-28.5 -26t-34 -21.5t-27.5 -13.5q-51 27 -84 87t-71 60q-35 0 -79 -56q-12 -15 -26.5 -29.5t-29.5 -25.5t-30 -18t-29 -7 q-19 0 -37 8.5t-31.5 19.5t-22 23t-8.5 18z" />
<glyph unicode="&#xef;" horiz-adv-x="548" d="M32 176q0 89 60 94q30 2 48 18t24 48q21 109 34 218.5t28 215.5q1 5 1 10v10q0 12 -1 20.5t-6.5 15t-17 10t-31.5 4.5q-22 1 -41.5 6t-34.5 15.5t-24 28t-9 43.5q0 84 36.5 119t95.5 35q42 0 83.5 7.5t83.5 7.5q44 0 71.5 -13t42.5 -32t20.5 -41.5t5.5 -40.5 q0 -14 -2 -26.5t-5 -25.5q-36 -151 -67 -299.5t-65 -298.5q-4 -15 -4 -29q0 -30 26 -35q36 -7 58 -17.5t34 -25t16 -34t4 -44.5q0 -134 -124 -134h-8q-28 0 -56 -1t-56 -1q-52 0 -93 8t-69 27.5t-43 52.5t-15 84zM77 1355q0 175 103 180q30 0 51.5 -15t36 -38.5t21.5 -53 t7 -58.5q-2 -82 -30.5 -121t-83.5 -39q-105 0 -105 145zM418 1327q0 101 31.5 152t84.5 53q28 0 48 -12.5t33 -33t19 -47t6 -53.5q0 -89 -36.5 -134t-89.5 -45q-96 0 -96 120z" />
<glyph unicode="&#xf0;" horiz-adv-x="965" d="M32 449q0 82 17.5 162.5t50 153.5t78.5 135.5t102.5 108.5t122.5 73t139 29q-33 52 -78 96q-44 -30 -88 -56.5t-84.5 -47t-74 -34t-55.5 -17.5q-4 -1 -12 -1q-20 0 -33.5 16.5t-13.5 45.5q0 25 16 40q47 43 95 84t98 81q-28 16 -58.5 29.5t-63.5 25.5q-29 8 -41.5 30 t-12.5 57q0 9 5.5 20.5t17 22t28 18t38.5 7.5q6 0 11.5 -0.5t12.5 -1.5q122 -24 221 -75q22 21 46 45.5t46.5 45.5t43 35.5t37.5 14.5q20 0 35.5 -13.5t26 -32t15.5 -39t5 -33.5q0 -39 -25.5 -72t-65.5 -68q25 -24 48 -51q161 -190 198 -304q28 -89 40.5 -160.5t12.5 -143.5 q0 -69 -12 -142.5t-33.5 -141t-51.5 -124.5t-67 -95t-81 -69.5t-92.5 -54.5t-99.5 -36t-102 -13q-82 0 -155.5 35.5t-127.5 121.5q-42 66 -60.5 140t-18.5 153zM230 515q0 -51 12.5 -98t39 -84t66.5 -59t95 -22q55 1 108 23.5t93.5 66t65.5 106.5t25 145q0 55 -17 99.5 t-47 75.5t-71.5 47.5t-89.5 16.5q-55 0 -102 -20t-87 -58q-91 -90 -91 -239z" />
<glyph unicode="&#xf1;" horiz-adv-x="1103" d="M35 955q0 120 96 128q40 3 79 7.5t80 4.5q18 0 38 -0.5t37 -6.5t28.5 -18.5t13.5 -36.5q1 -42 1 -82v-80q19 49 53 90.5t77 72.5t93 48.5t103 17.5q70 0 123.5 -26.5t90.5 -71.5t56 -104t19 -123q0 -19 -2 -37.5t-5 -38.5q-16 -87 -39 -172t-37 -172q-2 -7 -2 -13v-12 q0 -55 47 -73q30 -12 36 -35t6 -68q0 -56 -14 -86t-37.5 -44.5t-55.5 -17t-68 -2.5q-39 0 -78 2.5t-77 4.5q-40 1 -62 39t-22 109q0 74 46 90q62 23 75 95q15 79 29 158t28 160q3 19 3 38q0 34 -11.5 58.5t-30 41t-41.5 24.5t-45 8q-38 0 -77.5 -16t-69.5 -36 q-105 -70 -129 -191q-13 -60 -24 -119t-23 -119q-3 -15 -3 -28q0 -50 52 -57q93 -15 93 -85q0 -56 -18.5 -90t-47.5 -53t-65.5 -25t-73.5 -6q-36 0 -72 2t-72 3q-50 1 -69 35.5t-19 104.5q0 112 57 129q10 3 17.5 11t12.5 19t8 24t5 26q16 91 27 183t24 185q1 11 1.5 20.5 t0.5 17.5q0 26 -7 42t-37 21q-66 11 -94 41.5t-28 83.5zM263 1313q0 17 13.5 33t27.5 27q23 18 48.5 40.5t52.5 42t55 33t56 13.5q29 0 55.5 -16.5t52.5 -51.5q22 -30 49 -49.5t51 -19.5q13 0 23.5 15t20.5 33.5t21.5 33.5t27.5 15q35 0 58.5 -15t23.5 -56q0 -36 -20.5 -70 t-51 -60t-65.5 -42t-64 -16q-88 0 -121 60q-38 68 -72 68q-35 0 -73 -50q-43 -55 -102 -55q-14 0 -26 9.5t-21 23t-14.5 28.5t-5.5 26z" />
<glyph unicode="&#xf2;" horiz-adv-x="994" d="M32 449q0 158 56 292.5t156 234.5q68 69 148.5 105t174.5 36q77 0 144 -27t116.5 -81.5t77.5 -138t28 -195.5q0 -69 -12 -142.5t-33.5 -141t-51.5 -124.5t-67 -95t-81 -69.5t-92.5 -54.5t-99.5 -36t-102 -13q-82 0 -155.5 35.5t-127.5 121.5q-42 66 -60.5 140t-18.5 153z M230 515q0 -51 12.5 -98t39 -84t66.5 -59t95 -22q55 1 108 23.5t93.5 66t65.5 106.5t25 145q0 55 -17 99.5t-47 75.5t-71.5 47.5t-89.5 16.5q-55 0 -102 -20t-87 -58q-91 -90 -91 -239zM413 1409q0 14 4.5 27.5t13.5 21.5q6 4 17.5 10.5t26 13t29 11t25.5 4.5q17 0 23 -14 q14 -38 30 -73.5t37.5 -66t51.5 -53.5t73 -36q6 -2 10 -9t4 -14q0 -10 -10.5 -17.5t-24.5 -12.5t-27 -7.5t-17 -2.5q-14 0 -23 4q-165 49 -236 183q-7 11 -7 31z" />
<glyph unicode="&#xf3;" horiz-adv-x="994" d="M32 449q0 158 56 292.5t156 234.5q68 69 148.5 105t174.5 36q77 0 144 -27t116.5 -81.5t77.5 -138t28 -195.5q0 -69 -12 -142.5t-33.5 -141t-51.5 -124.5t-67 -95t-81 -69.5t-92.5 -54.5t-99.5 -36t-102 -13q-82 0 -155.5 35.5t-127.5 121.5q-42 66 -60.5 140t-18.5 153z M230 515q0 -51 12.5 -98t39 -84t66.5 -59t95 -22q55 1 108 23.5t93.5 66t65.5 106.5t25 145q0 55 -17 99.5t-47 75.5t-71.5 47.5t-89.5 16.5q-55 0 -102 -20t-87 -58q-91 -90 -91 -239zM420 1233q0 8 6 16t15 10q53 13 92.5 36.5t70 53.5t55.5 65.5t49 73.5q9 14 29 14 q13 0 30 -4.5t32.5 -11t28.5 -13.5t19 -11q7 -5 10 -14t3 -20q0 -28 -14 -45q-107 -134 -311 -183q-13 -4 -30 -4q-7 0 -21 2.5t-28.5 7t-25 11.5t-10.5 16z" />
<glyph unicode="&#xf4;" horiz-adv-x="994" d="M32 449q0 158 56 292.5t156 234.5q68 69 148.5 105t174.5 36q77 0 144 -27t116.5 -81.5t77.5 -138t28 -195.5q0 -69 -12 -142.5t-33.5 -141t-51.5 -124.5t-67 -95t-81 -69.5t-92.5 -54.5t-99.5 -36t-102 -13q-82 0 -155.5 35.5t-127.5 121.5q-42 66 -60.5 140t-18.5 153z M230 515q0 -51 12.5 -98t39 -84t66.5 -59t95 -22q55 1 108 23.5t93.5 66t65.5 106.5t25 145q0 55 -17 99.5t-47 75.5t-71.5 47.5t-89.5 16.5q-55 0 -102 -20t-87 -58q-91 -90 -91 -239zM312 1238q0 9 6.5 19t16.5 19.5t21.5 17.5t20.5 14q30 19 54 39t46 40t43.5 41t46.5 42 q16 15 44 15q29 0 49.5 -10.5t36.5 -27.5t27.5 -37.5t22.5 -40.5q28 -51 95 -94q20 -13 20 -30q0 -12 -12 -26t-28.5 -26t-34 -21.5t-27.5 -13.5q-51 27 -84 87t-71 60q-35 0 -79 -56q-12 -15 -26.5 -29.5t-29.5 -25.5t-30 -18t-29 -7q-19 0 -37 8.5t-31.5 19.5t-22 23 t-8.5 18z" />
<glyph unicode="&#xf5;" horiz-adv-x="994" d="M32 449q0 158 56 292.5t156 234.5q68 69 148.5 105t174.5 36q77 0 144 -27t116.5 -81.5t77.5 -138t28 -195.5q0 -69 -12 -142.5t-33.5 -141t-51.5 -124.5t-67 -95t-81 -69.5t-92.5 -54.5t-99.5 -36t-102 -13q-82 0 -155.5 35.5t-127.5 121.5q-42 66 -60.5 140t-18.5 153z M230 515q0 -51 12.5 -98t39 -84t66.5 -59t95 -22q55 1 108 23.5t93.5 66t65.5 106.5t25 145q0 55 -17 99.5t-47 75.5t-71.5 47.5t-89.5 16.5q-55 0 -102 -20t-87 -58q-91 -90 -91 -239zM307 1301q0 17 13.5 33t27.5 27q23 18 48.5 40.5t52.5 42t55 33t56 13.5 q29 0 55.5 -16.5t52.5 -51.5q22 -30 49 -49.5t51 -19.5q13 0 23.5 15t20.5 33.5t21.5 33.5t27.5 15q35 0 58.5 -15t23.5 -56q0 -36 -20.5 -70t-51 -60t-65.5 -42t-64 -16q-88 0 -121 60q-38 68 -72 68q-35 0 -73 -50q-43 -55 -102 -55q-14 0 -26 9.5t-21 23t-14.5 28.5 t-5.5 26z" />
<glyph unicode="&#xf6;" horiz-adv-x="994" d="M32 449q0 158 56 292.5t156 234.5q68 69 148.5 105t174.5 36q77 0 144 -27t116.5 -81.5t77.5 -138t28 -195.5q0 -69 -12 -142.5t-33.5 -141t-51.5 -124.5t-67 -95t-81 -69.5t-92.5 -54.5t-99.5 -36t-102 -13q-82 0 -155.5 35.5t-127.5 121.5q-42 66 -60.5 140t-18.5 153z M230 515q0 -51 12.5 -98t39 -84t66.5 -59t95 -22q55 1 108 23.5t93.5 66t65.5 106.5t25 145q0 55 -17 99.5t-47 75.5t-71.5 47.5t-89.5 16.5q-55 0 -102 -20t-87 -58q-91 -90 -91 -239zM336 1325q0 175 103 180q30 0 51.5 -15t36 -38.5t21.5 -53t7 -58.5q-2 -82 -30.5 -121 t-83.5 -39q-105 0 -105 145zM677 1297q0 101 31.5 152t84.5 53q28 0 48 -12.5t33 -33t19 -47t6 -53.5q0 -89 -36.5 -134t-89.5 -45q-96 0 -96 120z" />
<glyph unicode="&#xf7;" horiz-adv-x="869" d="M31 444q0 19 6 34t15.5 26t20.5 17t20 6q23 1 47 1h47q84 0 166 -5.5t165 -5.5q101 0 203 12q8 1 14.5 1.5t12.5 0.5q48 0 66.5 -22t18.5 -66q0 -33 -9 -62.5t-26.5 -51.5t-43 -35.5t-57.5 -16.5q-33 -3 -69 -3q-50 0 -105.5 4.5t-111.5 13t-110 20t-101 25t-84 29 t-59 31.5q-26 17 -26 47zM285 59q0 175 103 180q30 0 51.5 -15t36 -38.5t21.5 -53t7 -58.5q-2 -82 -30.5 -121t-83.5 -39q-105 0 -105 145zM355 725q0 175 103 180q30 0 51.5 -15t36 -38.5t21.5 -53t7 -58.5q-2 -82 -30.5 -121t-83.5 -39q-105 0 -105 145z" />
<glyph unicode="&#xf8;" horiz-adv-x="994" d="M32 449q0 158 56 292.5t156 234.5q68 69 148.5 105t174.5 36q77 0 144 -27t116.5 -81.5t77.5 -138t28 -195.5q0 -69 -12 -142.5t-33.5 -141t-51.5 -124.5t-67 -95t-81 -69.5t-92.5 -54.5t-99.5 -36t-102 -13q-82 0 -155.5 35.5t-127.5 121.5q-42 66 -60.5 140t-18.5 153z M130 73q0 20 13 43q66 128 129 256.5t128 256.5t134 254t148 249q18 28 65 28q52 0 84.5 -23.5t32.5 -59.5q0 -27 -10.5 -58.5t-23.5 -58.5q-59 -121 -126 -236.5t-145 -229.5q-77 -113 -148 -226.5t-138 -229.5q-11 -19 -21.5 -26t-21.5 -7q-22 0 -40.5 6t-31.5 15.5 t-20.5 21.5t-7.5 25zM230 515q0 -51 12.5 -98t39 -84t66.5 -59t95 -22q55 1 108 23.5t93.5 66t65.5 106.5t25 145q0 55 -17 99.5t-47 75.5t-71.5 47.5t-89.5 16.5q-55 0 -102 -20t-87 -58q-91 -90 -91 -239z" />
<glyph unicode="&#xf9;" horiz-adv-x="1099" d="M38 913q0 30 29 85q27 50 79.5 76t127.5 26q45 0 75 -6.5t48 -20t26 -34.5t8 -49q0 -38 -13 -84q-30 -109 -52.5 -218t-40.5 -221q-4 -21 -5.5 -39.5t-1.5 -35.5q0 -126 106 -126q51 0 106 20.5t99 52.5q68 50 98 172q12 48 20 97t19 98q2 9 3 17t1 16q0 75 -81 99 q-74 21 -74 85q0 32 14 62.5t44.5 54.5t78 38.5t115.5 14.5q49 0 79.5 -8.5t48 -24t23.5 -36.5t6 -45q0 -12 -1.5 -25t-5.5 -27q-20 -75 -34.5 -150t-27.5 -150.5t-25 -151t-26 -150.5q-5 -13 -5 -22q0 -18 13 -27.5t39 -14.5q27 -5 44 -14.5t26 -23t12 -30.5t3 -36 q0 -49 -9 -80t-23 -49t-31.5 -26t-34.5 -10t-32 -0.5t-24 1.5q-38 0 -69.5 3.5t-55 14t-38.5 29.5t-20 49q-5 27 -13 53.5t-13 53.5q-54 -101 -118.5 -151.5t-150.5 -50.5q-57 0 -112.5 21.5t-99.5 63t-71 101t-27 136.5q0 59 17 133q15 69 28 140t29 141q4 17 4 36 q0 65 -63 82q-30 8 -50.5 23.5t-20.5 41.5zM350 1406q0 14 4.5 27.5t13.5 21.5q6 4 17.5 10.5t26 13t29 11t25.5 4.5q17 0 23 -14q14 -38 30 -73.5t37.5 -66t51.5 -53.5t73 -36q6 -2 10 -9t4 -14q0 -10 -10.5 -17.5t-24.5 -12.5t-27 -7.5t-17 -2.5q-14 0 -23 4 q-165 49 -236 183q-7 11 -7 31z" />
<glyph unicode="&#xfa;" horiz-adv-x="1099" d="M38 913q0 30 29 85q27 50 79.5 76t127.5 26q45 0 75 -6.5t48 -20t26 -34.5t8 -49q0 -38 -13 -84q-30 -109 -52.5 -218t-40.5 -221q-4 -21 -5.5 -39.5t-1.5 -35.5q0 -126 106 -126q51 0 106 20.5t99 52.5q68 50 98 172q12 48 20 97t19 98q2 9 3 17t1 16q0 75 -81 99 q-74 21 -74 85q0 32 14 62.5t44.5 54.5t78 38.5t115.5 14.5q49 0 79.5 -8.5t48 -24t23.5 -36.5t6 -45q0 -12 -1.5 -25t-5.5 -27q-20 -75 -34.5 -150t-27.5 -150.5t-25 -151t-26 -150.5q-5 -13 -5 -22q0 -18 13 -27.5t39 -14.5q27 -5 44 -14.5t26 -23t12 -30.5t3 -36 q0 -49 -9 -80t-23 -49t-31.5 -26t-34.5 -10t-32 -0.5t-24 1.5q-38 0 -69.5 3.5t-55 14t-38.5 29.5t-20 49q-5 27 -13 53.5t-13 53.5q-54 -101 -118.5 -151.5t-150.5 -50.5q-57 0 -112.5 21.5t-99.5 63t-71 101t-27 136.5q0 59 17 133q15 69 28 140t29 141q4 17 4 36 q0 65 -63 82q-30 8 -50.5 23.5t-20.5 41.5zM479 1177q0 8 6 16t15 10q53 13 92.5 36.5t70 53.5t55.5 65.5t49 73.5q9 14 29 14q13 0 30 -4.5t32.5 -11t28.5 -13.5t19 -11q7 -5 10 -14t3 -20q0 -28 -14 -45q-107 -134 -311 -183q-13 -4 -30 -4q-7 0 -21 2.5t-28.5 7t-25 11.5 t-10.5 16z" />
<glyph unicode="&#xfb;" horiz-adv-x="1099" d="M38 913q0 30 29 85q27 50 79.5 76t127.5 26q45 0 75 -6.5t48 -20t26 -34.5t8 -49q0 -38 -13 -84q-30 -109 -52.5 -218t-40.5 -221q-4 -21 -5.5 -39.5t-1.5 -35.5q0 -126 106 -126q51 0 106 20.5t99 52.5q68 50 98 172q12 48 20 97t19 98q2 9 3 17t1 16q0 75 -81 99 q-74 21 -74 85q0 32 14 62.5t44.5 54.5t78 38.5t115.5 14.5q49 0 79.5 -8.5t48 -24t23.5 -36.5t6 -45q0 -12 -1.5 -25t-5.5 -27q-20 -75 -34.5 -150t-27.5 -150.5t-25 -151t-26 -150.5q-5 -13 -5 -22q0 -18 13 -27.5t39 -14.5q27 -5 44 -14.5t26 -23t12 -30.5t3 -36 q0 -49 -9 -80t-23 -49t-31.5 -26t-34.5 -10t-32 -0.5t-24 1.5q-38 0 -69.5 3.5t-55 14t-38.5 29.5t-20 49q-5 27 -13 53.5t-13 53.5q-54 -101 -118.5 -151.5t-150.5 -50.5q-57 0 -112.5 21.5t-99.5 63t-71 101t-27 136.5q0 59 17 133q15 69 28 140t29 141q4 17 4 36 q0 65 -63 82q-30 8 -50.5 23.5t-20.5 41.5zM324 1275q0 9 6.5 19t16.5 19.5t21.5 17.5t20.5 14q30 19 54 39t46 40t43.5 41t46.5 42q16 15 44 15q29 0 49.5 -10.5t36.5 -27.5t27.5 -37.5t22.5 -40.5q28 -51 95 -94q20 -13 20 -30q0 -12 -12 -26t-28.5 -26t-34 -21.5 t-27.5 -13.5q-51 27 -84 87t-71 60q-35 0 -79 -56q-12 -15 -26.5 -29.5t-29.5 -25.5t-30 -18t-29 -7q-19 0 -37 8.5t-31.5 19.5t-22 23t-8.5 18z" />
<glyph unicode="&#xfc;" horiz-adv-x="1099" d="M38 913q0 30 29 85q27 50 79.5 76t127.5 26q45 0 75 -6.5t48 -20t26 -34.5t8 -49q0 -38 -13 -84q-30 -109 -52.5 -218t-40.5 -221q-4 -21 -5.5 -39.5t-1.5 -35.5q0 -126 106 -126q51 0 106 20.5t99 52.5q68 50 98 172q12 48 20 97t19 98q2 9 3 17t1 16q0 75 -81 99 q-74 21 -74 85q0 32 14 62.5t44.5 54.5t78 38.5t115.5 14.5q49 0 79.5 -8.5t48 -24t23.5 -36.5t6 -45q0 -12 -1.5 -25t-5.5 -27q-20 -75 -34.5 -150t-27.5 -150.5t-25 -151t-26 -150.5q-5 -13 -5 -22q0 -18 13 -27.5t39 -14.5q27 -5 44 -14.5t26 -23t12 -30.5t3 -36 q0 -49 -9 -80t-23 -49t-31.5 -26t-34.5 -10t-32 -0.5t-24 1.5q-38 0 -69.5 3.5t-55 14t-38.5 29.5t-20 49q-5 27 -13 53.5t-13 53.5q-54 -101 -118.5 -151.5t-150.5 -50.5q-57 0 -112.5 21.5t-99.5 63t-71 101t-27 136.5q0 59 17 133q15 69 28 140t29 141q4 17 4 36 q0 65 -63 82q-30 8 -50.5 23.5t-20.5 41.5zM305 1337q0 175 103 180q30 0 51.5 -15t36 -38.5t21.5 -53t7 -58.5q-2 -82 -30.5 -121t-83.5 -39q-105 0 -105 145zM646 1309q0 101 31.5 152t84.5 53q28 0 48 -12.5t33 -33t19 -47t6 -53.5q0 -89 -36.5 -134t-89.5 -45 q-96 0 -96 120z" />
<glyph unicode="&#xfd;" horiz-adv-x="1120" d="M35 959q-1 9 0 18q0 52 26 84t91 32q69 0 137 -2.5t137 -4.5q79 -5 86 -62q6 -59 6 -110q0 -52 -54 -62q-98 -20 -98 -69q0 -8 3 -17q17 -63 33.5 -128t34 -130t37 -129.5t43.5 -125.5q78 125 145.5 257.5t131.5 268.5q6 15 6 26q0 17 -14.5 23.5t-43.5 6.5q-60 0 -86 34 t-26 103q0 28 5 50.5t17.5 38t35 24t57.5 9.5q55 1 108.5 5t108.5 4q60 0 84.5 -31t24.5 -92q0 -90 -50 -169q-80 -126 -151 -257.5t-139.5 -264t-137.5 -265t-145 -261.5q-65 -109 -121.5 -159.5t-110.5 -50.5q-31 1 -57.5 18t-46 48.5t-30.5 77t-11 104.5q0 45 12.5 68 t34.5 23q10 0 22 -6.5t24.5 -15t25 -15t24.5 -6.5q22 0 44.5 15.5t42 37.5t35 47t24.5 43q8 16 11.5 35t3.5 39q0 26 -6 56q-63 157 -124 312t-121 312q-4 11 -17.5 36.5t-28 55t-26.5 58t-14 45.5q-2 9 -3 18zM458 1203q0 8 6 16t15 10q53 13 92.5 36.5t70 53.5t55.5 65.5 t49 73.5q9 14 29 14q13 0 30 -4.5t32.5 -11t28.5 -13.5t19 -11q7 -5 10 -14t3 -20q0 -28 -14 -45q-107 -134 -311 -183q-13 -4 -30 -4q-7 0 -21 2.5t-28.5 7t-25 11.5t-10.5 16z" />
<glyph unicode="&#xfe;" horiz-adv-x="1107" d="M55 -217q0 41 12 108.5t28.5 148.5t34.5 169.5t30 171.5t42.5 277.5t79.5 504.5q9 28 9 51q0 18 -10 27.5t-39 9.5q-5 -1 -10.5 -1h-10.5q-102 0 -102 81q0 18 6 42q3 108 67 129q57 19 116 29.5t122 14.5q68 -12 68 -61v-76q0 -20 -12 -143t-35 -350q4 2 17 15.5 t30.5 31.5t37 37t36.5 31q83 59 173 59q78 0 137.5 -33.5t99 -90.5t59.5 -132.5t20 -160.5q0 -74 -14.5 -153.5t-42.5 -156t-68.5 -145t-93 -120t-115.5 -82t-136 -30.5q-38 0 -74 10t-69.5 33.5t-63.5 61t-56 92.5q-25 -109 -52 -216.5t-49 -218.5q-27 -136 -74 -136 q-9 0 -25.5 10.5t-32.5 31.5t-28 53t-12 76zM396 476q0 -50 14 -92.5t41 -73.5t66.5 -48.5t90.5 -17.5q52 0 97 26t78 71.5t52 107t19 132.5q0 57 -15.5 102t-41.5 76t-60 47t-71 16q-78 0 -153 -69q-54 -50 -85.5 -122t-31.5 -155z" />
<glyph unicode="&#xff;" horiz-adv-x="1120" d="M35 959q-1 9 0 18q0 52 26 84t91 32q69 0 137 -2.5t137 -4.5q79 -5 86 -62q6 -59 6 -110q0 -52 -54 -62q-98 -20 -98 -69q0 -8 3 -17q17 -63 33.5 -128t34 -130t37 -129.5t43.5 -125.5q78 125 145.5 257.5t131.5 268.5q6 15 6 26q0 17 -14.5 23.5t-43.5 6.5q-60 0 -86 34 t-26 103q0 28 5 50.5t17.5 38t35 24t57.5 9.5q55 1 108.5 5t108.5 4q60 0 84.5 -31t24.5 -92q0 -90 -50 -169q-80 -126 -151 -257.5t-139.5 -264t-137.5 -265t-145 -261.5q-65 -109 -121.5 -159.5t-110.5 -50.5q-31 1 -57.5 18t-46 48.5t-30.5 77t-11 104.5q0 45 12.5 68 t34.5 23q10 0 22 -6.5t24.5 -15t25 -15t24.5 -6.5q22 0 44.5 15.5t42 37.5t35 47t24.5 43q8 16 11.5 35t3.5 39q0 26 -6 56q-63 157 -124 312t-121 312q-4 11 -17.5 36.5t-28 55t-26.5 58t-14 45.5q-2 9 -3 18zM328 1344q0 175 103 180q30 0 51.5 -15t36 -38.5t21.5 -53 t7 -58.5q-2 -82 -30.5 -121t-83.5 -39q-105 0 -105 145zM669 1316q0 101 31.5 152t84.5 53q28 0 48 -12.5t33 -33t19 -47t6 -53.5q0 -89 -36.5 -134t-89.5 -45q-96 0 -96 120z" />
<glyph unicode="&#x152;" horiz-adv-x="1946" d="M69 567q0 112 18 221t52 210t82.5 191t108.5 164q179 220 429 220q73 0 139 -26q92 2 183.5 4.5t184.5 4.5l401 10q68 0 108 -8.5t61 -30t27 -58t6 -92.5q0 -39 -3.5 -83.5t-10 -89t-15.5 -85.5t-20 -72.5t-24 -50.5t-27 -19q-21 0 -40.5 8.5t-34 22.5t-23 31.5 t-8.5 36.5q0 24 6 52t6 50q0 52 -24.5 82t-92.5 32q-94 2 -185 4t-184 2l-84 -352q25 -3 50 -3q56 0 96 16t63 66q6 13 11.5 25t14.5 22t21.5 16t32.5 6q55 0 83 -19t28 -51q0 -10 -2 -20t-6 -22q-30 -88 -53 -177t-39 -168q-5 -26 -15.5 -51.5t-25 -45t-33 -31.5t-40.5 -12 q-35 0 -51.5 24t-16.5 62q0 14 2.5 28.5t2.5 28.5q0 74 -89 74q-23 0 -45 -2.5t-45 -3.5l-103 -436q69 -5 134 -7.5t137 -2.5q37 0 73 0.5t67.5 5.5t58.5 17.5t47 36.5q23 27 44 62t38 77q21 52 49.5 84.5t59.5 32.5q23 0 36 -25t13 -60v-11t-1 -12q-6 -53 -12 -95.5 t-12.5 -82.5t-15.5 -81t-22 -92q-9 -34 -24.5 -56t-41.5 -35t-64 -18t-92 -5h-9q-102 1 -178.5 3t-135.5 5t-102 6t-76.5 5.5t-60.5 4t-53 1.5q-16 0 -35 -1t-40 -3l-8 -1q-84 -34 -166 -38q-5 0 -10 -0.5t-10 -0.5q-199 0 -352 194q-113 141 -113 387zM306 658 q0 -92 19.5 -159t53.5 -110.5t81 -64t101 -20.5q89 0 162 40q33 109 62 219.5t54 225.5q39 205 39 314q0 88 -25 114q-56 60 -90 61h-14q-141 0 -269 -112q-89 -78 -131.5 -207.5t-42.5 -300.5z" />
<glyph unicode="&#x153;" horiz-adv-x="1655" d="M32 449q0 84 18.5 166.5t52.5 157t82 137.5t107.5 109t129 72t145.5 26q106 0 181.5 -45.5t132.5 -137.5q75 100 168 150.5t202 50.5q81 0 149 -26.5t117 -78t76.5 -128.5t27.5 -179q0 -31 -2.5 -64t-7.5 -68q-6 -92 -106 -92q-145 2 -287 4.5t-286 5.5 q4 -72 25.5 -121.5t56 -80t81 -44t100.5 -13.5q88 0 160 23t131 67q5 4 13.5 10t18 11t19 9t17.5 4q17 0 31.5 -16t14.5 -39q0 -26 -19.5 -59t-47.5 -64.5t-59.5 -58t-56.5 -41.5q-146 -88 -301 -88q-95 0 -177 39t-137 134l-10 17q-34 -44 -81 -80.5t-100 -62.5t-109 -41 t-108 -15q-82 0 -155.5 35.5t-127.5 121.5q-42 66 -60.5 140t-18.5 153zM230 515q0 -51 12.5 -98t39 -84t66.5 -59t95 -22q55 1 108 23.5t93.5 66t65.5 106.5t25 145q0 55 -17 99.5t-47 75.5t-71.5 47.5t-89.5 16.5q-55 0 -102 -20t-87 -58q-91 -90 -91 -239zM970 689 l417 -10q44 4 44 36q0 19 -9.5 39.5t-23 39t-29 33t-27.5 21.5q-32 18 -66 28t-66 10q-81 0 -143.5 -51.5t-96.5 -145.5z" />
<glyph unicode="&#x178;" horiz-adv-x="948" d="M42 1422q0 74 92 107l4 2q0 1 -2 1q39 2 77 4t76 2q57 0 116 -4t107.5 -19.5t79 -47.5t30.5 -88q0 -48 -23.5 -70.5t-71.5 -24.5q-45 -2 -45 -29q0 -7 5 -20q10 -24 24 -58.5t29 -72t30 -74.5t27 -66.5t20.5 -47.5t10.5 -18t10 10t18 25q21 34 46 66t51.5 63t52 62 t48.5 64q9 15 9 36q0 20 -34 31q-101 32 -101 130q0 37 12 64.5t41 46t77 27.5t120 9q42 0 88 -2.5t96 -8.5q101 -12 101 -93q0 -57 -21 -98.5t-49 -63.5q-65 -52 -124 -119.5t-114.5 -142.5t-110 -153.5t-109.5 -152.5q-26 -35 -33 -73.5t-11 -82.5q-2 -26 -8.5 -52.5 l-13 -53t-11.5 -52.5t-5 -52q0 -50 49 -52q42 -2 76.5 -7.5t60 -17t39.5 -30.5t14 -48q0 -24 -9 -57q-35 -120 -108 -120q-140 3 -278.5 2.5t-277.5 11.5q-79 8 -79 114q0 16 2 32.5t8 31t18 25t33 15.5q34 7 65.5 13.5t61.5 13.5q61 14 77 95q6 33 15 68.5t16.5 70.5t13 69 t5.5 65q0 83 -38 168q-48 106 -87 216.5t-82 219.5q-8 20 -36 20h-7q-6 -1 -11.5 -1h-10.5q-106 0 -132 119v4q-9 27 -9 49zM420 1745q0 175 103 180q30 0 51.5 -15t36 -38.5t21.5 -53t7 -58.5q-2 -82 -30.5 -121t-83.5 -39q-105 0 -105 145zM761 1717q0 101 31.5 152 t84.5 53q28 0 48 -12.5t33 -33t19 -47t6 -53.5q0 -89 -36.5 -134t-89.5 -45q-96 0 -96 120z" />
<glyph unicode="&#x2c6;" horiz-adv-x="608" d="M22 936q0 9 6.5 19t16.5 19.5t21.5 17.5t20.5 14q30 19 54 39t46 40t43.5 41t46.5 42q16 15 44 15q29 0 49.5 -10.5t36.5 -27.5t27.5 -37.5t22.5 -40.5q28 -51 95 -94q20 -13 20 -30q0 -12 -12 -26t-28.5 -26t-34 -21.5t-27.5 -13.5q-51 27 -84 87t-71 60q-35 0 -79 -56 q-12 -15 -26.5 -29.5t-29.5 -25.5t-30 -18t-29 -7q-19 0 -37 8.5t-31.5 19.5t-22 23t-8.5 18z" />
<glyph unicode="&#x2dc;" horiz-adv-x="679" d="M22 911q0 17 13.5 33t27.5 27q23 18 48.5 40.5t52.5 42t55 33t56 13.5q29 0 55.5 -16.5t52.5 -51.5q22 -30 49 -49.5t51 -19.5q13 0 23.5 15t20.5 33.5t21.5 33.5t27.5 15q35 0 58.5 -15t23.5 -56q0 -36 -20.5 -70t-51 -60t-65.5 -42t-64 -16q-88 0 -121 60 q-38 68 -72 68q-35 0 -73 -50q-43 -55 -102 -55q-14 0 -26 9.5t-21 23t-14.5 28.5t-5.5 26z" />
<glyph unicode="&#x2000;" horiz-adv-x="986" />
<glyph unicode="&#x2001;" horiz-adv-x="1972" />
<glyph unicode="&#x2002;" horiz-adv-x="986" />
<glyph unicode="&#x2003;" horiz-adv-x="1972" />
<glyph unicode="&#x2004;" horiz-adv-x="657" />
<glyph unicode="&#x2005;" horiz-adv-x="493" />
<glyph unicode="&#x2006;" horiz-adv-x="328" />
<glyph unicode="&#x2007;" horiz-adv-x="328" />
<glyph unicode="&#x2008;" horiz-adv-x="246" />
<glyph unicode="&#x2009;" horiz-adv-x="394" />
<glyph unicode="&#x200a;" horiz-adv-x="109" />
<glyph unicode="&#x2010;" horiz-adv-x="807" d="M43 377q0 41 64 73q69 34 141.5 44.5t161.5 10.5q51 0 103.5 -2t106.5 -6q137 -11 137 -91q0 -22 -5.5 -41t-13 -34t-15.5 -25t-14 -13q-18 -11 -48 -16.5t-64.5 -8t-70.5 -3t-66 -0.5q-76 0 -150.5 5t-147.5 13q-50 5 -84.5 29.5t-34.5 64.5z" />
<glyph unicode="&#x2011;" horiz-adv-x="807" d="M43 377q0 41 64 73q69 34 141.5 44.5t161.5 10.5q51 0 103.5 -2t106.5 -6q137 -11 137 -91q0 -22 -5.5 -41t-13 -34t-15.5 -25t-14 -13q-18 -11 -48 -16.5t-64.5 -8t-70.5 -3t-66 -0.5q-76 0 -150.5 5t-147.5 13q-50 5 -84.5 29.5t-34.5 64.5z" />
<glyph unicode="&#x2012;" horiz-adv-x="807" d="M43 377q0 41 64 73q69 34 141.5 44.5t161.5 10.5q51 0 103.5 -2t106.5 -6q137 -11 137 -91q0 -22 -5.5 -41t-13 -34t-15.5 -25t-14 -13q-18 -11 -48 -16.5t-64.5 -8t-70.5 -3t-66 -0.5q-76 0 -150.5 5t-147.5 13q-50 5 -84.5 29.5t-34.5 64.5z" />
<glyph unicode="&#x2013;" horiz-adv-x="869" d="M31 444q0 19 6 34t15.5 26t20.5 17t20 6q23 1 47 1h47q84 0 166 -5.5t165 -5.5q101 0 203 12q8 1 14.5 1.5t12.5 0.5q48 0 66.5 -22t18.5 -66q0 -33 -9 -62.5t-26.5 -51.5t-43 -35.5t-57.5 -16.5q-33 -3 -69 -3q-50 0 -105.5 4.5t-111.5 13t-110 20t-101 25t-84 29 t-59 31.5q-26 17 -26 47z" />
<glyph unicode="&#x2014;" horiz-adv-x="1254" d="M37 447q0 19 9 35t22.5 27.5t29.5 18t30 6.5q30 1 60 1h61q127 0 251 -6t250 -6q75 0 150 3t150 10q11 1 20.5 1.5t19.5 0.5q69 0 97 -22.5t28 -68.5q0 -35 -14 -64.5t-39.5 -52t-63 -36.5t-83.5 -17q-50 -3 -104 -3q-77 0 -160 5t-166 14t-161.5 21t-146 26t-120 29.5 t-82.5 30.5q-38 18 -38 47z" />
<glyph unicode="&#x2018;" horiz-adv-x="357" d="M12 907q2 109 20 201t50 172t78 149t104 132q24 25 40 25q9 0 16 -9t12.5 -21t8 -23.5t2.5 -15.5q0 -5 -2 -9q-64 -135 -91.5 -287t-28.5 -330q0 -21 -7 -41t-20.5 -36.5t-34.5 -26.5t-48 -11q-36 0 -56 11t-29.5 29t-11.5 41.5t-2 49.5z" />
<glyph unicode="&#x2019;" horiz-adv-x="357" d="M14 866q0 8 2 11q63 135 91 287t29 330q0 21 7 41t20.5 36.5t34.5 26.5t48 11q34 0 53.5 -10t29.5 -26.5t12.5 -38.5t2.5 -47q0 -110 -17.5 -204t-50 -175t-79 -151.5t-104.5 -132.5q-24 -26 -41 -26q-9 0 -16.5 9t-12 21t-7 23t-2.5 15z" />
<glyph unicode="&#x201a;" horiz-adv-x="356" d="M14 -374q0 7 2 10q63 135 91 286.5t29 329.5q0 21 7 41t20.5 36.5t34.5 26.5t48 11q34 0 53.5 -10t29.5 -27t12.5 -39t2.5 -46q0 -110 -17.5 -203.5t-50 -174.5t-79 -151.5t-104.5 -133.5q-24 -25 -40 -25q-10 0 -17 9t-12 21t-7.5 23t-2.5 16z" />
<glyph unicode="&#x201c;" horiz-adv-x="691" d="M21 907q2 109 20 201t50 172t78 149t104 132q24 25 40 25q9 0 16 -9t12.5 -21t8 -23.5t2.5 -15.5q0 -5 -2 -9q-64 -135 -91.5 -287t-28.5 -330q0 -21 -7 -41t-20.5 -36.5t-34.5 -26.5t-48 -11q-36 0 -56 11t-29.5 29t-11.5 41.5t-2 49.5zM337 898q0 110 17.5 204t50 175 t79 151t104.5 133q24 25 40 25q9 0 16 -9t12.5 -21t8 -23.5t2.5 -15.5q0 -5 -2 -9q-63 -135 -91 -287t-29 -330q0 -21 -7 -41t-20.5 -36.5t-34.5 -26.5t-48 -11q-35 0 -54.5 10t-29.5 27t-12 39t-2 46z" />
<glyph unicode="&#x201d;" horiz-adv-x="691" d="M24 866q0 8 2 11q63 135 91 287t29 330q0 21 7 41t20.5 36.5t34.5 26.5t48 11q34 0 53.5 -10t29.5 -26.5t12.5 -38.5t2.5 -47q0 -110 -17.5 -204t-50 -175t-79 -151.5t-104.5 -132.5q-24 -26 -41 -26q-9 0 -16.5 9t-12 21t-7 23t-2.5 15zM339 866q0 8 2 11 q64 135 91.5 287t28.5 330q0 21 7 41t20.5 36.5t34.5 26.5t48 11q35 0 55 -10.5t29.5 -28.5t12 -41.5t2.5 -50.5q-2 -108 -20 -200t-50 -172t-78 -149.5t-104 -132.5q-24 -26 -41 -26q-9 0 -16.5 9t-12 21t-7 23t-2.5 15z" />
<glyph unicode="&#x201e;" horiz-adv-x="691" d="M24 -374q0 7 2 10q63 135 91 286.5t29 329.5q0 21 7 41t20.5 36.5t34.5 26.5t48 11q34 0 53.5 -10t29.5 -27t12.5 -39t2.5 -46q0 -110 -17.5 -203.5t-50 -174.5t-79 -151.5t-104.5 -133.5q-24 -25 -40 -25q-10 0 -17 9t-12 21t-7.5 23t-2.5 16zM339 -374q0 7 2 10 q64 135 91.5 286.5t28.5 329.5q0 21 7 41t20.5 36.5t34.5 26.5t48 11q36 0 55.5 -11t29.5 -29.5t12 -42t2 -48.5q-2 -108 -20 -200t-50.5 -172t-78 -149.5t-103.5 -132.5q-24 -25 -40 -25q-10 0 -17 9t-12 21t-7.5 23t-2.5 16z" />
<glyph unicode="&#x2022;" horiz-adv-x="594" d="M102 626v11t1 12q6 69 29 122t57.5 89t76 54.5t85.5 18.5q41 0 70 -17t47.5 -42.5t27 -57t8.5 -59.5q-4 -82 -29 -144.5t-61.5 -104.5t-79.5 -63t-83 -21q-26 0 -52 16.5t-48 44.5t-35.5 64.5t-13.5 76.5z" />
<glyph unicode="&#x2026;" horiz-adv-x="1102" d="M34 144q0 3 0.5 6.5t0.5 7.5q4 46 20.5 81.5t40.5 59.5t53 36t59 12q28 0 48.5 -11t33.5 -28t19 -38t6 -40q-2 -54 -19.5 -95.5t-43 -69t-56 -42t-58.5 -14.5q-18 0 -36.5 11t-33.5 30t-24.5 43t-9.5 51zM412 144q0 3 0.5 6.5t0.5 7.5q4 46 20.5 81.5t40.5 59.5t53 36 t59 12q28 0 48.5 -11t33.5 -28t19 -38t6 -40q-2 -54 -19.5 -95.5t-43 -69t-56 -42t-58.5 -14.5q-18 0 -36.5 11t-33.5 30t-24.5 43t-9.5 51zM790 144q0 3 0.5 6.5t0.5 7.5q4 46 20.5 81.5t40.5 59.5t53 36t59 12q28 0 48.5 -11t33.5 -28t19 -38t6 -40q-2 -54 -19.5 -95.5 t-43 -69t-56 -42t-58.5 -14.5q-18 0 -36.5 11t-33.5 30t-24.5 43t-9.5 51z" />
<glyph unicode="&#x202f;" horiz-adv-x="394" />
<glyph unicode="&#x2039;" horiz-adv-x="422" d="M21 433q0 18 14 37q48 60 98 112.5t101 109.5q34 37 75 37q16 0 31.5 -4.5t28 -13t20 -20t7.5 -24.5q0 -21 -22 -49.5t-52 -59.5t-61 -62t-48 -58q-9 -15 -9 -30q0 -13 7 -26q24 -52 57 -100t61 -97q5 -9 7.5 -18t2.5 -17q0 -19 -14 -36.5t-32 -17.5q-17 0 -38.5 15 t-43 37t-40.5 47t-31 45q-43 73 -101 149q-18 22 -18 44z" />
<glyph unicode="&#x203a;" horiz-adv-x="422" d="M25 157q0 22 22 50.5t52 59.5t61 62.5t49 59.5q8 12 8 29q0 13 -6 28q-24 51 -50.5 101t-54.5 101q-13 23 -13 39t11 30t26 14q17 0 38.5 -15t42.5 -37.5t39.5 -47.5t30.5 -44q23 -37 48 -74t54 -75q17 -23 17 -44q0 -20 -13 -36q-48 -61 -98 -113.5t-101 -109.5 q-33 -38 -75 -38q-16 0 -32 5t-28.5 13t-20 19t-7.5 23z" />
<glyph unicode="&#x205f;" horiz-adv-x="493" />
<glyph unicode="&#x20ac;" horiz-adv-x="1068" d="M18 530q0 28 50 49q10 4 19.5 7t19.5 6q1 29 3.5 59t6.5 62q-23 6 -39 21t-16 35q0 32 75 58q24 111 66.5 204.5t103 162t138 106.5t171.5 38q42 0 76 -9.5t61 -26t47 -38.5t35 -47q10 -17 17 -17q6 0 12 17q22 87 78 87q25 0 37 -19t16 -45.5t3 -56t-1 -50.5 q0 -32 -3 -75t-8 -89.5t-13.5 -91t-18.5 -80t-23 -57.5t-28 -22q-18 0 -29.5 9t-18 22t-9.5 28.5t-4 27.5q-11 73 -35 126.5t-59 88t-79.5 51.5t-96.5 17q-39 0 -75.5 -16t-69 -46t-60 -73.5t-48.5 -98.5h37q48 0 111 -1.5t142 -3.5q107 -8 107 -62q0 -29 -9 -46t-22.5 -26 t-29 -12t-29.5 -4q-159 -6 -250 -6q-27 0 -49.5 0.5t-45.5 2.5q-6 -17 -6 -40.5t-1 -40.5h33q46 0 94 -1t87 -7t64 -19.5t25 -38.5q0 -29 -14 -50.5t-23 -25.5q-17 -8 -42.5 -12t-54.5 -5.5t-59 -1.5h-55h-31h-11q23 -97 71 -144.5t133 -47.5q42 0 82.5 18t79.5 49.5 t76.5 73.5t74.5 91q19 27 43 27q22 0 38 -20.5t16 -43.5q0 -20 -7 -40q-32 -95 -76.5 -170t-99 -127t-116 -79.5t-125.5 -27.5q-74 0 -138 31t-112.5 89.5t-79.5 143t-38 190.5q-39 5 -65 21t-26 42z" />
<glyph unicode="&#x2122;" horiz-adv-x="1414" d="M30 1351v39q0 21 2 47t9.5 49.5t21.5 40.5t38 20q63 9 126 13.5t127 3.5q48 0 94.5 -2.5t94.5 -5.5q20 -2 30.5 -21t10.5 -36t-2 -42t-5.5 -52.5t-8.5 -55t-12 -49t-16 -35t-19 -13.5q-11 0 -18.5 7.5t-12 18.5t-6.5 24.5t-2 24.5q0 17 4.5 41.5t4.5 40.5q0 25 -11 31 q-25 -1 -53.5 -2t-58.5 -2l-92 -426q26 1 51.5 3.5t51.5 2.5q32 0 40.5 -12.5t8.5 -35.5q0 -29 -8.5 -50.5t-13.5 -26.5q-7 -7 -43 -11.5t-85 -4.5q-57 0 -112.5 5t-96.5 13q-11 2 -21.5 16.5t-10.5 37.5q0 24 14 35t35 15t45.5 3.5t44.5 0.5q28 105 47 214.5t31 218.5 l-68 -2t-65 -2q-5 -3 -8.5 -16.5t-6.5 -32t-6.5 -40t-8 -39t-10.5 -29.5t-14 -12q-15 0 -22.5 14t-11 34t-3.5 42zM550 949q0 18 14.5 29.5t46.5 12.5q32 112 53 230.5t34 236.5q-40 5 -61.5 10.5t-21.5 22.5q0 6 1 15t5 18t12.5 17t24.5 12q47 11 95 11q36 0 59.5 -4.5 t37.5 -14t20.5 -23.5t8.5 -33q2 -23 6 -63.5t9 -87.5t11 -95.5t12 -88t13 -64.5t14 -25q8 0 14 11q48 103 94 207t95 207l2 4q1 0 1 -4q30 70 132 70q39 0 62.5 -9t23.5 -27q0 -12 -5.5 -25t-13.5 -24.5t-17.5 -21.5t-17.5 -17l-68 -448q11 1 23.5 2t23.5 1q27 0 40 -17 t13 -44q0 -13 -7 -23t-16.5 -16.5t-19 -10.5t-13.5 -5q-32 -5 -64.5 -7t-64.5 -2q-23 0 -38.5 1t-25 4.5t-13.5 11t-4 20.5q0 19 3 32t10 22t19 14t31 9q21 91 34 187.5t20 195.5q-4 -6 -6.5 -10.5t-3.5 -6.5q-57 -112 -112.5 -226t-107.5 -226q-12 -27 -34 -27 q-30 0 -51.5 27.5t-26.5 63.5q-17 105 -30.5 208.5t-31.5 208.5q-21 -100 -38.5 -197.5t-28.5 -196.5q28 -5 45.5 -11t26.5 -14t12 -19t3 -24q-4 -38 -39 -38h-41q-32 0 -64 -2t-65 -2q-13 0 -25 10t-23 42q-6 13 -6 26z" />
<glyph unicode="&#xe000;" horiz-adv-x="1105" d="M0 0v1105h1105v-1105h-1105z" />
<glyph unicode="&#xfb01;" horiz-adv-x="1159" d="M16 167q0 115 85 134q44 10 50 34q26 109 43.5 220.5t42.5 223.5q1 4 1 11q0 27 -31 27q-73 0 -107.5 20t-34.5 73q0 39 13 79t34 67q31 41 133 46q41 2 48 41q10 96 36.5 184t69 162.5t99 132t126.5 92.5q34 18 74 18q49 0 80.5 -19t33.5 -45q1 -26 4 -55.5t6 -60.5 t5.5 -62.5t2.5 -60.5q0 -85 -53 -85q-15 0 -34.5 7t-38 17t-35 21.5t-25.5 19.5q-23 20 -50 20q-13 0 -24.5 -20t-20.5 -51t-16 -68.5t-11.5 -73t-7 -64.5t-2.5 -43q0 -28 8.5 -38.5t24.5 -14.5l249 -17q68 7 111.5 11t62.5 4q45 0 72.5 -13t42 -32t19.5 -40.5t5 -37.5 q0 -10 -3 -10q-1 0 -3 2q-36 -151 -67 -299.5t-65 -298.5q-4 -15 -4 -29q0 -30 26 -35q36 -7 58 -17.5t34 -25t16 -34t4 -44.5q0 -134 -124 -134h-8q-28 0 -56 -1t-56 -1q-52 0 -93 8t-69 27.5t-43 52.5t-15 84q0 89 60 94q30 2 48 18t24 48q10 52 18 108.5t15.5 109 t14.5 97t14 71.5q1 5 1 10v10q0 12 -1 20.5t-6.5 15t-17 10t-31.5 4.5q-158 9 -322 9q-19 -100 -39.5 -198t-37.5 -198q-2 -19 -3 -34t-1 -27q0 -39 13 -50.5t48 -13.5q30 -2 44 -12.5t14 -37.5q0 -11 -2 -25t-6 -32q-27 -137 -104 -153q1 0 1 -1q-2 -1 -4 -1h-11 q-20 0 -50.5 1t-66.5 2.5t-73.5 3t-71.5 2.5q-44 2 -67 36.5t-23 103.5zM890 1406q0 68 42 100q32 25 82 25q59 0 97 -27t38 -88q0 -70 -31.5 -115t-92.5 -45q-28 0 -52.5 10t-43 29t-29 47t-10.5 64z" />
<glyph unicode="&#xfb02;" horiz-adv-x="1237" d="M18 165q0 115 85 134q44 10 50 34q26 109 43.5 220.5t42.5 223.5q1 4 1 11q0 27 -31 27q-73 0 -107.5 20t-34.5 73q0 39 13 79t34 67q31 41 133 46q41 2 48 41q10 96 36.5 184t69 162.5t99 132t126.5 92.5q42 21 120 21q17 0 36 -1t39 -3q73 -7 133.5 -8t107.5 -5.5 t80 -17.5t52 -44q16 -27 23 -55.5t7 -58.5q0 -29 -4 -59.5t-9 -59.5q-48 -260 -100 -517t-103 -517q-6 -30 -6 -52q0 -50 32 -59q45 -13 71 -25t40 -23.5t18.5 -24t4.5 -27.5q0 -19 -5 -40t-5 -38v-10q0 -33 -30.5 -51.5t-77 -27.5t-101 -11t-101.5 -2q-45 0 -79 5 t-56.5 17.5t-34 34.5t-11.5 55q0 22 4 42q3 18 6.5 35t9 33t15.5 29.5t27 23.5q20 13 44 49t38 109q22 114 40.5 228.5t36 229t35.5 229t41 228.5q1 5 1.5 9t0.5 9q0 26 -20 44t-62 18q-16 0 -22.5 -14t-12 -31t-15 -31t-30.5 -14q-28 0 -59.5 14.5t-60 32t-52 32 t-36.5 14.5t-24.5 -20t-20.5 -51t-16 -68.5t-11.5 -73t-7 -64.5t-2.5 -43q0 -28 8.5 -38.5t24.5 -14.5q55 -15 89 -25t53 -24t25.5 -37t6.5 -64q0 -47 -13.5 -71.5t-36.5 -27.5q-48 -6 -213 -6q-19 -100 -39.5 -198t-37.5 -198q-2 -19 -3 -34t-1 -27q0 -39 13 -50.5 t48 -13.5q30 -2 44 -12.5t14 -37.5q0 -11 -2 -25t-6 -32q-27 -137 -104 -153q1 0 1 -1q-2 -1 -4 -1h-11q-20 0 -50.5 1t-66.5 2.5t-73.5 3t-71.5 2.5q-44 2 -67 36.5t-23 103.5z" />
<glyph unicode="&#xfb03;" horiz-adv-x="1742" d="M18 165q0 115 85 134q44 10 50 34q26 109 43.5 220.5t42.5 223.5q1 4 1 11q0 27 -31 27q-73 0 -107.5 20t-34.5 73q0 39 13 79t34 67q31 41 133 46q41 2 48 41q10 96 36.5 184t69 162.5t99 132t126.5 92.5q34 18 74 18q49 0 80.5 -19t33.5 -45q1 -26 4 -55.5t6 -60.5 t5.5 -62.5t2.5 -60.5q0 -85 -53 -85q-15 0 -34.5 7t-38 17t-35 21.5t-25.5 19.5q-23 20 -50 20q-14 0 -25 -17.5t-19 -43.5t-13.5 -57.5t-9.5 -60t-6 -49.5t-2 -27q-3 -23 -3 -38q0 -28 8.5 -38.5t24.5 -14.5l278 -17q41 2 48 41q14 108 43 203.5t72.5 173.5t100.5 136.5 t126 93.5q34 18 74 18q49 0 80.5 -19t33.5 -45q1 -26 4 -55.5t6 -60.5t5.5 -62.5t2.5 -60.5q0 -85 -53 -85q-15 0 -34.5 7t-38 17t-35 21.5t-25.5 19.5q-11 9 -24 14.5t-26 5.5t-24.5 -20t-20.5 -51t-16 -68.5t-11.5 -73t-7 -64.5t-2.5 -43q0 -28 8.5 -38.5t24.5 -14.5 q89 -4 147 -6.5t86 -2.5q42 0 83.5 7.5t83.5 7.5q44 0 71.5 -13t42.5 -32t20.5 -41.5t5.5 -40.5q0 -14 -2 -26.5t-5 -25.5q-18 -77 -32.5 -144.5t-28 -133.5t-27.5 -134t-32 -144q-4 -15 -4 -29q0 -30 26 -35q36 -7 58 -17.5t34 -25t16 -34t4 -44.5q0 -134 -124 -134h-8 q-28 0 -56 -1t-56 -1q-52 0 -93 8t-69 27.5t-43 52.5t-15 84q0 89 60 94q30 2 48 18t24 48q11 56 20.5 118t16 118.5t10.5 103t4 72.5q0 12 -1 20.5t-6.5 14.5t-17 9.5t-31.5 5.5q-67 1 -141.5 1h-157.5q-19 -100 -39.5 -198t-37.5 -198q-2 -19 -3 -34t-1 -27 q0 -39 13 -50.5t48 -13.5q30 -2 44 -12.5t14 -37.5q0 -11 -2 -25t-6 -32q-27 -137 -104 -153q1 0 1 -1q-2 -1 -4 -1h-11q-20 0 -50.5 1t-66.5 2.5t-73.5 3t-71.5 2.5q-44 2 -67 36.5t-23 103.5q0 115 85 134q44 10 50 34q12 54 22.5 110t20.5 111t20.5 107t22.5 98q1 4 1 11 q0 27 -31 27q-90 0 -175.5 1.5t-168.5 0.5q-19 -100 -39.5 -198t-37.5 -198q-2 -19 -3 -34t-1 -27q0 -39 13 -50.5t48 -13.5q30 -2 44 -12.5t14 -37.5q0 -11 -2 -25t-6 -32q-27 -137 -104 -153q1 0 1 -1q-2 -1 -4 -1h-11q-20 0 -50.5 1t-66.5 2.5t-73.5 3t-71.5 2.5 q-88 3 -90 140zM1469 1407q0 68 42 100q32 25 82 25q59 0 97 -27t38 -88q0 -70 -31.5 -115t-92.5 -45q-28 0 -52.5 10t-43 29t-29 47t-10.5 64z" />
<glyph unicode="&#xfb04;" horiz-adv-x="1789" d="M18 165q0 115 85 134q44 10 50 34q26 109 43.5 220.5t42.5 223.5q1 4 1 11q0 27 -31 27q-73 0 -107.5 20t-34.5 73q0 39 13 79t34 67q31 41 133 46q41 2 48 41q10 96 36.5 184t69 162.5t99 132t126.5 92.5q34 18 74 18q49 0 80.5 -19t33.5 -45q1 -26 4 -55.5t6 -60.5 t5.5 -62.5t2.5 -60.5q0 -85 -53 -85q-15 0 -34.5 7t-38 17t-35 21.5t-25.5 19.5q-23 20 -50 20q-13 0 -23 -15.5t-18 -39.5t-14 -54.5t-10.5 -60t-7.5 -56t-6 -43.5q-3 -21 -3 -35q0 -25 9.5 -35.5t31.5 -14.5l256 -4q41 2 48 41q12 107 40.5 201.5t71 171.5t99.5 135.5 t127 93.5q42 21 113 21q15 0 32 -1t35 -3q64 -7 121 -8t103.5 -5.5t80.5 -17.5t53 -44q16 -27 23 -55.5t7 -58.5q0 -29 -4 -59.5t-9 -59.5q-48 -260 -100 -517t-103 -517q-6 -30 -6 -52q0 -50 32 -59q45 -13 71 -25t40 -23.5t18.5 -24t4.5 -27.5q0 -19 -5 -40t-5 -38v-10 q0 -33 -30.5 -51.5t-77 -27.5t-101 -11t-101.5 -2q-45 0 -79 5t-56.5 17.5t-34 34.5t-11.5 55q0 18 2.5 41.5t9 46.5t18.5 43t32 32q21 12 44.5 48.5t37.5 109.5q22 114 40.5 228.5t36 229t35.5 229t41 228.5q3 15 3 27q0 50 -47 50t-53 -55q-3 -31 -36 -31 q-27 0 -57.5 14.5t-59 31.5t-52 31.5t-36.5 14.5t-24.5 -20t-20.5 -51t-16 -68.5t-11.5 -73t-7 -64.5t-2.5 -43q0 -28 8.5 -38.5t24.5 -14.5q55 -15 89 -25t53 -24t25.5 -37t6.5 -64q0 -47 -13.5 -71.5t-36.5 -27.5q-48 -6 -213 -6q-19 -100 -39.5 -198t-37.5 -198 q-2 -19 -3 -34t-1 -27q0 -39 13 -50.5t48 -13.5q30 -2 44 -12.5t14 -37.5q0 -11 -2 -25t-6 -32q-27 -137 -104 -153q1 0 1 -1q-2 -1 -4 -1h-11q-20 0 -50.5 1t-66.5 2.5t-73.5 3t-71.5 2.5q-44 2 -67 36.5t-23 103.5q0 115 85 134q44 10 50 34q12 54 22.5 110t20.5 111 t20.5 106.5t22.5 96.5q1 4 1 11q0 27 -31 27l-322 4q-19 -100 -39.5 -198t-37.5 -198q-2 -19 -3 -34t-1 -27q0 -39 13 -50.5t48 -13.5q30 -2 44 -12.5t14 -37.5q0 -11 -2 -25t-6 -32q-27 -137 -104 -153q1 0 1 -1q-2 -1 -4 -1h-11q-20 0 -50.5 1t-66.5 2.5t-73.5 3 t-71.5 2.5q-88 3 -90 140z" />
</font>
</defs>
</svg>
