<?xml version="1.0" encoding="utf-8"?>
<!-- Generator: Adobe Illustrator 16.0.0, SVG Export Plug-In . SVG Version: 6.00 Build 0)  -->
<!DOCTYPE svg PUBLIC "-//W3C//DTD SVG 1.1//EN" "http://www.w3.org/Graphics/SVG/1.1/DTD/svg11.dtd">
<svg version="1.1" id="Layer_1" xmlns="http://www.w3.org/2000/svg" xmlns:xlink="http://www.w3.org/1999/xlink" x="0px" y="0px"
	 width="100px" height="100px" viewBox="0 0 100 100" enable-background="new 0 0 100 100" xml:space="preserve" fill="white">
<path d="M9.808,54.859c0.333,0,0.669-0.111,0.948-0.338l7.565-6.183v37.662c0,0.829,0.671,1.5,1.5,1.5h60.087
	c0.829,0,1.5-0.671,1.5-1.5V48.328l8.36,6.233c0.269,0.201,0.583,0.297,0.896,0.297c0.457,0,0.909-0.208,1.204-0.604
	c0.495-0.664,0.358-1.604-0.306-2.099l-10.377-7.737c-0.198-0.324-0.515-0.564-0.891-0.665L49.277,20.629
	c-0.029-0.021-0.061-0.035-0.09-0.054c-0.046-0.029-0.091-0.06-0.14-0.084c-0.044-0.022-0.09-0.038-0.135-0.055
	c-0.044-0.017-0.088-0.035-0.134-0.048c-0.049-0.013-0.099-0.021-0.149-0.029c-0.045-0.008-0.09-0.016-0.136-0.02
	c-0.049-0.004-0.097-0.002-0.146-0.001c-0.048,0.001-0.095,0.001-0.143,0.007c-0.047,0.005-0.093,0.016-0.139,0.026
	c-0.048,0.01-0.096,0.02-0.143,0.035s-0.092,0.036-0.138,0.056c-0.043,0.019-0.086,0.036-0.127,0.059
	c-0.049,0.027-0.095,0.06-0.141,0.093c-0.028,0.02-0.058,0.034-0.084,0.056L35.14,30.716v-3.84c0-0.829-0.671-1.5-1.5-1.5h-8.709
	c-0.829,0-1.5,0.671-1.5,1.5v13.411L8.857,52.197c-0.642,0.524-0.736,1.469-0.212,2.111C8.942,54.671,9.373,54.859,9.808,54.859z
	 M26.431,28.375h5.709v4.792l-5.709,4.666V28.375z M21.321,45.886l27.102-22.151l29.985,22.357v38.407H21.321V45.886z"/>
</svg>
